<svg width="40" height="40" viewBox="0 0 40 40" fill="none" xmlns="http://www.w3.org/2000/svg">
<g clip-path="url(#clip0_568_8911)">
<path d="M37.0837 1.66675H2.91699V26.6834H37.0837V1.66675Z" fill="#E8E9EA"/>
<path d="M31.7503 3.75H23.917H16.0837H8.25033H2.91699V11.1083C3.24199 11.2417 3.58366 11.3417 3.95033 11.375C6.28366 11.6 8.25033 9.76667 8.25033 7.475C8.25033 9.64167 10.0003 11.3917 12.167 11.3917C14.3337 11.3917 16.0837 9.64167 16.0837 7.475C16.0837 9.64167 17.8337 11.3917 20.0003 11.3917C22.167 11.3917 23.917 9.64167 23.917 7.475C23.917 9.64167 25.667 11.3917 27.8337 11.3917C30.0003 11.3917 31.7503 9.64167 31.7503 7.475V7.30833C31.7503 9.35 33.242 11.1833 35.2837 11.375C35.9253 11.4333 36.5337 11.3417 37.0837 11.125V3.75H31.7503Z" fill="#D9DCE1"/>
<path d="M26.3583 25.825C26.3583 22.9833 23.5083 20.6833 19.9999 20.6833C16.4833 20.6833 13.6416 22.9833 13.6416 25.825" fill="#FF78EC"/>
<path d="M20.0003 12.8167C18.1253 12.8167 16.6003 14.3416 16.6003 16.2166C16.6003 18.0917 18.1253 19.6167 20.0003 19.6167C21.8753 19.6167 23.4003 18.0917 23.4003 16.2166C23.4003 14.3416 21.8753 12.8167 20.0003 12.8167ZM2.91699 27.9333V38.6416C2.91699 39.1583 3.34199 39.5833 3.85866 39.5833H36.142C36.6587 39.5833 37.0837 39.1583 37.0837 38.6416V27.9333H2.91699Z" fill="#DDA276"/>
<path d="M37.0837 27.9333H2.91699V29.7333H37.0837V27.9333Z" fill="#DB8545"/>
<path d="M38.3337 27.9333H1.66699C0.975326 27.9333 0.416992 27.375 0.416992 26.6833C0.416992 25.9917 0.975326 25.4333 1.66699 25.4333H38.3337C39.0253 25.4333 39.5837 25.9917 39.5837 26.6833C39.5837 27.375 39.0253 27.9333 38.3337 27.9333Z" fill="#DDA276"/>
<path d="M30.9921 31.4084H9.00879V36.1084H30.9921V31.4084Z" fill="#E8E9EA"/>
<path d="M0.416992 1.40008V3.97508C0.416992 6.01675 1.90866 7.85008 3.95033 8.04175C6.28366 8.26675 8.25033 6.43341 8.25033 4.14175V0.416748H1.40033C0.858659 0.416748 0.416992 0.858415 0.416992 1.40008Z" fill="#EF596B"/>
<path d="M8.25 0.416748V4.14175C8.25 6.30841 10 8.05841 12.1667 8.05841C14.3333 8.05841 16.0833 6.30841 16.0833 4.14175V0.416748H8.25Z" fill="#FCC12B"/>
<path d="M16.084 0.416748V4.14175C16.084 6.30841 17.834 8.05841 20.0007 8.05841C22.1673 8.05841 23.9173 6.30841 23.9173 4.14175V0.416748H16.084Z" fill="#EF596B"/>
<path d="M23.917 0.416748V4.14175C23.917 6.30841 25.667 8.05841 27.8337 8.05841C30.0003 8.05841 31.7503 6.30841 31.7503 4.14175V0.416748H23.917Z" fill="#FCC12B"/>
<path d="M31.75 0.416748V3.97508C31.75 6.01675 33.2417 7.85008 35.2833 8.04175C37.6167 8.26675 39.5833 6.43341 39.5833 4.14175V1.40008C39.5833 0.858415 39.1417 0.416748 38.6 0.416748H31.75Z" fill="#EF596B"/>
</g>
<defs>
<clipPath id="clip0_568_8911">
<rect width="40" height="40" fill="white"/>
</clipPath>
</defs>
</svg>
