<svg width="48" height="48" viewBox="0 0 48 48" fill="none" xmlns="http://www.w3.org/2000/svg">
<path d="M41.673 19.6304C41.4675 19.4916 41.2079 19.4615 40.9768 19.5516L24 26.1947V46.5C24.0923 46.5 24.1849 46.4831 24.2732 46.4484L40.5703 40.0715C41.439 39.7313 42 38.9088 42 37.9761V20.25C42 20.0021 41.8777 19.7703 41.673 19.6304Z" fill="#FFA000"/>
<path d="M7.02319 19.5516C6.79285 19.4608 6.5321 19.4908 6.32703 19.6304C6.12232 19.7702 6 20.0021 6 20.25V37.9761C6 38.9088 6.56141 39.7313 7.43042 40.0715L23.7268 46.4484C23.8151 46.4831 23.9077 46.5 24 46.5V26.1947L7.02319 19.5516Z" fill="#FFB300"/>
<path d="M41.4089 19.5172L24.4768 15.8361C24.1651 15.7687 23.8348 15.7683 23.5217 15.8364L6.5903 19.5172C6.2673 19.5875 23.9996 26.25 23.9996 26.25C23.9996 26.25 41.7319 19.5875 41.4089 19.5172Z" fill="#C47218"/>
<path d="M45.4799 25.8424L41.8929 19.864C41.7047 19.5505 41.3168 19.418 40.9766 19.5517L23.9998 26.1948L7.02302 19.5517C6.68281 19.418 6.29499 19.5506 6.10676 19.864L2.51973 25.8424C1.79623 26.9844 2.35878 28.6336 3.62934 29.0951L18.046 34.7366C19.0507 35.135 20.2271 34.7517 20.7951 33.7991L23.9998 28.4578L27.2045 33.7991C27.7725 34.7517 28.949 35.135 29.9537 34.7366L44.3703 29.0951C45.6409 28.6336 46.2034 26.9844 45.4799 25.8424Z" fill="#FFCA28"/>
<path d="M24 23.25C29.3848 23.25 33.75 18.8848 33.75 13.5C33.75 8.11522 29.3848 3.75 24 3.75C18.6152 3.75 14.25 8.11522 14.25 13.5C14.25 18.8848 18.6152 23.25 24 23.25Z" fill="#FFCA28"/>
<path d="M27.0988 14.168C26.741 13.2955 25.8285 12.9646 24.936 12.7483V10.4086C25.3043 10.5181 25.7593 10.7096 26.017 10.9424C26.281 11.1404 26.6476 11.0715 26.8696 10.8278C27.2212 10.4577 27.1299 9.96093 26.7172 9.64454C26.289 9.26977 25.5692 8.95803 24.936 8.85545V8.38478C24.9429 7.95571 24.6223 7.60002 24.1853 7.60878C23.7521 7.59987 23.4 7.95235 23.4089 8.38478V8.82304C23.0645 8.87056 22.7329 8.94376 22.4289 9.0718C21.4591 9.48224 20.8399 10.2898 20.8513 11.3749C20.7883 12.8561 22.0359 13.7439 23.4089 13.9251V16.4167C22.802 16.3183 22.3886 16.0617 21.8818 15.6632C21.0543 15.0463 20.2427 16.3598 21.0549 16.923C21.774 17.5473 22.496 17.8122 23.4089 17.8877V18.6152C23.3703 19.6321 24.9687 19.6205 24.936 18.6152V17.8234C26.19 17.5788 27.3213 16.6281 27.29 15.2688C27.29 14.8359 27.2263 14.4694 27.0988 14.168ZM23.2177 12.3358C22.7041 12.1504 22.3535 11.865 22.3527 11.3115C22.3442 10.7367 22.8602 10.3816 23.4089 10.2947V12.3931C23.3461 12.3738 23.2758 12.356 23.2177 12.3358ZM25.5212 15.924C25.3717 16.0776 25.1733 16.1988 24.936 16.2937V14.3079C25.4315 14.5242 25.7622 14.8182 25.7629 15.3578C25.7629 15.5698 25.6823 15.7584 25.5212 15.924Z" fill="#424242"/>
</svg>
