<svg width="42" height="40" viewBox="0 0 42 40" fill="none" xmlns="http://www.w3.org/2000/svg">
<g clip-path="url(#clip0_568_8927)">
<path d="M20.9248 10.2597L22.4291 15.1966C22.49 15.3978 22.6057 15.5777 22.7631 15.7158C22.9205 15.8539 23.1132 15.9445 23.3193 15.9775L29.3812 16.9312C29.5749 16.9604 29.7716 16.9649 29.9664 16.9447C30.5587 16.8755 31.1563 17.0176 31.6555 17.3463C31.6846 17.3675 31.7197 17.3789 31.7556 17.3789C31.7916 17.3789 31.8266 17.3675 31.8558 17.3463L32.0894 17.1489C32.1207 17.1215 32.1408 17.0833 32.1457 17.0419C32.1506 17.0004 32.1401 16.9585 32.1161 16.9245C31.9181 16.6507 31.3929 16.0268 30.6207 15.8877C29.6237 15.7037 24.5032 14.3304 24.5032 14.3304L23.0968 10.042L20.9248 10.2597Z" fill="#EDB09F"/>
<path d="M21.0313 11.8933L21.7679 14.4964C21.7774 14.5248 21.7924 14.551 21.8121 14.5734C21.8317 14.5958 21.8556 14.614 21.8824 14.627C21.9091 14.6399 21.9382 14.6474 21.9678 14.6489C21.9975 14.6503 22.0271 14.6458 22.055 14.6356L24.4739 13.6145C24.4946 13.606 24.5134 13.5933 24.5291 13.5773C24.5449 13.5613 24.5573 13.5423 24.5656 13.5213C24.5739 13.5004 24.5779 13.478 24.5775 13.4555C24.577 13.4329 24.5721 13.4107 24.563 13.3901L23.4636 10.8207C23.3716 10.6108 23.2274 10.4284 23.0449 10.2912C22.8624 10.154 22.6479 10.0666 22.4222 10.0375C22.171 10.0049 21.9158 10.0457 21.687 10.1551C21.4582 10.2645 21.2654 10.4379 21.1315 10.6546C21.0173 10.8378 20.9486 11.046 20.9312 11.2616C20.9137 11.4773 20.9481 11.694 21.0313 11.8933Z" fill="#FF3653"/>
<path d="M30.6443 18.8901L31.3052 20.3039L29.7541 21.1499L28.8662 19.0697L30.6443 18.8901Z" fill="#1A252D"/>
<path d="M31.21 35.2312C31.2095 36.175 31.4867 37.0977 32.0064 37.8826C32.5261 38.6675 33.2649 39.2793 34.1295 39.6407C34.9941 40.0021 35.9456 40.0968 36.8635 39.9127C37.7815 39.7287 38.6247 39.2743 39.2865 38.607C39.9483 37.9396 40.3989 37.0893 40.5814 36.1637C40.7639 35.238 40.67 34.2786 40.3116 33.4067C39.9533 32.5349 39.3465 31.7898 38.5681 31.2657C37.7898 30.7417 36.8748 30.4622 35.9388 30.4626C34.6847 30.4626 33.4819 30.9651 32.595 31.8593C31.7082 32.7536 31.21 33.9665 31.21 35.2312ZM33.3663 35.2312C33.3663 34.7182 33.5172 34.2166 33.7999 33.79C34.0826 33.3634 34.4843 33.0309 34.9544 32.8346C35.4245 32.6382 35.9417 32.5869 36.4407 32.687C36.9397 32.7871 37.3981 33.0341 37.7579 33.3969C38.1177 33.7597 38.3627 34.2219 38.4619 34.7251C38.5612 35.2284 38.5102 35.7499 38.3155 36.224C38.1208 36.698 37.7911 37.1031 37.3681 37.3882C36.945 37.6732 36.4476 37.8253 35.9388 37.8253C35.6002 37.8265 35.2646 37.7603 34.9513 37.6305C34.6381 37.5007 34.3533 37.3098 34.1133 37.0689C33.8733 36.8279 33.6828 36.5415 33.5527 36.2262C33.4226 35.9109 33.3555 35.5728 33.3552 35.2312H33.3663Z" fill="#1A252D"/>
<path d="M32.8211 35.0249C32.7796 35.6629 32.9322 36.2986 33.2584 36.8468C33.5846 37.3951 34.069 37.83 34.6468 38.0934C35.2246 38.3567 35.8684 38.436 36.4921 38.3206C37.1157 38.2053 37.6897 37.9007 38.1372 37.4477C38.5847 36.9947 38.8845 36.4148 38.9965 35.7855C39.1085 35.1561 39.0274 34.5073 38.764 33.9256C38.5006 33.344 38.0675 32.8572 37.5226 32.5304C36.9776 32.2035 36.3467 32.0521 35.7141 32.0964C34.9622 32.1491 34.2547 32.4748 33.7227 33.0133C33.1908 33.5518 32.8705 34.2665 32.8211 35.0249ZM33.9049 33.6269C34.2288 33.213 34.6695 32.9078 35.1689 32.7517C35.2343 32.7339 35.3029 32.7314 35.3693 32.7444C35.4358 32.7574 35.4985 32.7856 35.5526 32.8267C35.6067 32.8678 35.6508 32.9208 35.6814 32.9817C35.7121 33.0426 35.7286 33.1098 35.7297 33.178V34.244C35.7285 34.3134 35.7114 34.3816 35.6796 34.4432C35.6479 34.5048 35.6024 34.5582 35.5468 34.5991C35.4911 34.64 35.4268 34.6673 35.3589 34.6789C35.2911 34.6904 35.2214 34.686 35.1555 34.6658L34.1141 34.3337C34.0457 34.3112 33.9838 34.2723 33.9337 34.2203C33.8835 34.1684 33.8465 34.105 33.826 34.0355C33.8054 33.966 33.8019 33.8926 33.8156 33.8214C33.8293 33.7502 33.86 33.6835 33.9049 33.6269ZM36.6866 32.7517C37.186 32.9078 37.6267 33.213 37.9506 33.6269C37.9936 33.6834 38.0226 33.7494 38.0353 33.8195C38.048 33.8896 38.044 33.9617 38.0235 34.0299C38.0031 34.0981 37.9668 34.1604 37.9178 34.2117C37.8687 34.263 37.8083 34.3017 37.7414 34.3248L36.6999 34.6658C36.634 34.686 36.5644 34.6904 36.4965 34.6789C36.4286 34.6673 36.3643 34.64 36.3087 34.5991C36.253 34.5582 36.2076 34.5048 36.1758 34.4432C36.1441 34.3816 36.127 34.3134 36.1258 34.244V33.178C36.1285 33.1107 36.1462 33.0449 36.1776 32.9854C36.209 32.9259 36.2532 32.8743 36.3071 32.8344C36.361 32.7945 36.4231 32.7674 36.4888 32.755C36.5545 32.7426 36.6221 32.7453 36.6866 32.7629V32.7517ZM38.0218 36.7259C37.9803 36.7812 37.9267 36.826 37.8651 36.8569C37.8035 36.8878 37.7356 36.9039 37.6669 36.9039C37.5981 36.9039 37.5302 36.8878 37.4686 36.8569C37.4071 36.826 37.3534 36.7812 37.3119 36.7259L36.5953 35.7295C36.5576 35.6726 36.5332 35.6077 36.5241 35.5398C36.515 35.472 36.5215 35.4029 36.5429 35.3379C36.5644 35.2729 36.6004 35.2138 36.648 35.1649C36.6957 35.1161 36.7538 35.079 36.8179 35.0563L37.9172 34.6973C37.9805 34.6776 38.0474 34.6725 38.1129 34.6822C38.1784 34.6919 38.241 34.7163 38.296 34.7535C38.351 34.7907 38.3971 34.8398 38.4309 34.8972C38.4647 34.9546 38.4853 35.019 38.4913 35.0855C38.4913 35.1371 38.4913 35.1887 38.4913 35.2403C38.4931 35.7715 38.3322 36.2903 38.0307 36.7259H38.0218ZM36.8157 37.6616C36.241 37.8743 35.6101 37.8743 35.0354 37.6616C34.9731 37.6366 34.9173 37.5977 34.8721 37.5478C34.8268 37.498 34.7933 37.4385 34.7741 37.3738C34.7548 37.3091 34.7503 37.2408 34.7609 37.1741C34.7714 37.1073 34.7968 37.0439 34.8351 36.9884L35.5739 35.9629C35.6154 35.9072 35.6691 35.8619 35.7309 35.8308C35.7927 35.7996 35.8609 35.7834 35.93 35.7834C35.9991 35.7834 36.0672 35.7996 36.129 35.8308C36.1908 35.8619 36.2446 35.9072 36.286 35.9629L37.0248 36.9884C37.0631 37.0439 37.0885 37.1073 37.099 37.1741C37.1096 37.2408 37.1051 37.3091 37.0858 37.3738C37.0666 37.4385 37.0331 37.498 36.9878 37.5478C36.9426 37.5977 36.8868 37.6366 36.8246 37.6616H36.8157ZM33.8181 36.7259C33.5096 36.2889 33.3447 35.7655 33.3463 35.2291C33.3463 35.1775 33.3463 35.1259 33.3463 35.0743C33.3523 35.0077 33.373 34.9434 33.4068 34.886C33.4406 34.8285 33.4867 34.7794 33.5417 34.7422C33.5967 34.705 33.6592 34.6807 33.7248 34.671C33.7903 34.6612 33.8572 34.6664 33.9205 34.686L35.0198 35.0451C35.0839 35.0678 35.142 35.1049 35.1896 35.1537C35.2373 35.2025 35.2732 35.2617 35.2947 35.3267C35.3162 35.3917 35.3226 35.4607 35.3136 35.5286C35.3045 35.5965 35.2801 35.6614 35.2423 35.7183L34.5235 36.7147C34.4827 36.7682 34.4304 36.8117 34.3706 36.842C34.3107 36.8723 34.2449 36.8886 34.1779 36.8897C34.111 36.8907 34.0447 36.8766 33.9839 36.8482C33.9231 36.8198 33.8695 36.778 33.827 36.7259H33.8181Z" fill="white" stroke="#1A252D" stroke-width="0.32" stroke-miterlimit="10"/>
<path d="M34.4816 34.0106C34.2361 34.3073 34.0861 34.6723 34.0516 35.0571C34.0171 35.4419 34.0997 35.8281 34.2884 36.1644C34.4771 36.5006 34.7629 36.7709 35.1077 36.9392C35.4526 37.1075 35.8402 37.1659 36.2187 37.1064C36.5973 37.047 36.9489 36.8727 37.2268 36.6066C37.5046 36.3406 37.6954 35.9955 37.7738 35.6173C37.8522 35.2391 37.8145 34.8458 37.6656 34.4898C37.5168 34.1339 37.2638 33.8321 36.9406 33.6247C36.5542 33.3768 36.0915 33.2792 35.6389 33.3503C35.1864 33.4213 34.775 33.656 34.4816 34.0106Z" fill="white" stroke="#1A252D" stroke-width="0.32" stroke-miterlimit="10"/>
<path d="M9.80664 35.2312C9.8062 36.1749 10.0833 37.0975 10.6029 37.8824C11.1225 38.6672 11.8612 39.2791 12.7257 39.6405C13.5902 40.0019 14.5415 40.0967 15.4594 39.9129C16.3773 39.7291 17.2205 39.2749 17.8824 38.6078C18.5442 37.9406 18.9951 37.0906 19.1778 36.165C19.3605 35.2395 19.267 34.2802 18.9089 33.4083C18.5509 32.5364 17.9445 31.7912 17.1664 31.2668C16.3884 30.7425 15.4736 30.4626 14.5378 30.4626C13.2834 30.4626 12.0803 30.965 11.1931 31.8592C10.3059 32.7534 9.80723 33.9663 9.80664 35.2312ZM11.9652 35.2312C11.9652 34.7182 12.1161 34.2166 12.3988 33.79C12.6815 33.3634 13.0832 33.0309 13.5533 32.8346C14.0234 32.6382 14.5406 32.5869 15.0396 32.687C15.5386 32.7871 15.997 33.0341 16.3568 33.3969C16.7166 33.7597 16.9616 34.2219 17.0608 34.7251C17.1601 35.2284 17.1092 35.7499 16.9144 36.224C16.7197 36.698 16.39 37.1031 15.967 37.3882C15.5439 37.6732 15.0465 37.8253 14.5378 37.8253C13.8555 37.8253 13.2012 37.552 12.7187 37.0655C12.2363 36.5791 11.9652 35.9192 11.9652 35.2312Z" fill="#1A252D"/>
<path d="M11.4292 35.0249C11.3889 35.6622 11.5422 36.2967 11.8686 36.844C12.195 37.3912 12.6791 37.8252 13.2562 38.088C13.8334 38.3508 14.4763 38.43 15.0992 38.315C15.7222 38.2 16.2956 37.8964 16.743 37.4444C17.1905 36.9925 17.4908 36.4139 17.6038 35.7855C17.7169 35.1572 17.6373 34.509 17.3758 33.9274C17.1143 33.3458 16.6833 32.8583 16.1401 32.53C15.5969 32.2017 14.9674 32.0481 14.3355 32.0897C13.5801 32.1394 12.8685 32.4647 12.3337 33.0049C11.7988 33.545 11.4773 34.2631 11.4292 35.0249ZM12.5174 33.6268C12.8413 33.213 13.282 32.9078 13.7814 32.7517C13.8468 32.7339 13.9153 32.7314 13.9818 32.7444C14.0483 32.7574 14.111 32.7855 14.1651 32.8267C14.2192 32.8678 14.2632 32.9208 14.2939 32.9817C14.3246 33.0426 14.3411 33.1097 14.3422 33.178V34.244C14.341 34.3134 14.3239 34.3816 14.2921 34.4432C14.2604 34.5048 14.2149 34.5582 14.1593 34.5991C14.1036 34.6399 14.0393 34.6673 13.9714 34.6788C13.9035 34.6904 13.8339 34.686 13.768 34.6658L12.7243 34.3337C12.6562 34.3109 12.5945 34.2718 12.5446 34.2198C12.4946 34.1677 12.458 34.1043 12.4376 34.0348C12.4173 33.9654 12.4139 33.892 12.4278 33.821C12.4417 33.7499 12.4724 33.6833 12.5174 33.6268ZM15.2991 32.7517C15.7984 32.9078 16.2392 33.213 16.5631 33.6268C16.6061 33.6834 16.6351 33.7494 16.6478 33.8195C16.6605 33.8896 16.6564 33.9617 16.636 34.0299C16.6155 34.0981 16.5793 34.1604 16.5302 34.2117C16.4812 34.2629 16.4207 34.3017 16.3539 34.3247L15.3124 34.6658C15.2468 34.6851 15.1776 34.689 15.1103 34.677C15.043 34.665 14.9794 34.6375 14.9243 34.5967C14.8692 34.5559 14.8241 34.5029 14.7926 34.4417C14.7612 34.3805 14.7441 34.3129 14.7427 34.244V33.178C14.7456 33.1114 14.7632 33.0463 14.7942 32.9875C14.8252 32.9286 14.8689 32.8774 14.9219 32.8376C14.975 32.7979 15.0362 32.7706 15.101 32.7576C15.1659 32.7447 15.2328 32.7465 15.2968 32.7629L15.2991 32.7517ZM16.6343 36.7259C16.5927 36.7808 16.5392 36.8252 16.4778 36.8559C16.4165 36.8865 16.3489 36.9024 16.2804 36.9024C16.212 36.9024 16.1444 36.8865 16.083 36.8559C16.0217 36.8252 15.9681 36.7808 15.9266 36.7259L15.2078 35.7295C15.17 35.6726 15.1457 35.6077 15.1366 35.5398C15.1275 35.4719 15.1339 35.4029 15.1554 35.3379C15.1769 35.2729 15.2128 35.2137 15.2605 35.1649C15.3082 35.1161 15.3663 35.079 15.4304 35.0563L16.5297 34.6973C16.593 34.6776 16.6598 34.6725 16.7254 34.6822C16.7909 34.6919 16.8534 34.7162 16.9085 34.7534C16.9635 34.7906 17.0096 34.8398 17.0434 34.8972C17.0772 34.9546 17.0978 35.019 17.1038 35.0855C17.1038 35.1371 17.1038 35.1887 17.1038 35.2403C17.1051 35.7721 16.9426 36.2912 16.6387 36.7259H16.6343ZM15.4281 37.6616C14.8534 37.8743 14.2225 37.8743 13.6478 37.6616C13.5858 37.6363 13.5302 37.5973 13.4852 37.5473C13.4402 37.4974 13.4069 37.4379 13.3879 37.3732C13.3689 37.3085 13.3645 37.2403 13.3753 37.1737C13.386 37.107 13.4114 37.0437 13.4498 36.9884L14.1886 35.9629C14.2301 35.9071 14.2838 35.8619 14.3456 35.8307C14.4074 35.7996 14.4756 35.7834 14.5447 35.7834C14.6138 35.7834 14.6819 35.7996 14.7437 35.8307C14.8055 35.8619 14.8593 35.9071 14.9007 35.9629L15.6329 36.9862C15.6716 37.0417 15.6973 37.1053 15.7081 37.1723C15.7189 37.2393 15.7145 37.3079 15.6952 37.3729C15.6759 37.4379 15.6423 37.4977 15.5968 37.5477C15.5513 37.5977 15.4952 37.6367 15.4326 37.6616H15.4281ZM12.4306 36.7259C12.1257 36.2883 11.9632 35.7661 11.9655 35.2313C11.9655 35.1797 11.9655 35.1281 11.9655 35.0765C11.9715 35.01 11.9921 34.9457 12.0259 34.8882C12.0597 34.8308 12.1058 34.7817 12.1608 34.7445C12.2158 34.7073 12.2784 34.6829 12.3439 34.6732C12.4095 34.6635 12.4763 34.6686 12.5396 34.6883L13.6389 35.0473C13.703 35.07 13.7611 35.1072 13.8088 35.156C13.8565 35.2048 13.8924 35.2639 13.9139 35.3289C13.9354 35.3939 13.9418 35.463 13.9327 35.5309C13.9236 35.5987 13.8993 35.6636 13.8615 35.7205L13.1449 36.7169C13.1041 36.7727 13.051 36.8183 12.9898 36.85C12.9286 36.8816 12.861 36.8986 12.7922 36.8994C12.7234 36.9003 12.6553 36.8851 12.5934 36.855C12.5314 36.8249 12.4772 36.7807 12.435 36.7259H12.4306Z" fill="white" stroke="#1A252D" stroke-width="0.32" stroke-miterlimit="10"/>
<path d="M13.0909 34.0106C12.8441 34.307 12.6929 34.6722 12.6575 35.0576C12.622 35.4429 12.7041 35.8299 12.8927 36.167C13.0813 36.504 13.3674 36.775 13.7127 36.9436C14.0581 37.1123 14.4463 37.1706 14.8255 37.1109C15.2046 37.0511 15.5567 36.876 15.8345 36.6091C16.1123 36.3421 16.3027 35.996 16.3803 35.6171C16.4578 35.2381 16.4188 34.8442 16.2684 34.4882C16.1181 34.1322 15.8635 33.8309 15.5388 33.6247C15.1534 33.3799 14.6931 33.2841 14.2431 33.3551C13.7931 33.4261 13.3838 33.6589 13.0909 34.0106Z" fill="white" stroke="#1A252D" stroke-width="0.32" stroke-miterlimit="10"/>
<path d="M32.7188 29.3497L35.1288 35.633C35.2096 35.8451 35.3702 36.0165 35.5757 36.1098C35.7811 36.2031 36.0149 36.2108 36.2259 36.1312C36.4246 36.0551 36.5882 35.9074 36.6852 35.7168C36.7822 35.5261 36.8057 35.306 36.7511 35.0989L34.6326 27.1797L32.7188 29.3497Z" fill="#1A252D"/>
<path d="M10.1937 18.7602V27.0631H0.913911V20.4881C0.912811 20.4769 0.912811 20.4656 0.913911 20.4544C0.9147 20.2858 0.930339 20.1176 0.960644 19.9518C1.08436 19.2819 1.43673 18.6768 1.95662 18.2415C2.47652 17.8061 3.13112 17.5681 3.80688 17.5686H9.01199C9.32539 17.5686 9.62595 17.6941 9.84755 17.9176C10.0692 18.1411 10.1937 18.4442 10.1937 18.7602Z" fill="#FF3653"/>
<path d="M10.1935 19.9517V20.4543H0.916016C0.916804 20.2857 0.932443 20.1175 0.962748 19.9517H10.1935Z" fill="#1A252D"/>
<path d="M35.6227 27.8596L37.8659 28.8448C38.7117 29.2164 39.4582 29.7847 40.0445 30.5031L41.3018 32.0425C41.43 32.2017 41.4987 32.4013 41.4958 32.6064C41.493 32.8114 41.4188 33.009 41.2862 33.1645C41.1864 33.2808 41.0579 33.3683 40.9137 33.4184C40.7695 33.4684 40.6147 33.4792 40.4651 33.4495L37.8258 32.9356C36.6415 32.7036 35.4189 32.7683 34.2652 33.1241L31.2988 34.0375L35.6227 27.8596Z" fill="#FF3653"/>
<path d="M11.0126 26.8767H0.925044C0.812496 26.8773 0.704723 26.9226 0.625139 27.0029C0.545554 27.0832 0.500585 27.1918 0.5 27.3053C0.499852 27.4106 0.538099 27.5122 0.607454 27.5908C0.676809 27.6694 0.772426 27.7196 0.876086 27.7317L10.4184 28.8402L11.0126 26.8767Z" fill="#1A252D"/>
<path d="M36.5861 28.0638L31.9596 34.0464L31.3587 34.8251C31.0952 35.167 30.7578 35.4438 30.3721 35.6344C29.9865 35.8249 29.5628 35.9242 29.1334 35.9246H8.22166C8.01984 35.9259 7.82358 35.858 7.66507 35.732C7.50657 35.606 7.39523 35.4294 7.34932 35.2312C7.3403 35.1951 7.33361 35.1583 7.32929 35.1213L7.19354 33.8669C7.02983 32.3423 7.33434 30.8039 8.06589 29.4596C8.29774 29.0315 8.57133 28.6278 8.88259 28.2545L11.0345 25.6806H24.3867L23.6434 26.8632L23.0114 27.8259C22.6867 28.3286 22.4653 28.8919 22.3601 29.4823C22.255 30.0728 22.2684 30.6786 22.3994 31.2638L22.5441 31.9168C22.6437 32.3652 22.8859 32.7686 23.2338 33.0655C23.5817 33.3624 24.0162 33.5366 24.4712 33.5617L27.0682 33.7547C27.1684 33.7547 27.2707 33.7547 27.3709 33.7547C28.2662 33.7548 29.1486 33.5394 29.9447 33.1265C30.7409 32.7135 31.4278 32.115 31.9484 31.3805C32.0047 31.2988 32.0553 31.2134 32.0998 31.1246C32.3027 30.7049 32.3354 30.2219 32.191 29.7782L29.6519 22.0026L29.3826 21.1723C29.3333 21.0257 29.3355 20.8665 29.389 20.7214C29.4425 20.5763 29.544 20.4542 29.6763 20.3757L30.5442 19.8551C30.7301 19.7434 30.9493 19.7022 31.1626 19.7388C31.3759 19.7754 31.5693 19.8875 31.7081 20.0548L36.5505 25.9319C36.7965 26.23 36.9341 26.6038 36.9406 26.9915C36.9471 27.3792 36.822 27.7576 36.5861 28.0638Z" fill="#FF3653"/>
<path d="M11.0391 25.6785L11.8202 23.0328C11.9877 22.4687 12.2928 21.9561 12.7077 21.5417C13.1225 21.1273 13.6337 20.8245 14.1946 20.6608C14.7153 20.5107 15.2602 20.4656 15.7983 20.5279C16.3363 20.5903 16.8568 20.759 17.3301 21.0244L19.0036 21.9646C19.858 22.4457 20.8458 22.6295 21.8142 22.4875L22.9403 22.3237C23.3497 22.2659 23.7666 22.3442 24.1279 22.5466C24.4893 22.749 24.7754 23.0647 24.9431 23.4457L25.4549 24.6036C25.5127 24.7337 25.5372 24.8763 25.5261 25.0184C25.515 25.1605 25.4686 25.2974 25.3913 25.4167C25.314 25.5361 25.2082 25.6338 25.0836 25.7012C24.959 25.7685 24.8196 25.8031 24.6783 25.8019L11.0391 25.6785Z" fill="#F4A414"/>
<path d="M29.4544 19.8215L30.6873 19.1483C30.8242 19.0719 30.934 18.9542 31.0011 18.8117C31.1101 18.5873 31.3771 18.2574 32.0158 18.2327C32.2033 18.2229 32.3798 18.1403 32.5084 18.0023C32.637 17.8643 32.7077 17.6815 32.7057 17.4922V15.1314C32.7057 14.9345 32.6281 14.7455 32.4899 14.6062C32.3518 14.4669 32.1644 14.3887 31.9691 14.3887H30.1888C29.8557 14.3887 29.527 14.465 29.2273 14.6118C28.9277 14.7586 28.6651 14.9721 28.4592 15.2361C28.2532 15.5001 28.1095 15.8079 28.0386 16.1361C27.9678 16.4643 27.9718 16.8044 28.0502 17.1309L28.6088 19.44C28.6306 19.5272 28.6717 19.6083 28.729 19.6772C28.7864 19.746 28.8584 19.8009 28.9398 19.8376C29.0212 19.8743 29.1098 19.892 29.199 19.8892C29.2881 19.8864 29.3754 19.8632 29.4544 19.8215Z" fill="#FF3653"/>
<path d="M32.4899 18.2777C32.4042 18.2777 32.3219 18.2435 32.261 18.1825C32.2001 18.1216 32.1656 18.0388 32.165 17.9523V14.4606C32.1662 14.3745 32.201 14.2923 32.2618 14.2318C32.3226 14.1713 32.4045 14.1374 32.4899 14.1375C32.5761 14.1375 32.6588 14.172 32.7197 14.2334C32.7806 14.2949 32.8148 14.3782 32.8148 14.4651V17.9523C32.8143 18.0388 32.7798 18.1216 32.7189 18.1825C32.658 18.2435 32.5757 18.2777 32.4899 18.2777Z" fill="#F4A414"/>
<path d="M31.1432 17.1286L29.8747 17.6627C29.7677 17.7049 29.6486 17.7037 29.5424 17.6594C29.4362 17.615 29.3512 17.531 29.3051 17.4248C29.2623 17.3185 29.2616 17.1998 29.303 17.0929C29.3444 16.9861 29.4247 16.8993 29.5276 16.8503L30.7916 16.3185C30.897 16.2754 31.0148 16.2747 31.1207 16.3164C31.2267 16.3581 31.3127 16.4392 31.3613 16.5429C31.4077 16.65 31.4108 16.771 31.3701 16.8804C31.3294 16.9898 31.248 17.0788 31.1432 17.1286Z" fill="#1A252D"/>
<path d="M30.4647 15.5466C30.4412 15.5466 30.4178 15.5419 30.3961 15.5328C30.3743 15.5236 30.3546 15.5102 30.338 15.4933C30.3215 15.4764 30.3084 15.4563 30.2996 15.4343C30.2908 15.4122 30.2864 15.3886 30.2867 15.3649V14.1374C30.2867 13.8455 30.1719 13.5656 29.9675 13.3591C29.763 13.1525 29.4857 13.0362 29.1963 13.0356H29.0472C29 13.0356 28.9547 13.0166 28.9213 12.983C28.8879 12.9493 28.8691 12.9036 28.8691 12.856C28.8691 12.8084 28.8879 12.7628 28.9213 12.7291C28.9547 12.6954 29 12.6765 29.0472 12.6765H29.2074C29.5895 12.6801 29.9548 12.8355 30.224 13.109C30.4931 13.3825 30.6444 13.7521 30.645 14.1374V15.3671C30.6444 15.4149 30.6251 15.4606 30.5914 15.4942C30.5577 15.5278 30.5121 15.5466 30.4647 15.5466Z" fill="#F4A414"/>
<path d="M28.4862 13.9846C28.8647 13.9846 29.1716 13.4783 29.1716 12.8537C29.1716 12.229 28.8647 11.7227 28.4862 11.7227C28.1077 11.7227 27.8008 12.229 27.8008 12.8537C27.8008 13.4783 28.1077 13.9846 28.4862 13.9846Z" fill="#F4A414"/>
<path d="M28.5104 31.1045H26.2939V33.3396H28.5104V31.1045Z" fill="#F7C4A3"/>
<path d="M17.2438 19.6981C17.2436 19.6422 17.2555 19.587 17.2789 19.5363C17.3022 19.4857 17.3363 19.4408 17.3789 19.405C17.4214 19.3692 17.4712 19.3433 17.5248 19.3292C17.5784 19.3151 17.6345 19.3131 17.6889 19.3233L22.0706 20.0639L25.382 20.6226C26.2543 20.7707 27.5094 20.7662 28.2371 21.2846C29.9039 22.474 29.2118 25.2409 29.1273 26.9688C29.0471 28.4813 28.9685 29.9952 28.8914 31.5107C28.8868 31.6081 28.8451 31.7001 28.7751 31.7673C28.7051 31.8346 28.612 31.8721 28.5153 31.872H26.3678C26.2684 31.872 26.1731 31.8324 26.1027 31.7617C26.0322 31.6911 25.9923 31.5952 25.9917 31.495L25.9027 25.0883C25.9027 25.0726 25.9027 25.0568 25.9027 25.0411C25.9628 24.4936 25.9761 24.1435 25.4421 24.1435H25.3864C23.3725 23.8451 21.3563 23.5623 19.3423 23.2818C18.8041 23.2344 18.2891 23.0388 17.8536 22.7163C16.91 21.9444 17.2438 20.7528 17.2438 19.6981Z" fill="#1A252D"/>
<path d="M20.4062 7.7644L22.211 9.26567C22.5537 9.51145 22.8786 9.78141 23.1835 10.0735C24.0425 11.034 23.8511 12.7148 23.9557 13.9108C24.0684 15.3186 24.1827 16.7256 24.2984 18.1319C24.2984 18.2688 24.4341 20.4432 24.4853 20.4455L17.175 19.9585C17.1423 19.959 17.1099 19.9522 17.0801 19.9386C17.0503 19.925 17.0238 19.905 17.0026 19.8799C16.9813 19.8549 16.9658 19.8254 16.9572 19.7936C16.9485 19.7618 16.9469 19.7285 16.9525 19.696C17.1906 17.8581 17.4131 16.0202 17.6134 14.1801C17.7981 12.542 17.8493 10.7849 18.6971 9.32626C19.1155 8.60816 19.7275 8.19526 20.4062 7.7644Z" fill="#FF3653"/>
<path d="M21.0849 5.76025L20.5664 7.63851L22.9253 9.47638L23.0009 6.50752L21.0849 5.76025Z" fill="#EDB09F"/>
<path d="M26.0225 4.76615C26.0225 6.58606 24.9878 7.65871 23.9908 7.8517C21.919 8.25114 20.1943 6.23375 20.1943 4.41159C20.1967 3.53826 20.5424 2.70152 21.1556 2.08483C21.7688 1.46814 22.5996 1.12182 23.4656 1.12183C25.2704 1.12183 26.0225 2.94399 26.0225 4.76615Z" fill="#EDB09F"/>
<path d="M20.5748 7.10449L20.0674 8.00211L23.4766 10.6299C23.4908 10.641 23.5078 10.648 23.5257 10.6501C23.5436 10.6521 23.5617 10.6492 23.5781 10.6415C23.5944 10.6339 23.6083 10.6218 23.6183 10.6067C23.6283 10.5916 23.6339 10.574 23.6346 10.5558L23.6814 9.51908C23.6888 9.36621 23.6551 9.21416 23.5838 9.07905C23.5125 8.94394 23.4062 8.83079 23.2763 8.75162L20.5748 7.10449Z" fill="#FF3653"/>
<path d="M20.2324 12.066L22.3977 16.02C22.4582 16.2217 22.5738 16.4021 22.7312 16.5406C22.8886 16.6791 23.0815 16.7701 23.2878 16.8032L28.2615 17.1286C28.4544 17.1588 28.6505 17.1634 28.8446 17.142C29.4392 17.0694 30.0403 17.21 30.5425 17.5392C30.572 17.5606 30.6074 17.5721 30.6438 17.5721C30.6801 17.5721 30.7155 17.5606 30.745 17.5392L30.9676 17.3417C30.9987 17.3144 31.0189 17.2764 31.0242 17.2351C31.0296 17.1937 31.0197 17.1518 30.9965 17.1173C30.7962 16.8436 30.271 16.2197 29.4988 16.0806C28.5019 15.8966 24.0912 15.1269 24.0912 15.1269L21.9638 10.9956L20.2324 12.066Z" fill="#EDB09F"/>
<path d="M19.7801 11.9628L20.9261 14.4918C20.9395 14.5196 20.9583 14.5443 20.9816 14.5643C21.0048 14.5844 21.0318 14.5994 21.0611 14.6085C21.0903 14.6176 21.1211 14.6204 21.1515 14.617C21.1819 14.6135 21.2112 14.6037 21.2377 14.5883L23.5387 13.1746C23.5582 13.1624 23.5752 13.1465 23.5886 13.1277C23.6019 13.1089 23.6115 13.0876 23.6167 13.0651C23.6218 13.0426 23.6225 13.0192 23.6187 12.9964C23.6149 12.9736 23.6066 12.9518 23.5944 12.9322L22.0856 10.4952C21.9585 10.2987 21.7835 10.1383 21.5774 10.0295C21.3713 9.92066 21.1409 9.86698 20.9083 9.87359C20.6483 9.87918 20.3953 9.95998 20.1795 10.1064C19.9637 10.2528 19.7942 10.4586 19.6911 10.6994C19.6043 10.9017 19.567 11.1222 19.5825 11.3421C19.598 11.562 19.6658 11.7749 19.7801 11.9628Z" fill="#FF3653"/>
<path d="M31.0607 33.7212C30.7135 34.3473 27.489 34.2306 26.1248 34.1386C26.0986 34.0786 26.0856 34.0134 26.087 33.9478V33.131C26.087 33.0941 26.0954 33.0577 26.1116 33.0246C26.1279 32.9915 26.1514 32.9627 26.1805 32.9403C26.2208 32.9076 26.2712 32.8902 26.3229 32.8909C26.3502 32.891 26.3772 32.8955 26.403 32.9044C26.7427 33.0345 27.1064 33.0891 27.469 33.0643C27.8316 33.0395 28.1845 32.9359 28.5037 32.7607C28.5037 32.7607 30.7647 32.8864 31.0607 33.7212Z" fill="#1A252D"/>
<path d="M25.8694 3.5904C25.9557 3.34758 25.9857 3.08806 25.9572 2.83173C25.9286 2.57539 25.8423 2.32905 25.7047 2.11158C25.7047 2.11158 25.9272 1.39124 25.0215 0.919994C24.1158 0.448746 22.9898 0.246782 22.8451 0.453234C22.7005 0.659686 23.13 0.572168 23.13 0.572168C23.13 0.572168 21.3497 0.42855 20.395 1.29924C19.4403 2.16992 19.3513 3.62631 19.5316 3.66221C19.7118 3.69811 20.0345 3.18647 20.0345 3.18647C19.7639 3.64417 19.6741 4.18782 19.783 4.70924C19.8918 5.23067 20.1914 5.69167 20.622 6.0005L22.113 3.43107L25.362 2.4033C25.362 2.4033 25.7448 2.21929 25.8694 3.5904Z" fill="#1A2E35"/>
<path d="M20.8487 6.64014H21.2782C21.2292 6.19133 21.2604 5.84126 21.3739 5.81209C21.5964 5.74028 21.6276 6.01854 21.6276 6.01854C22.1038 5.60788 22.4487 4.60255 22.175 3.96749C22.1215 3.83414 22.12 3.68532 22.1708 3.55089C22.2215 3.41646 22.3208 3.30635 22.4487 3.24266L22.3353 2.48193L20.3925 2.7759C20.1188 3.32794 20.1989 4.49708 20.595 5.89512C20.6639 6.14862 20.7486 6.39746 20.8487 6.64014Z" fill="#1A252D"/>
<path d="M21.4805 6.33936L22.0657 7.36039C22.1508 7.50966 22.2695 7.63675 22.4121 7.73144C22.5547 7.82614 22.7173 7.88582 22.8869 7.90569C22.8974 7.90706 22.9081 7.90568 22.918 7.9017C22.9279 7.89772 22.9365 7.89126 22.9432 7.88295C22.9499 7.87463 22.9544 7.86472 22.9562 7.85417C22.958 7.84362 22.9572 7.83278 22.9537 7.82267L22.493 6.50766L21.4805 6.33936Z" fill="#1A252D"/>
<path d="M24.0887 3.25599H26.1805C26.2251 1.34631 24.6495 -0.000114823 22.8447 -0.000114823C21.9585 -0.00792255 21.1052 0.3381 20.4711 0.962427C19.8369 1.58675 19.4734 2.43869 19.46 3.33228L19.5178 5.16118L22.0169 6.0947C22.0719 6.11494 22.1306 6.12277 22.189 6.11765C22.2473 6.11253 22.3038 6.09457 22.3545 6.06505C22.4052 6.03552 22.4489 5.99515 22.4824 5.94677C22.516 5.89839 22.5386 5.84317 22.5488 5.78502L22.8025 4.33537C22.856 4.03131 23.0145 3.75616 23.2499 3.55862C23.4853 3.36107 23.7825 3.25387 24.0887 3.25599Z" fill="#FF3653"/>
<path d="M19.5176 5.16111V5.23965C19.5171 5.31807 19.5394 5.39491 19.5817 5.46071C19.624 5.5265 19.6845 5.57837 19.7557 5.60991L21.8498 6.5367C21.9607 6.58713 22.0816 6.61126 22.2032 6.60725C22.3248 6.60324 22.4439 6.57119 22.5513 6.51356C22.6588 6.45593 22.7517 6.37425 22.8229 6.27479C22.8942 6.17533 22.9419 6.06073 22.9624 5.93979L23.1983 4.49911C23.2387 4.26572 23.3595 4.0542 23.5395 3.90188C23.7195 3.74956 23.947 3.66622 24.1819 3.66658H26.1647V3.36587C26.1647 3.33221 26.1647 3.29855 26.1647 3.26489H24.0885C23.7838 3.2649 23.4888 3.37306 23.2552 3.57042C23.0216 3.76778 22.8644 4.04174 22.8111 4.34428L22.5574 5.79392C22.5473 5.85208 22.5247 5.90729 22.4911 5.95567C22.4576 6.00406 22.4139 6.04443 22.3632 6.07395C22.3125 6.10348 22.256 6.12143 22.1976 6.12655C22.1393 6.13168 22.0806 6.12384 22.0256 6.1036L19.5176 5.16111Z" fill="#1A252D"/>
<path d="M1.34809 21.0781H0.849609V21.8905H1.34809V21.0781Z" fill="#1A252D"/>
</g>
<defs>
<clipPath id="clip0_568_8927">
<rect width="41" height="40" fill="white" transform="translate(0.5)"/>
</clipPath>
</defs>
</svg>
