<svg width="48" height="48" viewBox="0 0 48 48" fill="none" xmlns="http://www.w3.org/2000/svg">
<path fill-rule="evenodd" clip-rule="evenodd" d="M22.875 18.9526V26.9281C22.875 27.2265 22.9935 27.5127 23.2045 27.7236C23.4155 27.9346 23.7016 28.0531 24 28.0531C24.2984 28.0531 24.5845 27.9346 24.7955 27.7236C25.0065 27.5127 25.125 27.2265 25.125 26.9281V18.9526C25.125 18.6543 25.0065 18.3681 24.7955 18.1571C24.5845 17.9462 24.2984 17.8276 24 17.8276C23.7016 17.8276 23.4155 17.9462 23.2045 18.1571C22.9935 18.3681 22.875 18.6543 22.875 18.9526Z" fill="url(#paint0_linear_568_8320)"/>
<path fill-rule="evenodd" clip-rule="evenodd" d="M24.6602 27.84L35.4167 20.0535C35.6583 19.8785 35.8206 19.6146 35.8677 19.3199C35.9148 19.0252 35.843 18.7239 35.6679 18.4823C35.4929 18.2406 35.229 18.0783 34.9343 18.0312C34.6397 17.9841 34.3383 18.056 34.0967 18.231L23.3402 26.0175C23.0985 26.1925 22.9362 26.4564 22.8891 26.7511C22.842 27.0458 22.9139 27.3471 23.0889 27.5888C23.264 27.8304 23.5278 27.9927 23.8225 28.0398C24.1172 28.0869 24.4185 28.015 24.6602 27.84Z" fill="url(#paint1_linear_568_8320)"/>
<path fill-rule="evenodd" clip-rule="evenodd" d="M24.6598 26.0175L13.9033 18.231C13.6616 18.056 13.3603 17.9841 13.0657 18.0312C12.771 18.0783 12.5071 18.2406 12.3321 18.4823C12.157 18.7239 12.0852 19.0252 12.1323 19.3199C12.1794 19.6146 12.3416 19.8785 12.5833 20.0535L23.3398 27.84C23.5821 27.998 23.8758 28.0568 24.1603 28.0042C24.4447 27.9515 24.6979 27.7915 24.8676 27.5573C25.0373 27.323 25.1103 27.0325 25.0717 26.7458C25.033 26.4592 24.8855 26.1984 24.6598 26.0175Z" fill="url(#paint2_linear_568_8320)"/>
<path fill-rule="evenodd" clip-rule="evenodd" d="M33.8788 29.9282C33.8788 28.8342 33.4442 27.785 32.6707 27.0114C31.8971 26.2378 30.8479 25.8032 29.7538 25.8032H18.2773C17.1833 25.8032 16.1341 26.2378 15.3605 27.0114C14.5869 27.785 14.1523 28.8342 14.1523 29.9282V41.9987C14.1523 43.0927 14.5869 44.142 15.3605 44.9155C16.1341 45.6891 17.1833 46.1237 18.2773 46.1237H29.7538C30.8479 46.1237 31.8971 45.6891 32.6707 44.9155C33.4442 44.142 33.8788 43.0927 33.8788 41.9987V29.9282Z" fill="url(#paint3_linear_568_8320)"/>
<path fill-rule="evenodd" clip-rule="evenodd" d="M20.5107 25.8032V32.7752C20.5104 32.9705 20.561 33.1624 20.6575 33.3322C20.754 33.5019 20.893 33.6436 21.061 33.7432C21.2289 33.8429 21.4199 33.897 21.6151 33.9003C21.8103 33.9037 22.003 33.8561 22.1742 33.7622L24.0162 32.7572L25.8567 33.7622C26.028 33.8556 26.2206 33.9028 26.4157 33.8993C26.6107 33.8957 26.8015 33.8415 26.9693 33.742C27.1371 33.6424 27.2761 33.501 27.3727 33.3315C27.4693 33.162 27.5201 32.9703 27.5202 32.7752V25.8032H20.5107Z" fill="url(#paint4_linear_568_8320)"/>
<path fill-rule="evenodd" clip-rule="evenodd" d="M33.8788 39.4844H14.1523V41.9984C14.1523 43.0924 14.5869 44.1416 15.3605 44.9152C16.1341 45.6888 17.1833 46.1234 18.2773 46.1234H29.7538C30.8479 46.1234 31.8971 45.6888 32.6707 44.9152C33.4442 44.1416 33.8788 43.0924 33.8788 41.9984V39.4844Z" fill="url(#paint5_linear_568_8320)"/>
<path fill-rule="evenodd" clip-rule="evenodd" d="M41.0013 17.217L40.9998 17.205C40.1238 8.59804 32.8458 1.87354 24.0093 1.87354C15.1743 1.87354 7.89629 8.59654 7.00679 17.202L7.00529 17.2155C6.97165 17.579 7.01432 17.9456 7.13058 18.2916C7.24684 18.6376 7.43412 18.9556 7.68041 19.225C7.9267 19.4945 8.22657 19.7095 8.5608 19.8563C8.89503 20.0031 9.25624 20.0785 9.62129 20.0775C15.0423 20.0775 32.9793 20.0775 38.4003 20.067C38.7633 20.0669 39.1223 19.9911 39.4544 19.8444C39.7865 19.6978 40.0844 19.4836 40.3291 19.2155C40.5738 18.9473 40.76 18.6311 40.8757 18.2871C40.9915 17.943 41.0342 17.5786 41.0013 17.217Z" fill="#2B6BBC"/>
<path fill-rule="evenodd" clip-rule="evenodd" d="M24.0133 1.87354C22.8148 1.87354 21.6043 2.63104 20.6083 4.16704C18.8458 6.88654 17.5783 13.746 17.5303 20.0775H19.7803C19.8178 15.0705 20.6218 9.27603 21.8728 6.54603C22.2508 5.72253 22.6603 5.05954 23.1133 4.61104C23.4043 4.32304 23.6923 4.12354 24.0163 4.12354C24.3388 4.12354 24.6268 4.32304 24.9178 4.61104C25.3708 5.05954 25.7818 5.72253 26.1583 6.54603C27.4108 9.27453 28.2133 15.069 28.2508 20.0745H30.5008C30.4528 13.743 29.1853 6.88654 27.4228 4.16704C26.4298 2.63404 25.2223 1.87804 24.0268 1.87354H24.0133Z" fill="url(#paint6_linear_568_8320)"/>
<defs>
<linearGradient id="paint0_linear_568_8320" x1="24.0015" y1="21.7486" x2="24.0015" y2="15.485" gradientUnits="userSpaceOnUse">
<stop stop-color="#DADFFB"/>
<stop offset="1" stop-color="#4561FF"/>
</linearGradient>
<linearGradient id="paint1_linear_568_8320" x1="24.0017" y1="21.7485" x2="24.0017" y2="15.4849" gradientUnits="userSpaceOnUse">
<stop stop-color="#DADFFB"/>
<stop offset="1" stop-color="#4561FF"/>
</linearGradient>
<linearGradient id="paint2_linear_568_8320" x1="24.0013" y1="21.7485" x2="24.0013" y2="15.4849" gradientUnits="userSpaceOnUse">
<stop stop-color="#DADFFB"/>
<stop offset="1" stop-color="#4561FF"/>
</linearGradient>
<linearGradient id="paint3_linear_568_8320" x1="25.4998" y1="36.9647" x2="25.4998" y2="49.7854" gradientUnits="userSpaceOnUse">
<stop stop-color="#FF9E4F"/>
<stop offset="1" stop-color="#D86100"/>
</linearGradient>
<linearGradient id="paint4_linear_568_8320" x1="24.0162" y1="31.1177" x2="24.0162" y2="38.2506" gradientUnits="userSpaceOnUse">
<stop stop-color="#1B97F3"/>
<stop offset="1" stop-color="#005FA5"/>
</linearGradient>
<linearGradient id="paint5_linear_568_8320" x1="23.9743" y1="41.0354" x2="23.9743" y2="54.104" gradientUnits="userSpaceOnUse">
<stop stop-color="#FEC55C"/>
<stop offset="1" stop-color="#E29200"/>
</linearGradient>
<linearGradient id="paint6_linear_568_8320" x1="23.9743" y1="15.9915" x2="23.9743" y2="28.0551" gradientUnits="userSpaceOnUse">
<stop stop-color="#DADFFB"/>
<stop offset="1" stop-color="#4561FF"/>
</linearGradient>
</defs>
</svg>
