<svg width="40" height="40" viewBox="0 0 40 40" fill="none" xmlns="http://www.w3.org/2000/svg">
<g clip-path="url(#clip0_568_8880)">
<path d="M5.67422 27.262L8.12469 31.5991V32.2214H13.1313V35.7306L11.2873 38.7235C11.0881 39.047 10.8051 39.3107 10.4683 39.4866C10.1316 39.6626 9.75358 39.7444 9.37422 39.7232C8.99486 39.7021 8.62824 39.5789 8.3131 39.3667C7.99796 39.1545 7.746 38.861 7.58383 38.5174L2.67969 28.1251L5.67422 27.262Z" fill="#F1B0A2"/>
<path d="M35.109 39.4532V28.2586C35.109 27.2073 34.7875 26.181 34.1878 25.3175C33.5881 24.4539 32.7387 23.7943 31.7535 23.4272L26.4652 21.4561C25.9726 21.2725 25.5479 20.9427 25.2481 20.5109C24.9482 20.0791 24.7875 19.566 24.7875 19.0403V17.2454H18.4465V19.0403C18.4465 19.566 18.2858 20.0791 17.9859 20.5109C17.6861 20.9427 17.2614 21.2725 16.7688 21.4561L11.4805 23.4272C10.4953 23.7943 9.64589 24.4539 9.04615 25.3175C8.44641 26.1811 8.125 27.2073 8.125 28.2587V32.2214H13.1336V40H34.5621C34.7072 40 34.8463 39.9424 34.9488 39.8399C35.0514 39.7373 35.109 39.5982 35.109 39.4532Z" fill="#FDC857"/>
<path d="M35.109 39.4532V28.2586C35.109 27.2073 34.7875 26.181 34.1878 25.3175C33.5881 24.4539 32.7387 23.7943 31.7535 23.4272L26.4652 21.4561C25.9726 21.2725 25.5479 20.9427 25.2481 20.5109C24.9482 20.0791 24.7875 19.566 24.7875 19.0403V17.2454H18.4465V19.0403C18.4465 19.566 18.2858 20.0791 17.9859 20.5109C17.6861 20.9427 17.2614 21.2725 16.7688 21.4561L11.4805 23.4272C10.4953 23.7943 9.64589 24.4539 9.04615 25.3175C8.44641 26.1811 8.125 27.2073 8.125 28.2587V32.2214H13.1336V39.4532C13.1336 39.5982 13.1912 39.7373 13.2938 39.8399C13.3963 39.9424 13.5354 40 13.6805 40H34.5621C34.7072 40 34.8463 39.9424 34.9488 39.8399C35.0514 39.7373 35.109 39.5982 35.109 39.4532Z" fill="#FFBC5B"/>
<path d="M18.4465 17.4204V19.0403C18.4464 19.6421 18.2356 20.2249 17.8506 20.6874L20.2547 19.1021L19.0254 17.2454H18.7118L18.4465 17.4204Z" fill="#E88F37"/>
<path d="M26.465 21.4561C25.9724 21.2725 25.5477 20.9427 25.2478 20.5109C24.9479 20.0791 24.7872 19.566 24.7872 19.0403V17.2454H18.4462V19.0403C18.4462 19.566 18.2855 20.0791 17.9857 20.5109C17.6858 20.9427 17.2611 21.2725 16.7686 21.4561L21.6167 23.0967L26.465 21.4561ZM34.5618 40H30.4154V33.3151H35.1087V39.4532C35.1087 39.5982 35.0511 39.7373 34.9485 39.8399C34.846 39.9424 34.7069 40 34.5618 40Z" fill="#F1B0A2"/>
<path d="M12.8574 39.4531V30.9734C12.8566 30.9097 12.8776 30.8477 12.917 30.7977C12.9564 30.7476 13.0118 30.7127 13.0739 30.6986C13.1137 30.6901 13.155 30.6907 13.1946 30.7002C13.2342 30.7097 13.2712 30.728 13.3029 30.7536C13.3345 30.7793 13.3601 30.8117 13.3776 30.8485C13.3952 30.8852 13.4043 30.9255 13.4043 30.9662V40C13.2593 40 13.1202 39.9424 13.0176 39.8398C12.9151 39.7372 12.8574 39.5981 12.8574 39.4531Z" fill="#E88F37"/>
<path d="M21.3428 40V23.4218C21.3428 23.3493 21.3716 23.2797 21.4229 23.2284C21.4741 23.1771 21.5437 23.1483 21.6162 23.1483C21.6887 23.1483 21.7583 23.1771 21.8096 23.2284C21.8608 23.2797 21.8896 23.3493 21.8896 23.4218V40H21.3428ZM27.6938 40V22.4829C27.6938 22.365 27.7205 22.2486 27.7719 22.1424C27.8233 22.0363 27.8981 21.9431 27.9906 21.87C28.0831 21.7969 28.191 21.7456 28.3062 21.7201C28.4213 21.6946 28.5408 21.6955 28.6555 21.7228L31.7008 22.4457C31.8719 22.4863 32.0243 22.5834 32.1333 22.7214C32.2423 22.8593 32.3016 23.03 32.3016 23.2058V40H27.6938Z" fill="#FF7B4F"/>
<path d="M21.6166 22.852V23.5097C20.6115 23.2155 19.6235 22.8653 18.6575 22.4607C17.9872 22.1801 17.3282 21.8735 16.6817 21.5417C16.5894 21.4944 16.5125 21.4219 16.4598 21.3326C16.4071 21.2433 16.3809 21.1409 16.3841 21.0372C16.3892 20.8638 16.3992 20.6458 16.3992 20.4164C16.3992 20.3401 16.4178 20.2649 16.4535 20.1974C16.4892 20.1299 16.5408 20.0722 16.6038 20.0292C16.6669 19.9862 16.7396 19.9592 16.8154 19.9507C16.8913 19.9422 16.9681 19.9523 17.0391 19.9802C17.9364 20.3326 19.5764 20.982 20.6303 21.3997C20.9213 21.5151 21.171 21.7152 21.3469 21.9742C21.5227 22.2332 21.6167 22.539 21.6166 22.8521V22.852Z" fill="#FF7B4F"/>
<path d="M1.03613 28.6333C0.924146 28.3744 0.90693 28.0844 0.987509 27.8141C1.06809 27.5438 1.24131 27.3106 1.47676 27.1553L35.5867 4.66328C35.9139 4.4475 36.3148 4.47812 36.482 4.73179L37.1971 5.81648C37.3643 6.07007 37.2346 6.4507 36.9075 6.66648L2.79754 29.1585C2.65128 29.255 2.48568 29.3182 2.31237 29.3438C2.13906 29.3694 1.96225 29.3567 1.79436 29.3066C1.62648 29.2566 1.47159 29.1703 1.3406 29.054C1.20961 28.9377 1.10568 28.7941 1.03613 28.6333Z" fill="#DC8768"/>
<path d="M31.8076 8.24669L33.3592 9.97231L36.5396 17.0383C36.5645 17.0935 36.601 17.1426 36.6467 17.1823C36.6923 17.222 36.7461 17.2513 36.8042 17.2681C36.8623 17.285 36.9234 17.289 36.9832 17.28C37.043 17.2709 37.1002 17.249 37.1507 17.2157C37.2177 17.1715 37.2705 17.109 37.3029 17.0356C37.3353 16.9621 37.3459 16.881 37.3334 16.8017L35.9824 8.24255L34.8635 6.23169L31.8076 8.24669Z" fill="#DC8768"/>
<path d="M32.1639 8.78702L31.1892 6.68108L25.948 0.973819C25.907 0.929262 25.8763 0.876351 25.8578 0.818743C25.8394 0.761136 25.8336 0.700206 25.841 0.640165C25.8484 0.580124 25.8688 0.522404 25.9006 0.470995C25.9325 0.419586 25.9752 0.375715 26.0257 0.342412C26.0927 0.298258 26.1709 0.27432 26.2512 0.273461C26.3314 0.272603 26.4101 0.294858 26.478 0.337569L33.8124 4.95132L35.2198 6.77202L32.1639 8.78702Z" fill="#DC8768"/>
<path d="M36.0272 7.0305L34.9167 5.34629C34.6165 4.8909 34.0039 4.76513 33.5485 5.06539L31.2547 6.57775C30.7993 6.878 30.6735 7.49058 30.9738 7.94597L32.0842 9.63018C32.3845 10.0856 32.9971 10.2113 33.4525 9.91109L35.7462 8.39872C36.2016 8.09847 36.3274 7.4859 36.0272 7.0305Z" fill="#AB5249"/>
<path d="M19.7071 18.0084L2.79754 29.1587C2.65128 29.2551 2.48568 29.3184 2.31237 29.3439C2.13906 29.3695 1.96225 29.3568 1.79436 29.3068C1.62648 29.2567 1.47159 29.1705 1.3406 29.0542C1.20961 28.9378 1.10568 28.7942 1.03613 28.6334C0.924146 28.3746 0.90693 28.0846 0.987509 27.8143C1.06809 27.544 1.24131 27.3107 1.47676 27.1555L18.3825 16.0078L19.7071 18.0084Z" fill="#DC8768"/>
<path d="M21.6162 22.8514V23.5097C23.3554 23.0972 25.0258 22.4356 26.5757 21.5454C26.6612 21.4964 26.7319 21.4251 26.78 21.3391C26.8282 21.2531 26.8522 21.1557 26.8494 21.0572C26.8444 20.8806 26.8336 20.6546 26.8336 20.4164C26.8337 20.3401 26.815 20.2649 26.7793 20.1974C26.7437 20.1299 26.6921 20.0722 26.629 20.0292C26.5659 19.9862 26.4933 19.9592 26.4174 19.9507C26.3416 19.9422 26.2648 19.9523 26.1937 19.9802C25.2964 20.3326 23.6564 20.982 22.6023 21.3997C22.3114 21.515 22.0618 21.7151 21.886 21.9739C21.7102 22.2328 21.6162 22.5385 21.6162 22.8514Z" fill="#FF7B4F"/>
<path d="M5.21304 26.6097C5.62293 26.3386 5.93741 25.9457 6.11215 25.4864C6.28689 25.0271 6.31308 24.5245 6.18703 24.0496L1.4771 27.1553C1.2535 27.3029 1.08575 27.5211 1.00062 27.7751C0.915493 28.0292 0.917885 28.3044 1.00742 28.5569C1.164 28.5895 1.3235 28.606 1.48343 28.6063C1.94182 28.6065 2.39021 28.4718 2.77257 28.219L5.21304 26.6097Z" fill="#AB5249"/>
<path d="M0.438829 26.9504L0.35086 26.8171C0.282422 26.7133 0.258016 26.5866 0.283011 26.4648C0.308006 26.343 0.380355 26.2362 0.484141 26.1677L4.22906 23.6983C4.33285 23.6298 4.45957 23.6054 4.58135 23.6304C4.70314 23.6554 4.81 23.7278 4.87844 23.8316L4.96633 23.9649C5.14882 24.2417 5.21389 24.5796 5.14722 24.9044C5.08056 25.2291 4.88763 25.5141 4.61086 25.6966L2.17039 27.3059C1.89362 27.4883 1.5557 27.5534 1.23095 27.4867C0.906208 27.4201 0.621245 27.2271 0.438751 26.9504H0.438829Z" fill="#F1B0A2"/>
<path d="M29.2171 10.3519C29.0049 9.98918 28.7987 9.62912 28.5983 9.27173L24.8936 11.7147C25.2076 12.2706 25.5365 12.8323 25.8803 13.3999C25.9586 13.5289 26.0371 13.6556 26.1157 13.7829L29.811 11.3462C29.6103 11.0164 29.4123 10.6849 29.2171 10.3519Z" fill="#AB5249"/>
<path d="M31.5751 17.1448L29.3236 18.4447C29.1326 18.5547 28.9076 18.5901 28.6921 18.5438C28.4766 18.4976 28.2858 18.3732 28.1567 18.1946C27.1578 16.8178 26.2156 15.4007 25.3327 13.9468C23.8335 11.4775 22.5078 8.90699 21.3652 6.25381L25.1548 4.06592C26.202 6.40541 27.3753 8.68636 28.6695 10.8987C29.6632 12.5971 30.7271 14.2534 31.8586 15.8632C31.9296 15.9642 31.9788 16.0789 32.003 16.2C32.0272 16.3211 32.0259 16.4459 31.9993 16.5665C31.9726 16.687 31.9211 16.8007 31.8481 16.9003C31.775 16.9999 31.6821 17.0832 31.5751 17.1448Z" fill="#FF7B4F"/>
<path d="M16.1558 14.4605H17.164L16.6171 11.3345H15.8442C15.7378 11.3345 15.6326 11.3579 15.5363 11.4031C15.4399 11.4484 15.3547 11.5142 15.2866 11.5961C15.2186 11.678 15.1694 11.7738 15.1426 11.8768C15.1157 11.9798 15.1119 12.0875 15.1313 12.1921L15.4429 13.8679C15.4739 14.0344 15.5621 14.1848 15.6923 14.293C15.8225 14.4012 15.9865 14.4605 16.1558 14.4605ZM27.1281 14.4605H26.1199L26.6668 11.3345H27.4397C27.5462 11.3345 27.6513 11.3579 27.7477 11.4031C27.8441 11.4483 27.9293 11.5142 27.9974 11.5961C28.0654 11.6779 28.1146 11.7738 28.1415 11.8768C28.1683 11.9798 28.1721 12.0875 28.1527 12.1921L27.841 13.8679C27.8101 14.0344 27.7219 14.1848 27.5916 14.293C27.4614 14.4012 27.2975 14.4605 27.1281 14.4605ZM22.1077 21.2657H22.27C23.0161 21.2657 23.7399 21.0111 24.3217 20.544C24.5454 20.3643 24.7589 20.1723 24.9613 19.9689C24.8465 19.6728 24.7875 19.358 24.7873 19.0403V17.2454H18.4463V18.7781C18.8881 19.4466 19.4311 20.0424 20.056 20.544C20.6377 21.0111 21.3615 21.2657 22.1076 21.2657H22.1077Z" fill="#DD9287"/>
<path d="M23.7749 19.5588C23.1931 20.026 22.4693 20.2806 21.7232 20.2806H21.5609C20.8148 20.2806 20.091 20.0259 19.5092 19.5588C18.6066 18.834 17.8781 17.9159 17.3776 16.8721C16.8771 15.8284 16.6172 14.6855 16.6172 13.5279V9.31316C16.6172 8.72428 16.8511 8.15951 17.2675 7.74311C17.6839 7.32671 18.2487 7.09277 18.8376 7.09277H24.4465C24.7381 7.09276 25.0268 7.15019 25.2962 7.26177C25.5656 7.37335 25.8104 7.5369 26.0166 7.74308C26.2228 7.94927 26.3863 8.19404 26.4979 8.46344C26.6095 8.73283 26.667 9.02157 26.667 9.31316V13.5279C26.6669 14.6855 26.4071 15.8284 25.9065 16.8721C25.406 17.9159 24.6776 18.834 23.7749 19.5588Z" fill="#F1B0A2"/>
<path d="M26.4496 8.35824L26.4512 8.35777C26.4435 8.34152 26.4345 8.32606 26.4263 8.31012C26.4158 8.28905 26.405 8.26816 26.3937 8.24746C26.3774 8.21801 26.3604 8.18894 26.3427 8.16027C26.3316 8.14191 26.3209 8.1234 26.3091 8.10543C26.2876 8.0726 26.2651 8.04035 26.2418 8.00871C26.2326 7.99605 26.2241 7.98301 26.2146 7.97059C26.181 7.92632 26.1457 7.88335 26.1089 7.84168C26.1067 7.8391 26.1042 7.83684 26.1021 7.83434C26.0674 7.79553 26.0314 7.75801 25.9941 7.72176C25.9834 7.71152 25.9723 7.70191 25.9616 7.69184C25.9317 7.66395 25.9014 7.63652 25.8701 7.61027C25.8568 7.59926 25.8432 7.58871 25.8298 7.57793C25.7995 7.55371 25.7687 7.5302 25.7371 7.50762C25.7237 7.49801 25.7102 7.48871 25.6966 7.47949C25.6622 7.45605 25.6272 7.43353 25.5915 7.41191C25.5782 7.40387 25.5649 7.3959 25.5516 7.38816C25.5157 7.36746 25.479 7.34801 25.4417 7.32934C25.4289 7.32285 25.4162 7.31613 25.4033 7.30996C25.36 7.28918 25.3159 7.27012 25.2711 7.25215C25.2637 7.24918 25.2565 7.24582 25.2491 7.24293C24.9932 7.14354 24.721 7.09262 24.4465 7.09277H18.8376C18.2487 7.09277 17.6839 7.32671 17.2675 7.74311C16.8511 8.15952 16.6172 8.72428 16.6172 9.31316V10.8554C16.8018 11.0257 17.0288 11.1434 17.2745 11.1962C17.5201 11.2489 17.7755 11.2347 18.0137 11.155L23.4997 9.33629C23.6127 9.29882 23.7336 9.29188 23.8502 9.31618C23.9667 9.34048 24.0748 9.39514 24.1634 9.47465L25.6201 10.7814C25.7603 10.9089 25.9378 10.9878 26.1264 11.0064C26.315 11.0251 26.5045 10.9825 26.667 10.8849V9.31316C26.6669 8.9826 26.5926 8.65626 26.4496 8.35824Z" fill="#DD9287"/>
<path d="M23.3104 11.7739C23.247 11.7739 23.1856 11.752 23.1366 11.7118C23.0876 11.6716 23.0541 11.6156 23.0419 11.5534C23.0296 11.4912 23.0393 11.4267 23.0693 11.3709C23.0994 11.3151 23.1479 11.2714 23.2065 11.2474C23.8115 10.9986 24.4902 10.9986 25.0952 11.2474C25.1614 11.2755 25.2139 11.3286 25.2413 11.3951C25.2686 11.4617 25.2687 11.5363 25.2414 11.6029C25.2141 11.6694 25.1616 11.7226 25.0954 11.7507C25.0292 11.7789 24.9546 11.7798 24.8877 11.7533C24.6385 11.6514 24.3709 11.602 24.1017 11.6083C23.8656 11.6142 23.6326 11.6634 23.4142 11.7533C23.3813 11.7669 23.346 11.7739 23.3104 11.7739ZM24.1509 13.0481C24.0784 13.0481 24.0088 13.0193 23.9575 12.968C23.9063 12.9167 23.8774 12.8472 23.8774 12.7747V12.2397C23.8774 12.1672 23.9063 12.0977 23.9575 12.0464C24.0088 11.9951 24.0784 11.9663 24.1509 11.9663C24.2234 11.9663 24.293 11.9951 24.3442 12.0464C24.3955 12.0977 24.4243 12.1672 24.4243 12.2397V12.7747C24.4243 12.8472 24.3955 12.9167 24.3442 12.968C24.293 13.0193 24.2234 13.0481 24.1509 13.0481ZM18.2923 11.7739C18.2289 11.7739 18.1675 11.752 18.1185 11.7118C18.0695 11.6716 18.036 11.6156 18.0237 11.5534C18.0115 11.4912 18.0212 11.4267 18.0512 11.3709C18.0812 11.3151 18.1297 11.2714 18.1884 11.2474C18.4684 11.1321 18.7671 11.0692 19.0698 11.0616C19.4147 11.0536 19.7576 11.1169 20.0771 11.2474C20.1433 11.2755 20.1958 11.3286 20.2231 11.3951C20.2505 11.4617 20.2506 11.5363 20.2232 11.6029C20.1959 11.6694 20.1435 11.7226 20.0773 11.7507C20.0111 11.7789 19.9364 11.7798 19.8696 11.7533C19.3976 11.5592 18.8681 11.5592 18.3961 11.7533C18.3632 11.7669 18.3279 11.7739 18.2923 11.7739ZM19.1328 13.0481C19.0602 13.0481 18.9907 13.0193 18.9394 12.968C18.8881 12.9167 18.8593 12.8472 18.8593 12.7747V12.2397C18.8593 12.1672 18.8881 12.0977 18.9394 12.0464C18.9907 11.9951 19.0602 11.9663 19.1328 11.9663C19.2053 11.9663 19.2748 11.9951 19.3261 12.0464C19.3774 12.0977 19.4062 12.1672 19.4062 12.2397V12.7747C19.4062 12.8472 19.3774 12.9167 19.3261 12.968C19.2748 13.0193 19.2053 13.0481 19.1328 13.0481ZM19.4088 15.4249C19.4087 15.3582 19.4324 15.2937 19.4756 15.243C19.5188 15.1922 19.5787 15.1586 19.6445 15.1481C20.9756 14.9364 22.3319 14.9364 23.6631 15.1481C23.7289 15.1586 23.7887 15.1923 23.8319 15.243C23.8751 15.2938 23.8987 15.3583 23.8985 15.4249V16.2615C23.8985 16.3018 23.8897 16.3415 23.873 16.3781C23.8562 16.4146 23.8317 16.4471 23.8013 16.4734C23.7708 16.4997 23.7351 16.5191 23.6965 16.5303C23.6578 16.5416 23.6172 16.5444 23.5774 16.5386C22.3012 16.3572 21.0058 16.3572 19.7296 16.5386C19.6899 16.5444 19.6493 16.5415 19.6107 16.5303C19.5721 16.519 19.5364 16.4996 19.506 16.4734C19.4756 16.4471 19.4511 16.4146 19.4344 16.3781C19.4176 16.3415 19.4089 16.3018 19.4088 16.2616V15.4249ZM21.6428 17.9739C21.6215 17.9739 21.6002 17.9736 21.5789 17.9731C21.2762 17.9655 20.9774 17.9025 20.6974 17.7872C20.6313 17.759 20.579 17.7059 20.5518 17.6394C20.5245 17.5729 20.5245 17.4984 20.5518 17.4319C20.5791 17.3654 20.6315 17.3124 20.6976 17.2842C20.7637 17.256 20.8382 17.255 20.9051 17.2814C21.1235 17.3714 21.3566 17.4205 21.5928 17.4264C21.8619 17.4326 22.1295 17.3832 22.3787 17.2813C22.4458 17.2538 22.5211 17.254 22.588 17.282C22.6549 17.31 22.7079 17.3635 22.7355 17.4306C22.763 17.4977 22.7627 17.5729 22.7347 17.6398C22.7067 17.7068 22.6533 17.7598 22.5862 17.7873C22.2869 17.9106 21.9664 17.974 21.6428 17.9739Z" fill="#343C4A"/>
<path d="M22.4708 14.2595V14.6907C22.4708 14.9106 22.3834 15.1215 22.2279 15.277C22.0724 15.4325 21.8615 15.5198 21.6416 15.5198C21.4217 15.5198 21.2108 15.4325 21.0553 15.277C20.8999 15.1215 20.8125 14.9106 20.8125 14.6907V14.2595C20.8125 14.1974 20.8372 14.1377 20.8811 14.0938C20.9251 14.0498 20.9847 14.0251 21.0469 14.0251H22.2364C22.2986 14.0251 22.3582 14.0498 22.4021 14.0938C22.4461 14.1377 22.4708 14.1974 22.4708 14.2595Z" fill="#EB9C8D"/>
<path d="M25.62 9.68753L23.6318 7.90401L24.151 6.09253H27.1043V9.02503C27.1043 9.19695 27.0545 9.36519 26.9609 9.50941C26.8673 9.65364 26.734 9.76767 26.577 9.83775C26.42 9.90782 26.2461 9.93092 26.0763 9.90426C25.9064 9.8776 25.7479 9.80233 25.62 9.68753Z" fill="#F24F2A"/>
<path d="M27.1229 7.04133L18.0137 10.0613C17.802 10.1315 17.5766 10.1504 17.3561 10.1165C17.1356 10.0826 16.9263 9.9968 16.7454 9.86621C16.5646 9.73562 16.4173 9.56396 16.3157 9.36535C16.2141 9.16673 16.1611 8.94684 16.1611 8.72375V5.52274C16.1611 5.06088 16.2657 4.60501 16.4669 4.1893C16.6682 3.77359 16.9609 3.40882 17.3232 3.12233C17.6854 2.83584 18.1078 2.63506 18.5587 2.53503C19.0096 2.43501 19.4773 2.43834 19.9268 2.54477L26.1416 4.01649C26.421 4.08266 26.6698 4.24117 26.8479 4.46636C27.026 4.69155 27.1229 4.97025 27.1229 5.25735V7.04133Z" fill="#FF7B4F"/>
<path d="M23.6332 3.42236C22.3062 4.35101 20.8681 5.10953 19.3523 5.68018C18.3162 6.06969 17.2486 6.36938 16.1611 6.57596V8.32025C17.703 8.09988 19.211 7.68596 20.6493 7.0883C22.5062 6.31502 24.2252 5.24538 25.7392 3.92111L23.6332 3.42236Z" fill="#F24F2A"/>
<path d="M27.1039 8.96663C26.4899 8.60108 25.9748 8.09062 25.6037 7.47991C25.566 7.41796 25.5053 7.37352 25.4348 7.35638C25.3643 7.33924 25.2899 7.35079 25.228 7.38851C25.166 7.42622 25.1216 7.48699 25.1044 7.55747C25.0873 7.62794 25.0988 7.70233 25.1366 7.76429C25.5775 8.48943 26.1982 9.08844 26.9385 9.50335C26.9455 9.50725 26.9528 9.51038 26.9601 9.51366C27.0552 9.36853 27.1052 9.1985 27.1038 9.02499L27.1039 8.96663Z" fill="#FF7B4F"/>
<path d="M8.12504 31.5989V32.2213C8.03855 32.2212 7.95301 32.2032 7.87386 32.1684C7.79471 32.1335 7.72369 32.0825 7.66531 32.0187C7.60693 31.9549 7.56248 31.8796 7.53478 31.7977C7.50708 31.7158 7.49674 31.629 7.50441 31.5428L7.58473 30.6426L8.12504 31.5989Z" fill="#EB9C8D"/>
</g>
<defs>
<clipPath id="clip0_568_8880">
<rect width="40" height="40" fill="white"/>
</clipPath>
</defs>
</svg>
