<svg width="40" height="40" viewBox="0 0 40 40" fill="none" xmlns="http://www.w3.org/2000/svg">
<path d="M25.0267 34.8108H14.9727L16.2159 31.0811H23.7294L25.0267 34.8108Z" fill="#D4E5A0"/>
<path d="M28.7567 37.892H11.2432L11.8918 34.7569H28.108L28.7567 37.892ZM38.7567 27.1353V30.5947C38.7567 31.4596 38.054 32.1623 37.1891 32.1623H2.81073C1.94587 32.1623 1.24316 31.4596 1.24316 30.5947V27.1353H38.7567Z" fill="#E26B26"/>
<path d="M38.7567 3.67572V27.1352H1.24316V3.67572C1.24316 2.81086 1.94587 2.10815 2.81073 2.10815H37.1891C38.054 2.10815 38.7567 2.81086 38.7567 3.67572Z" fill="#D4E5A0"/>
<path d="M3.72949 4.59448H7.45922V8.32421H3.72949V4.59448ZM33.7835 20.2161H36.27V24.5945H33.7835V20.2161ZM33.7835 13.9458H36.27V18.3242H33.7835V13.9458Z" fill="#F59339"/>
<path d="M25.7834 22.7569H14.2158C13.5672 22.7569 13.0807 22.2704 12.9726 21.6758L11.351 14.8109C11.2429 14.1082 11.7294 13.5136 12.4321 13.4055H27.351C28.0537 13.4055 28.5942 13.9461 28.5942 14.6488V14.8109L27.0267 21.6217C26.9185 22.2704 26.4321 22.7569 25.7834 22.7569Z" fill="#E26B26"/>
<path d="M15.6221 15.8379L16.2707 20.2163M23.7302 20.2163L24.3788 15.8379" stroke="#D4E5A0" stroke-miterlimit="10" stroke-linecap="round" stroke-linejoin="round"/>
<path d="M27.3514 12.865H27.2433L23.6217 8.10822C23.4055 7.83795 23.0271 7.7839 22.7568 8.00011C22.4866 8.21633 22.4325 8.59471 22.6487 8.86498L25.6758 12.865H14.3244L17.4055 8.86498C17.6217 8.59471 17.5676 8.21633 17.2974 8.00011C17.0271 7.7839 16.6487 7.83795 16.4325 8.10822L12.8109 12.865H12.6487C11.6217 12.865 10.7568 13.7298 10.7568 14.7569V15.0812L12.3785 21.9461C12.5406 22.865 13.2974 23.5136 14.2163 23.5677H25.7839C26.7028 23.5677 27.5136 22.865 27.6217 21.9461L29.1893 15.0271V14.9731C29.3514 13.9461 28.5947 13.0271 27.5676 12.865H27.3514ZM27.946 14.8109L26.4325 21.6217V21.6758C26.3785 22.0001 26.1082 22.2163 25.8379 22.2163H14.2163C13.892 22.2163 13.6217 22.0001 13.6217 21.6758V21.6217L12.0001 14.7569C11.946 14.4325 12.2163 14.1082 12.5406 14.0542H27.3514C27.6758 14.0542 28.0001 14.3244 28.0001 14.7028C27.946 14.7569 27.946 14.7569 27.946 14.8109Z" fill="#F59339"/>
<path d="M19.9463 15.946V20.2163" stroke="#D4E5A0" stroke-miterlimit="10" stroke-linecap="round" stroke-linejoin="round"/>
</svg>
