<svg width="48" height="48" viewBox="0 0 48 48" fill="none" xmlns="http://www.w3.org/2000/svg">
<path d="M37.3576 15.135V44.25C37.3576 45.495 36.3526 46.5 35.1076 46.5H12.8926C11.6476 46.5 10.6426 45.495 10.6426 44.25V15.135C10.9051 15.18 11.1751 15.21 11.4526 15.21C12.1201 15.21 12.7501 15.0525 13.3051 14.775C14.6851 14.0925 15.6301 12.6675 15.6301 11.025C15.6301 13.335 17.5051 15.21 19.8151 15.21C22.1251 15.21 24.0001 13.335 24.0001 11.025C24.0001 13.335 25.8751 15.21 28.1851 15.21C30.4951 15.21 32.3701 13.335 32.3701 11.025C32.3701 12.6675 33.3151 14.0925 34.6951 14.775C35.2501 15.0525 35.8801 15.21 36.5476 15.21C36.8251 15.21 37.0951 15.18 37.3576 15.135ZM37.3576 3.75V7.2525L34.6951 5.3775H13.3051L10.6426 7.2525V3.75C10.6426 2.505 11.6476 1.5 12.8926 1.5H35.1076C36.3526 1.5 37.3576 2.505 37.3576 3.75Z" fill="#2B6BBC"/>
<path d="M34.6947 14.7749V42.2474H13.3047V14.7749C14.6847 14.0924 15.6297 12.6674 15.6297 11.0249C15.6297 13.3349 17.5047 15.2099 19.8147 15.2099C22.1247 15.2099 23.9997 13.3349 23.9997 11.0249C23.9997 13.3349 25.8747 15.2099 28.1847 15.2099C30.4947 15.2099 32.3697 13.3349 32.3697 11.0249C32.3697 12.6674 33.3147 14.0924 34.6947 14.7749Z" fill="#FAE9E6"/>
<path d="M40.7327 9.62244H32.3702L29.3477 5.37744H34.6952L37.3577 7.25244L40.7327 9.62244Z" fill="#B3B2F8"/>
<path d="M32.37 9.62244H24V5.37744H29.3475L32.37 9.62244Z" fill="#E65DCA"/>
<path d="M23.9999 5.37744V9.62244H15.6299L18.6524 5.37744H23.9999Z" fill="#B3B2F8"/>
<path d="M18.6526 5.37744L15.6301 9.62244H7.26758L10.6426 7.25244L13.3051 5.37744H18.6526Z" fill="#E65DCA"/>
<path d="M15.6301 9.62256V11.0251C15.6301 12.6676 14.6851 14.0926 13.3051 14.7751C12.7501 15.0526 12.1201 15.2101 11.4526 15.2101C11.1751 15.2101 10.9051 15.1801 10.6426 15.1351C8.71508 14.7526 7.26758 13.0576 7.26758 11.0251V9.62256H15.6301Z" fill="#FD80E3"/>
<path d="M23.9999 9.62256V11.0251C23.9999 13.3351 22.1249 15.2101 19.8149 15.2101C17.5049 15.2101 15.6299 13.3351 15.6299 11.0251V9.62256H23.9999Z" fill="#C1C0F8"/>
<path d="M32.37 9.62256V11.0251C32.37 13.3351 30.495 15.2101 28.185 15.2101C25.875 15.2101 24 13.3351 24 11.0251V9.62256H32.37Z" fill="#FD80E3"/>
<path d="M40.7326 9.62256V11.0251C40.7326 13.0576 39.2851 14.7526 37.3576 15.1351C37.0951 15.1801 36.8251 15.2101 36.5476 15.2101C35.8801 15.2101 35.2501 15.0526 34.6951 14.7751C33.3151 14.0926 32.3701 12.6676 32.3701 11.0251V9.62256H40.7326Z" fill="#C1C0F8"/>
<path d="M29.9987 38.1675C29.9926 38.5974 29.6379 38.9492 29.1732 38.9882C28.1337 39.0664 26.2014 39.1948 24 39.1948C21.7986 39.1948 19.8663 39.0664 18.8268 38.9882C18.3621 38.9492 18.0074 38.5974 18.0013 38.1675C17.9769 35.7107 18.3009 30.8866 18.4416 28.9715C18.4722 28.5193 18.8941 28.1787 19.3894 28.1954C19.4566 28.1954 19.7502 28.201 20.1904 28.201C20.753 28.201 21.5541 28.2122 22.4468 28.2122C23.4986 28.2177 24.6788 28.2233 25.7183 28.2233C26.6539 28.2233 27.4794 28.2233 28.0052 28.2177C28.3232 28.2177 28.5311 28.2177 28.5984 28.2122C29.0998 28.1898 29.5278 28.5304 29.5584 28.9883C29.6991 30.9146 30.0231 35.7219 29.9987 38.1675Z" fill="#2B6BBC"/>
<path d="M28 28.1888C27.4617 28.1948 26.6166 28.1948 25.6588 28.1948C25.2645 26.7723 24.5822 25.3861 23.9124 25.3861C23.2426 25.3861 22.6416 26.7663 22.3099 28.1827C21.3959 28.1827 20.5759 28.1767 20 28.1706C20.338 26.3486 21.3146 23.1948 23.9124 23.1948C26.5102 23.1948 27.5869 26.3909 28 28.1888Z" fill="#2B6BBC"/>
</svg>
