<svg width="48" height="48" viewBox="0 0 48 48" fill="none" xmlns="http://www.w3.org/2000/svg">
<path d="M44.9999 28.0352C44.9906 28.8729 44.7595 29.6933 44.33 30.4126C43.9005 31.132 43.288 31.7246 42.5549 32.1302L21.5549 43.9802C20.322 44.6773 18.9252 45.0323 17.509 45.0086C16.0929 44.9848 14.7088 44.5832 13.4999 43.8452L5.2949 38.8502C4.57531 38.4191 3.98345 37.8043 3.58012 37.0688C3.17679 36.3333 2.97652 35.5037 2.9999 34.6652C2.98441 34.4305 2.98441 34.1949 2.9999 33.9602C3.23789 34.1563 3.48843 34.3367 3.7499 34.5002L11.9999 39.4352C12.2116 39.5698 12.4321 39.6901 12.6599 39.7952H12.7499C14.2772 40.5771 15.9691 40.9834 17.6849 40.9802C19.5658 40.9753 21.4142 40.49 23.0549 39.5702L41.6099 29.0702L44.1149 27.6602C44.426 27.4828 44.7265 27.2874 45.0149 27.0752C45.0473 27.3947 45.0422 27.7169 44.9999 28.0352Z" fill="#FF64C8"/>
<path d="M45 21C44.9918 21.84 44.7612 22.6628 44.3318 23.3847C43.9023 24.1067 43.2892 24.7019 42.555 25.11L40.755 26.115L21.54 37.005C20.3088 37.6992 18.9149 38.0527 17.5017 38.0289C16.0885 38.0052 14.7071 37.6052 13.5 36.87L7.18498 33L5.29498 31.845C5.00933 31.6797 4.74273 31.4835 4.49998 31.26C4.00969 30.8064 3.62216 30.2532 3.36343 29.6374C3.1047 29.0216 2.98078 28.3576 2.99998 27.69C3.00768 27.2423 3.07838 26.7979 3.20998 26.37C3.3829 26.5003 3.5632 26.6205 3.74998 26.73L5.99998 28.125L7.79998 29.22L10.8 31.005L11.97 31.71C13.631 32.7181 15.5303 33.2661 17.4731 33.2977C19.4158 33.3294 21.332 32.8435 23.025 31.89L37.14 24L40.14 22.305L42.015 21.255L44.055 20.1C44.321 19.9526 44.5766 19.7872 44.82 19.605C44.9527 20.0577 45.0135 20.5284 45 21Z" fill="#5233FF"/>
<path d="M42.7501 9.14978L34.5001 4.15478C33.2941 3.42392 31.9158 3.02631 30.5058 3.00259C29.0959 2.97887 27.7049 3.32989 26.4751 4.01978L5.47507 15.8698C4.7364 16.2715 4.11787 16.8625 3.68294 17.5821C3.24801 18.3017 3.01233 19.124 3.00007 19.9648C2.98482 20.4731 3.05582 20.9802 3.21007 21.4648C3.49895 22.4481 4.10558 23.3079 4.93507 23.9098C5.04887 24.0032 5.16918 24.0884 5.29507 24.1648L7.81507 25.6648L10.8151 27.4498H10.9051L13.5001 29.1448L13.7851 29.3098C14.9604 29.9601 16.2818 30.3008 17.6251 30.2998C18.9908 30.2978 20.3333 29.9467 21.5251 29.2798L34.1851 22.1548L37.1851 20.4898L40.1851 18.8098L42.6301 17.4448L43.1401 17.1298C43.9698 16.5217 44.5761 15.6571 44.8651 14.6698C45.179 13.6456 45.1414 12.5459 44.7581 11.5456C44.3748 10.5453 43.668 9.70195 42.7501 9.14978ZM30.5701 17.6998C30.2153 18.3907 29.7011 18.9871 29.0701 19.4398C27.9917 20.1892 26.7082 20.5874 25.3951 20.5798C25.2254 20.5947 25.0547 20.5947 24.8851 20.5798C24.5204 20.5615 24.1585 20.5063 23.8051 20.4148H23.6701H23.5651C22.4163 20.1158 21.3759 19.4968 20.5651 18.6298C20.262 18.2975 20.0001 17.9298 19.7851 17.5348C19.5143 17.0306 19.3365 16.4819 19.2601 15.9148C19.2377 15.6402 19.2377 15.3643 19.2601 15.0898C19.2696 14.6447 19.3507 14.2041 19.5001 13.7848C19.7614 13.1021 20.1636 12.4821 20.6805 11.9652C21.1974 11.4484 21.8174 11.0461 22.5001 10.7848C23.938 10.2211 25.5248 10.1629 27.0001 10.6198C27.3742 10.7269 27.7361 10.8727 28.0801 11.0548C28.5316 11.2641 28.9508 11.5368 29.3251 11.8648C29.9278 12.3563 30.4058 12.9834 30.7201 13.6948C31.0294 14.3553 31.1735 15.0812 31.1401 15.8098C31.1292 16.1298 31.0788 16.4472 30.9901 16.7548L30.8701 17.1448C30.7929 17.3412 30.6921 17.5276 30.5701 17.6998ZM34.2151 18.7048L33.8551 18.4948C33.9894 18.5507 34.1197 18.6159 34.2451 18.6898L34.2151 18.7048Z" fill="#5233FF"/>
<path d="M28.0953 15.7199C28.0648 15.9777 27.976 16.225 27.8356 16.4434C27.6953 16.6617 27.5071 16.8452 27.2853 16.9799C26.8746 17.2581 26.4096 17.446 25.9209 17.5314C25.4322 17.6167 24.931 17.5975 24.4503 17.4749C24.0442 17.3782 23.6583 17.2106 23.3103 16.9799C22.9343 16.7473 22.6244 16.4219 22.4103 16.0349C22.3063 15.8522 22.2418 15.6495 22.2211 15.4402C22.2005 15.2309 22.224 15.0196 22.2903 14.8199C22.4141 14.542 22.5919 14.2915 22.8133 14.0829C23.0348 13.8743 23.2955 13.7119 23.5803 13.6049C24.0011 13.4419 24.4491 13.3604 24.9003 13.3649C25.7818 13.3482 26.6413 13.64 27.3303 14.1899C27.5524 14.3754 27.7347 14.604 27.8662 14.8617C27.9977 15.1195 28.0756 15.4012 28.0953 15.6899V15.7199Z" fill="#FF64C8"/>
</svg>
