<svg width="48" height="48" viewBox="0 0 48 48" fill="none" xmlns="http://www.w3.org/2000/svg">
<path d="M42.8416 12.9457L37.2781 6.62C36.3758 5.59143 35.046 5 33.628 5H14.373C12.9618 5 11.632 5.59143 10.7228 6.62L5.15935 12.9457C4.98973 13.1386 4.95581 13.4021 5.06437 13.6271C5.17292 13.8521 5.41717 14 5.68177 14H42.3192C42.5838 14 42.8212 13.8586 42.9366 13.6271C43.0519 13.4021 43.0112 13.1321 42.8416 12.9457Z" fill="#E27F4D"/>
<path d="M42.3234 13H5.68052C5.30731 13 5.00195 13.3068 5.00195 13.6818V39.5909C5.00195 41.4727 6.52195 43 8.39481 43H39.6091C41.482 43 43.002 41.4727 43.002 39.5909V13.6818C43.002 13.3068 42.6966 13 42.3234 13Z" fill="#F29F6D"/>
<path d="M26.327 5H21.677L19.002 13H29.002L26.327 5Z" fill="#C4370C"/>
<path d="M17.752 30H10.252C9.00931 30 8.00195 30.9594 8.00195 32.1429V37.8571C8.00195 39.0406 9.00931 40 10.252 40H17.752C18.9946 40 20.002 39.0406 20.002 37.8571V32.1429C20.002 30.9594 18.9946 30 17.752 30Z" fill="#F3E2CE"/>
<path d="M15.6686 34.2571H11.6686C11.302 34.2571 11.002 33.9486 11.002 33.5714C11.002 33.1943 11.302 32.8857 11.6686 32.8857H15.6686C16.0353 32.8857 16.3353 33.1943 16.3353 33.5714C16.3353 33.9486 16.0353 34.2571 15.6686 34.2571ZM15.6686 37H11.6686C11.302 37 11.002 36.6914 11.002 36.3143C11.002 35.9371 11.302 35.6286 11.6686 35.6286H15.6686C16.0353 35.6286 16.3353 35.9371 16.3353 36.3143C16.3353 36.6914 16.0353 37 15.6686 37ZM29.002 13H18.3353V24.6571C18.3353 24.9177 18.4753 25.1509 18.6953 25.2674C18.9153 25.384 19.182 25.3634 19.3886 25.2126L23.6686 22.072L27.9486 25.2126C28.062 25.2949 28.202 25.3429 28.3353 25.3429C28.442 25.3429 28.542 25.3154 28.642 25.2674C28.862 25.1509 29.002 24.9177 29.002 24.6571V13Z" fill="#F3541C"/>
</svg>
