<svg width="48" height="42" viewBox="0 0 48 42" fill="none" xmlns="http://www.w3.org/2000/svg">
<path d="M39.7901 41.5411C43.093 41.5411 45.7706 38.8635 45.7706 35.5606C45.7706 32.2576 43.093 29.5801 39.7901 29.5801C36.4871 29.5801 33.8096 32.2576 33.8096 35.5606C33.8096 38.8635 36.4871 41.5411 39.7901 41.5411Z" fill="#424249"/>
<path d="M39.79 38.7547C41.5541 38.7547 42.9842 37.3246 42.9842 35.5605C42.9842 33.7963 41.5541 32.3662 39.79 32.3662C38.0258 32.3662 36.5957 33.7963 36.5957 35.5605C36.5957 37.3246 38.0258 38.7547 39.79 38.7547Z" fill="#71717C"/>
<path d="M46.0223 34.3174H33.5587C32.3019 34.3174 31.3676 33.1547 31.6235 31.9241C32.5282 27.5724 35.8449 24.3501 39.7957 24.3501C43.7377 24.3501 47.0531 27.5724 47.9576 31.9242C48.2134 33.1547 47.2791 34.3174 46.0223 34.3174Z" fill="#A4A4F4"/>
<path d="M8.09964 41.5411C11.4026 41.5411 14.0801 38.8635 14.0801 35.5606C14.0801 32.2576 11.4026 29.5801 8.09964 29.5801C4.7967 29.5801 2.11914 32.2576 2.11914 35.5606C2.11914 38.8635 4.7967 41.5411 8.09964 41.5411Z" fill="#424249"/>
<path d="M8.09952 38.7547C9.86366 38.7547 11.2938 37.3246 11.2938 35.5605C11.2938 33.7963 9.86366 32.3662 8.09952 32.3662C6.33539 32.3662 4.90527 33.7963 4.90527 35.5605C4.90527 37.3246 6.33539 38.7547 8.09952 38.7547Z" fill="#71717C"/>
<path d="M36.1199 9.47559H31.1526V22.0071C31.1526 25.5037 28.3181 28.3382 24.8215 28.3382C22.3039 28.3382 20.2629 26.2975 20.2626 23.7799L20.2614 14.6112H15.1109C7.46978 14.6112 1.27539 20.8056 1.27539 28.4468V29.3525C1.27539 32.0945 3.49823 34.3173 6.24023 34.3173H8.28241H19.4887H31.9252H37.4727C40.2614 34.3173 42.5221 32.0566 42.5221 29.2679C41.7759 18.3275 36.1199 9.47559 36.1199 9.47559Z" fill="#2B6BBC"/>
<path opacity="0.1" d="M27.4628 34.3222H6.23426C3.49983 34.3222 1.27734 32.0997 1.27734 29.3518V28.4493C1.27734 20.8119 7.47347 14.6157 15.1109 14.6157H16.2154C15.946 15.7742 15.8113 16.9999 15.8113 18.2391C15.8113 25.7554 20.7009 32.1132 27.4628 34.3222Z" fill="black"/>
<path d="M14.2176 34.3172H1.97257C0.533457 34.3172 -0.401951 32.8339 0.176539 31.5161C2.19296 26.923 7.72466 23.5065 12.3975 25.3555C15.0912 26.4213 15.9744 28.848 16.1917 32.2235C16.2644 33.3542 15.3507 34.3172 14.2176 34.3172Z" fill="#A4A4F4"/>
<path opacity="0.1" d="M12.8079 34.3224H1.97806C0.536766 34.3224 -0.406059 32.8407 0.173136 31.5207C1.66828 28.1397 5.04923 25.4053 8.57834 24.9204C7.68928 25.9172 7.15054 27.2238 7.15054 28.6651C7.15054 31.79 9.68288 34.3224 12.8079 34.3224Z" fill="black"/>
<path d="M3.64667 0.459961H13.2314C14.075 0.459961 14.759 1.14386 14.759 1.98749V11.5722C14.759 12.4159 14.075 13.0998 13.2314 13.0998H3.64667C2.80304 13.0998 2.11914 12.4159 2.11914 11.5722V1.98749C2.11914 1.14386 2.80304 0.459961 3.64667 0.459961Z" fill="#FFDC6E"/>
<path d="M9.20199 4.60613H7.67671C7.23016 4.60613 6.86816 4.24413 6.86816 3.79759V0.458984H10.0105V3.79759C10.0105 4.24414 9.64854 4.60613 9.20199 4.60613Z" fill="#EA5385"/>
<path opacity="0.1" d="M13.8718 12.9455C13.6832 13.0398 13.4542 13.0938 13.2252 13.0938H3.64808C2.79947 13.0938 2.12598 12.4203 2.12598 11.5717V1.98109C2.12598 1.14588 2.79947 0.458984 3.64808 0.458984H8.09322C7.52742 1.61737 7.21764 2.92392 7.21764 4.29787C7.21764 8.44663 10.0463 11.9353 13.8718 12.9455Z" fill="black"/>
<path d="M4.36413 13.0996H20.2615C21.5013 13.0996 22.5064 14.1047 22.5064 15.3446C22.5064 16.5845 21.5013 17.5896 20.2615 17.5896H4.36413C3.12426 17.5896 2.11914 16.5845 2.11914 15.3446C2.11914 14.1047 3.12426 13.0996 4.36413 13.0996Z" fill="#424249"/>
<path opacity="0.1" d="M16.6196 13.0938C16.1482 14.5216 15.8788 16.0302 15.8249 17.5927H4.36203C3.12282 17.5927 2.12598 16.5824 2.12598 15.3432C2.12598 14.104 3.12282 13.0938 4.36203 13.0938H16.6196Z" fill="black"/>
<path d="M38.3084 12.3909H32.2624C30.0281 12.3909 28.2168 10.5797 28.2168 8.34538C28.2168 6.11107 30.0281 4.2998 32.2624 4.2998H38.3084C40.5427 4.2998 42.354 6.11107 42.354 8.34537C42.354 10.5797 40.5427 12.3909 38.3084 12.3909Z" fill="#726CDE"/>
<path d="M42.3472 8.33882C42.3472 9.45685 41.9027 10.4671 41.1618 11.2079C40.4344 11.9353 39.4242 12.3933 38.3062 12.3933H37.4307V4.29785H38.3062C40.5422 4.29785 42.3472 6.11625 42.3472 8.33882Z" fill="#F0F0FC"/>
<path d="M26.1393 10.0666H30.2941C31.2453 10.0666 32.0164 9.29555 32.0164 8.34436C32.0164 7.39317 31.2453 6.62207 30.2941 6.62207H26.1393C25.1881 6.62207 24.417 7.39316 24.417 8.34436C24.417 9.29555 25.1881 10.0666 26.1393 10.0666Z" fill="#424249"/>
</svg>
