<svg width="32" height="40" viewBox="0 0 32 40" fill="none" xmlns="http://www.w3.org/2000/svg">
<path d="M20.1534 19.4755L13.9133 17.9307H8.34796L2.10786 19.4755C0.869579 19.7858 0 20.8893 0 22.1513V33.7927H22.2612V22.1513C22.2612 20.8893 21.3916 19.7858 20.1534 19.4755Z" fill="#DB9E3B"/>
<path d="M18.0851 6.89653V7.58619C10.4328 8.96549 8.34585 4.82757 8.34585 4.82757C8.34585 7.58619 4.17188 8.27584 4.17188 8.27584V6.89653C4.17188 4.99309 4.95102 3.26896 6.21017 2.02068C7.46932 0.772412 9.20848 0 11.1285 0C14.9686 0 18.0851 3.08965 18.0851 6.89653Z" fill="#731932"/>
<path d="M8.34585 4.82715C8.34585 7.58576 4.17188 8.27541 4.17188 8.27541V8.96507C4.17188 10.8685 4.95102 12.5926 6.21017 13.8409C6.82235 14.4478 7.54584 14.9375 8.34585 15.2823V17.9306L11.1285 20.6892L13.9112 17.9306V15.2823C16.3668 14.2202 18.0851 11.7926 18.0851 8.96507V7.58576C10.4328 8.96507 8.34585 4.82715 8.34585 4.82715Z" fill="#FFDFAB"/>
<path d="M4.17418 25.5176C3.79156 25.5176 3.47852 25.8279 3.47852 26.2072V33.7934H4.86984V26.2072C4.86984 25.8279 4.55679 25.5176 4.17418 25.5176Z" fill="#BF832C"/>
<path d="M31.9249 28.6066C31.577 26.6894 30.1092 25.2342 28.1822 24.8963C26.6378 24.6273 24.5439 25.1101 22.9578 27.1377C21.3717 25.1101 19.2847 24.6273 17.7333 24.8963C15.8064 25.2342 14.3385 26.6894 13.9907 28.6066C13.6776 30.317 13.8933 34.848 22.603 39.9032C22.7143 39.9652 22.8326 39.9997 22.9578 39.9997C23.083 39.9997 23.2013 39.9652 23.3126 39.9032C32.0153 34.8411 32.231 30.317 31.9249 28.6066Z" fill="#F25CBF"/>
</svg>
