<svg width="40" height="40" viewBox="0 0 40 40" fill="none" xmlns="http://www.w3.org/2000/svg">
<path d="M23.4366 13.3027C25.5153 20.6421 28.8366 27.8906 33.376 34.8603C33.8608 35.6058 33.0669 36.5149 32.2608 36.133C30.7822 35.4299 29.3095 34.7148 27.8426 33.9876C27.776 35.5088 27.7517 37.0179 27.776 38.5149C27.7881 39.3815 26.679 39.7452 26.182 39.0361C21.2669 32.0482 17.5941 24.7512 15.2002 17.3391L23.4366 13.3027Z" fill="#FC5151"/>
<path d="M16.564 13.3027C14.4852 20.6421 11.164 27.8906 6.62457 34.8603C6.13973 35.6058 6.93366 36.5149 7.73973 36.133C9.23063 35.4239 10.7034 34.7088 12.1579 33.9876C12.2246 35.5088 12.2488 37.0179 12.2246 38.5149C12.2125 39.3815 13.3215 39.7452 13.8185 39.0361C18.7337 32.0482 22.4064 24.7512 24.8003 17.3391L16.564 13.3027Z" fill="#FC5151"/>
<path d="M20 29.4061C27.9596 29.4061 34.4121 22.9535 34.4121 14.9939C34.4121 7.03434 27.9596 0.581818 20 0.581818C12.0404 0.581818 5.58789 7.03434 5.58789 14.9939C5.58789 22.9535 12.0404 29.4061 20 29.4061Z" fill="#FFCC33"/>
<path d="M19.9997 26.2787C26.2321 26.2787 31.2845 21.2263 31.2845 14.9938C31.2845 8.76138 26.2321 3.70898 19.9997 3.70898C13.7672 3.70898 8.71484 8.76138 8.71484 14.9938C8.71484 21.2263 13.7672 26.2787 19.9997 26.2787Z" fill="#EDB529"/>
<path d="M20.0001 7.35152L21.7152 12.6364H27.2667L22.7758 15.897L24.491 21.1818L20.0001 17.9152L15.5092 21.1818L17.2243 15.897L12.7334 12.6364H18.2849L20.0001 7.35152Z" fill="#E45555"/>
</svg>
