<svg width="48" height="48" viewBox="0 0 48 48" fill="none" xmlns="http://www.w3.org/2000/svg">
<path fill-rule="evenodd" clip-rule="evenodd" d="M25.3754 11.1099L27.8603 11.1172C33.4814 3.41845 32.1566 0.677203 29.5458 1.48936C28.774 1.72945 28.2925 2.13877 27.8861 2.47336C27.1584 3.0727 26.5782 3.35198 25.957 2.47027C24.6052 0.551578 23.3944 0.551578 22.0425 2.47027C21.4213 3.35198 20.8412 3.0727 20.1134 2.47336C19.707 2.13877 19.2256 1.72936 18.4538 1.48936C15.8428 0.677109 14.5181 3.41845 20.1393 11.1172L22.6241 11.1099C23.1431 11.113 23.5715 11.1146 23.9997 11.1146C24.428 11.1146 24.8564 11.1131 25.3754 11.1099Z" fill="#C45B00"/>
<path fill-rule="evenodd" clip-rule="evenodd" d="M25.3761 11.1098L26.9151 11.1143C27.2145 11.1139 27.5211 11.1129 27.8654 11.111C33.4814 3.41705 32.1567 0.677297 29.5465 1.48936C28.7748 1.72945 28.2933 2.13877 27.8869 2.47336C27.1591 3.0727 26.579 3.35198 25.9578 2.47027C24.6059 0.551578 23.3951 0.551578 22.0432 2.47027C21.4221 3.35198 20.8419 3.0727 20.1141 2.47336C19.8666 2.26964 19.5914 2.03817 19.2396 1.83408C18.4027 2.91445 19.001 5.85755 22.8356 11.111C23.1799 11.1129 23.4865 11.114 23.7859 11.1143L25.325 11.1098H25.3492L25.352 11.1099H25.3762L25.3761 11.1098Z" fill="#D76A00"/>
<path fill-rule="evenodd" clip-rule="evenodd" d="M25.3756 11.1097L26.9147 11.1143C27.214 11.1139 27.5206 11.1128 27.8649 11.111C33.4809 3.417 32.1562 0.67725 29.5461 1.48931C28.7743 1.72941 28.2928 2.13872 27.8864 2.47331C27.1586 3.07266 26.5785 3.35194 25.9573 2.47022C25.2814 1.51088 24.6407 1.03125 24 1.03125V11.1136L25.3244 11.1097H25.3487L25.3514 11.1098H25.3757L25.3756 11.1097Z" fill="#E37500"/>
<path fill-rule="evenodd" clip-rule="evenodd" d="M37.4775 42.5197C40.6653 38.3621 39.3122 33.0745 36.0652 29.4098C34.2635 27.3763 32.0717 25.5458 30.6243 23.592H17.3765C15.929 25.5458 13.7373 27.3763 11.9355 29.4098C8.68855 33.0745 7.33545 38.3622 10.5232 42.5197C15.0717 48.4517 32.929 48.4517 37.4775 42.5197Z" fill="#C45B00"/>
<path fill-rule="evenodd" clip-rule="evenodd" d="M37.4776 42.5197C40.6654 38.3621 39.3123 33.0745 36.0653 29.4098C34.2636 27.3763 32.0718 25.5458 30.6244 23.592H20.0766C18.6292 25.5458 16.4375 27.3763 14.6357 29.4098C11.3887 33.0745 10.0356 38.3622 13.2234 42.5197C15.3147 45.2471 20.2195 46.7194 25.3506 46.9389C30.4816 46.7194 35.3863 45.2471 37.4776 42.5197Z" fill="#D76A00"/>
<path fill-rule="evenodd" clip-rule="evenodd" d="M37.4771 42.5197C40.6649 38.3621 39.3118 33.0745 36.0649 29.4098C34.2631 27.3763 32.0713 25.5458 30.6239 23.592H24V46.8514C24.4471 46.8902 24.8977 46.9195 25.35 46.9389C30.481 46.7194 35.3858 45.2471 37.4771 42.5197Z" fill="#E37500"/>
<path fill-rule="evenodd" clip-rule="evenodd" d="M19.7117 8.43011H31.6731C34.4454 8.43011 34.4454 12.6495 31.6731 12.6495H32.74C35.5487 12.6495 35.5487 16.9241 32.74 16.9241H32.4217C35.1248 16.9241 35.1248 21.0378 32.4217 21.0378H31.8172C34.2811 21.0378 34.281 24.7877 31.8172 24.7877H23.2133C19.6759 24.7877 15.2755 24.4546 13.0781 21.5104V9.99958L15.2944 7.40617C15.7304 6.77589 16.3896 6.43042 17.156 6.43042H17.2232L17.6969 7.19805C18.1544 7.93942 18.8406 8.43011 19.7118 8.43011H19.7117Z" fill="#F2C496"/>
<path fill-rule="evenodd" clip-rule="evenodd" d="M19.7118 8.43011H31.6732C34.4455 8.43011 34.4455 12.6495 31.6732 12.6495H32.7401C35.5488 12.6495 35.5488 16.9241 32.7401 16.9241H32.4218C35.1248 16.9241 35.1248 21.0378 32.4218 21.0378H31.8172C32.8123 21.0378 33.4053 21.6495 33.5966 22.3787C33.4051 23.1076 32.812 23.7189 31.8172 23.7189H23.2133C19.8189 23.7189 15.6297 23.4121 13.3551 20.7857C13.3322 20.7593 13.2266 20.6264 13.0781 20.4381V9.99958L15.2944 7.40617C15.7304 6.77589 16.3896 6.43042 17.156 6.43042H17.2232L17.6969 7.19805C18.1544 7.93942 18.8406 8.43011 19.7118 8.43011Z" fill="#FDD7AD"/>
<path fill-rule="evenodd" clip-rule="evenodd" d="M34.2793 19.8485C34.0014 20.5181 33.3825 21.0376 32.4222 21.0376H29.4128C29.0858 21.0376 28.8182 20.7701 28.8182 20.443C28.8182 20.116 29.0858 19.8485 29.4128 19.8485H34.2793ZM34.6502 15.7348C34.3524 16.408 33.716 16.924 32.7404 16.924H29.9274C29.6004 16.924 29.3328 16.6564 29.3328 16.3294C29.3328 16.0023 29.6004 15.7348 29.9274 15.7348H34.6502ZM33.5651 11.4602C33.274 12.1322 32.6438 12.6493 31.6734 12.6493H29.2244C28.8974 12.6493 28.6299 12.3818 28.6299 12.0548C28.6299 11.7277 28.8974 11.4602 29.2244 11.4602H33.5651Z" fill="#F2C496"/>
<path d="M12.7312 8.67432H9.78168C9.26961 8.67432 8.85449 9.08943 8.85449 9.6015V22.4C8.85449 22.912 9.26961 23.3272 9.78168 23.3272H12.7312C13.2433 23.3272 13.6584 22.912 13.6584 22.4V9.6015C13.6584 9.08943 13.2433 8.67432 12.7312 8.67432Z" fill="#2A92FA"/>
<path d="M12.7306 8.67432H11.0454C10.5333 8.67432 10.1182 9.08943 10.1182 9.6015V22.4C10.1182 22.912 10.5333 23.3272 11.0454 23.3272H12.7306C13.2427 23.3272 13.6578 22.912 13.6578 22.4V9.6015C13.6578 9.08943 13.2427 8.67432 12.7306 8.67432Z" fill="#5CAEFF"/>
<path d="M24.0001 41.5905C27.7879 41.5905 30.8585 38.5198 30.8585 34.732C30.8585 30.9442 27.7879 27.8735 24.0001 27.8735C20.2122 27.8735 17.1416 30.9442 17.1416 34.732C17.1416 38.5198 20.2122 41.5905 24.0001 41.5905Z" fill="#F9AC00"/>
<path fill-rule="evenodd" clip-rule="evenodd" d="M24.6044 27.9004C28.1089 28.2066 30.8582 31.148 30.8582 34.732C30.8582 38.3161 28.1089 41.2574 24.6044 41.5637C21.0998 41.2575 18.3506 38.3161 18.3506 34.732C18.3506 31.148 21.0998 28.2066 24.6044 27.9004Z" fill="#FDC72E"/>
<path fill-rule="evenodd" clip-rule="evenodd" d="M26.5929 32.5151C26.6394 32.7689 26.4713 33.0124 26.2175 33.0589C25.9637 33.1054 25.7202 32.9374 25.6737 32.6835C25.6158 32.3703 25.4483 32.1243 25.2199 31.9459C25.0123 31.7838 24.7524 31.6734 24.4739 31.6152L24.4685 31.6141V34.4265C24.5455 34.4504 24.621 34.4748 24.6939 34.5003C25.3328 34.7235 25.9079 35.0615 26.2598 35.5616C26.5761 36.0113 26.7071 36.5672 26.5446 37.2512C26.3983 37.8662 25.962 38.3079 25.3955 38.567C25.1122 38.6966 24.7955 38.7792 24.4685 38.8133V39.734C24.4685 39.9928 24.2586 40.2027 23.9997 40.2027C23.7409 40.2027 23.531 39.9928 23.531 39.734V38.7787C23.2136 38.7221 22.9047 38.6192 22.6248 38.4685C22.0168 38.1413 21.5424 37.5963 21.3948 36.818C21.3473 36.5643 21.5145 36.32 21.7683 36.2724C22.0221 36.2249 22.2664 36.3921 22.3139 36.6459C22.4024 37.1126 22.6936 37.4431 23.0679 37.6445C23.2123 37.7223 23.3687 37.7818 23.5309 37.8234V35.1227C23.0351 34.9697 22.5405 34.7787 22.1604 34.4163C21.7429 34.0181 21.525 33.5218 21.4858 33.02C21.4448 32.4935 21.6039 31.9621 21.9384 31.5338C22.2952 31.0773 22.84 30.7943 23.4321 30.6848C23.4649 30.6787 23.4978 30.6733 23.5308 30.6682V29.73C23.5308 29.4711 23.7407 29.2612 23.9995 29.2612C24.2584 29.2612 24.4683 29.4711 24.4683 29.73V30.6652C24.5341 30.6747 24.5994 30.6861 24.6642 30.6997C25.0764 30.7859 25.4694 30.9558 25.7948 31.2099C26.1953 31.5228 26.4897 31.9576 26.5929 32.5151ZM23.5309 31.6181C23.1802 31.6954 22.8695 31.8593 22.6746 32.1088C22.486 32.3502 22.3963 32.6513 22.4198 32.9506C22.4417 33.2311 22.566 33.511 22.805 33.7388C22.9862 33.9116 23.2459 34.0358 23.5309 34.1385V31.6181ZM24.4684 37.8723C24.6607 37.8441 24.8436 37.7924 25.0073 37.7176C25.321 37.574 25.5594 37.3436 25.6327 37.0353C25.7261 36.6421 25.6605 36.3364 25.4944 36.1001C25.2819 35.798 24.9047 35.575 24.4685 35.4126V37.8723H24.4684Z" fill="#E37500"/>
</svg>
