<svg width="48" height="48" viewBox="0 0 48 48" fill="none" xmlns="http://www.w3.org/2000/svg">
<g clip-path="url(#clip0_716_17537)">
<path d="M9.44043 15.6398L15.6452 9.43506L38.4977 32.2861L32.2929 38.4916L9.44043 15.6398Z" fill="#2F495E"/>
<path d="M15.6602 15.6602C12.0902 19.2302 6.27017 19.2302 2.69267 15.6602C0.405172 13.3652 -0.502328 10.1252 0.270172 6.97517L0.525172 5.92517L5.71517 11.1152L10.1327 10.1327L11.1152 5.70767L5.93267 0.525172L6.98267 0.270172C10.1252 -0.502328 13.3727 0.405172 15.6602 2.69267C19.2302 6.27017 19.2302 12.0827 15.6602 15.6602ZM41.0177 47.7302C37.8752 48.5027 34.6277 47.5952 32.3402 45.3077C28.7627 41.7302 28.7627 35.9177 32.3402 32.3402C35.9177 28.7627 41.7302 28.7627 45.3077 32.3402C47.5952 34.6277 48.5027 37.8752 47.7302 41.0177L47.4752 42.0677L42.2852 36.8777L37.8602 37.8602L36.8777 42.2777L42.0752 47.4752L41.0177 47.7302Z" fill="#3E586B"/>
<path d="M42.2361 12.4298L41.3136 13.3523L34.6416 6.68178L35.5641 5.75928L42.2361 12.4298Z" fill="#FFCF5C"/>
<path d="M35.5654 5.75994L39.0754 2.24994C39.2217 2.10367 39.3953 1.98764 39.5864 1.90848C39.7775 1.82932 39.9823 1.78857 40.1892 1.78857C40.396 1.78857 40.6008 1.82932 40.7919 1.90848C40.983 1.98764 41.1567 2.10367 41.3029 2.24994L45.7504 6.69744C45.8967 6.84369 46.0127 7.01733 46.0919 7.20842C46.1711 7.39952 46.2118 7.60434 46.2118 7.81119C46.2118 8.01803 46.1711 8.22285 46.0919 8.41395C46.0127 8.60505 45.8967 8.77868 45.7504 8.92494L42.2404 12.4349L35.5654 5.75994Z" fill="#FF7058"/>
<path d="M12.21 42.45L5.54254 35.7825L5.52004 35.805C5.38504 35.94 5.28004 36.0825 5.20504 36.24L5.07754 36.6075L2.41504 44.475L3.52504 45.585L11.4825 42.8925C11.5575 42.87 11.625 42.8475 11.7 42.81C11.88 42.735 12.045 42.6225 12.195 42.48L12.21 42.45Z" fill="#FFCF5C"/>
<path d="M1.85254 46.1475L2.56504 44.04L3.96004 45.435L1.85254 46.1475Z" fill="#334A5E"/>
<path d="M36.8625 8.91012L34.635 6.68262L5.52005 35.8051C5.38505 35.9401 5.28005 36.0826 5.20505 36.2401L5.07755 36.6076C4.98755 37.1101 5.12255 37.6351 5.51255 38.0251C5.82755 38.3401 6.22505 38.4826 6.63005 38.4826C7.03505 38.4826 7.44005 38.3326 7.74755 38.0251L36.8625 8.91012Z" fill="#A8DBF0"/>
<path d="M36.8624 8.90991L7.74738 38.0324C7.13238 38.6474 7.13238 39.6449 7.74738 40.2524C7.89364 40.3987 8.06727 40.5147 8.25837 40.5939C8.44947 40.673 8.65429 40.7138 8.86113 40.7138C9.06798 40.7138 9.2728 40.673 9.4639 40.5939C9.65499 40.5147 9.82863 40.3987 9.97488 40.2524L39.0899 11.1374L36.8624 8.90991Z" fill="#54C0EB"/>
<path d="M41.3021 13.35L39.1046 11.1525C39.1005 11.1488 39.0952 11.1467 39.0896 11.1467C39.0841 11.1467 39.0788 11.1488 39.0746 11.1525L10.0271 40.2C9.47963 40.7475 9.34463 41.61 9.77213 42.2475C9.95692 42.5168 10.2203 42.7225 10.5263 42.8366C10.8324 42.9507 11.1661 42.9676 11.4821 42.885C11.5571 42.8625 11.6246 42.84 11.6996 42.8025C11.8796 42.7275 12.0446 42.615 12.1946 42.4725L12.2171 42.45L41.3021 13.3725C41.3096 13.365 41.3096 13.3575 41.3021 13.35Z" fill="#A8DBF0"/>
</g>
<defs>
<clipPath id="clip0_716_17537">
<rect width="48" height="48" fill="white"/>
</clipPath>
</defs>
</svg>
