<svg width="40" height="40" viewBox="0 0 40 40" fill="none" xmlns="http://www.w3.org/2000/svg">
<path d="M6.68589 2.08301C5.47212 2.08301 4.30807 2.56589 3.4498 3.42544C2.59154 4.28498 2.10938 5.45077 2.10938 6.66634V33.333C2.10938 34.5486 2.59154 35.7144 3.4498 36.5739C4.30807 37.4335 5.47212 37.9163 6.68589 37.9163H33.3129C34.5266 37.9163 35.6907 37.4335 36.549 36.5739C37.4072 35.7144 37.8894 34.5486 37.8894 33.333V6.66634C37.8894 5.45077 37.4072 4.28498 36.549 3.42544C35.6907 2.56589 34.5266 2.08301 33.3129 2.08301H6.68589Z" fill="#ECEFF1"/>
<path fill-rule="evenodd" clip-rule="evenodd" d="M24.9922 37.9162L23.4945 35.9162C23.4847 35.9032 23.4747 35.8905 23.4645 35.8779L15.0903 25.5545C14.6747 25.0423 14.1536 24.626 13.5625 24.334C12.9715 24.0421 12.3244 23.8815 11.6656 23.8631C11.0068 23.8447 10.3519 23.9691 9.74551 24.2277C9.13915 24.4862 8.5957 24.8729 8.15233 25.3612L2.43584 31.6579C2.41858 31.6779 2.40193 31.6985 2.38592 31.7195L2.11133 32.0612V33.3329C2.11133 34.5482 2.59327 35.7137 3.45117 36.5732C4.30907 37.4327 5.4727 37.9158 6.68618 37.9162H24.9922Z" fill="#5E94FF"/>
<path fill-rule="evenodd" clip-rule="evenodd" d="M36.9831 36.0729L35.8597 34.9496L30.5726 29.6546C29.7516 28.8325 28.6494 28.3537 27.4892 28.315C26.3289 28.2764 25.1973 28.6807 24.3236 29.4462L20.01 33.2262C19.8763 33.3435 19.7691 33.488 19.6956 33.6501C19.6221 33.8122 19.5841 33.9882 19.584 34.1662V37.9162H33.3135C34.8146 37.9162 36.1476 37.1912 36.9831 36.0729Z" fill="#5E94FF"/>
<path d="M25.8251 2.08301C22.6252 2.08301 19.5563 3.35607 17.2936 5.62213C15.0309 7.8882 13.7598 10.9616 13.7598 14.1663C13.7598 17.371 15.0309 20.4445 17.2936 22.7105C19.5563 24.9766 22.6252 26.2497 25.8251 26.2497C29.025 26.2497 32.0939 24.9766 34.3566 22.7105C36.6193 20.4445 37.8905 17.371 37.8905 14.1663C37.8905 10.9616 36.6193 7.8882 34.3566 5.62213C32.0939 3.35607 29.025 2.08301 25.8251 2.08301Z" fill="#5E94FF"/>
<path fill-rule="evenodd" clip-rule="evenodd" d="M25.8243 6.25C26.1553 6.25 26.4728 6.3817 26.7069 6.61612C26.941 6.85054 27.0725 7.16848 27.0725 7.5V18.3333C27.0725 18.6649 26.941 18.9828 26.7069 19.2172C26.4728 19.4516 26.1553 19.5833 25.8243 19.5833C25.4933 19.5833 25.1758 19.4516 24.9417 19.2172C24.7077 18.9828 24.5762 18.6649 24.5762 18.3333V7.5C24.5762 7.16848 24.7077 6.85054 24.9417 6.61612C25.1758 6.3817 25.4933 6.25 25.8243 6.25Z" fill="#ECEFF1"/>
<path fill-rule="evenodd" clip-rule="evenodd" d="M19.949 13.2836C20.183 13.0495 20.5003 12.918 20.831 12.918C21.1618 12.918 21.479 13.0495 21.713 13.2836L25.8236 17.4003L29.9341 13.2836C30.0484 13.1608 30.1862 13.0623 30.3393 12.994C30.4924 12.9256 30.6577 12.8889 30.8253 12.8859C30.9928 12.883 31.1593 12.9138 31.3147 12.9767C31.4701 13.0396 31.6113 13.1332 31.7298 13.2519C31.8484 13.3706 31.9418 13.5119 32.0046 13.6676C32.0674 13.8232 32.0982 13.99 32.0952 14.1578C32.0923 14.3256 32.0556 14.4912 31.9874 14.6445C31.9191 14.7978 31.8208 14.9358 31.6982 15.0503L26.7056 20.0503C26.4716 20.2843 26.1543 20.4158 25.8236 20.4158C25.4928 20.4158 25.1756 20.2843 24.9416 20.0503L19.949 15.0503C19.7153 14.8159 19.584 14.4982 19.584 14.1669C19.584 13.8357 19.7153 13.518 19.949 13.2836Z" fill="#ECEFF1"/>
</svg>
