<svg width="48" height="48" viewBox="0 0 48 48" fill="none" xmlns="http://www.w3.org/2000/svg">
<g clip-path="url(#clip0_601_7746)">
<path d="M23.5074 27H6.75C6.55109 27 6.36032 26.921 6.21967 26.7803C6.07902 26.6397 6 26.4489 6 26.25C6 26.0511 6.07902 25.8603 6.21967 25.7197C6.36032 25.579 6.55109 25.5 6.75 25.5H23.5074C24.1038 25.4983 24.6754 25.2614 25.0983 24.8408L33.0912 16.8486C33.4386 16.4993 33.8517 16.2224 34.3068 16.0338C34.7619 15.8452 35.2499 15.7488 35.7426 15.75H47.25C47.4489 15.75 47.6397 15.829 47.7803 15.9697C47.921 16.1103 48 16.3011 48 16.5C48 16.6989 47.921 16.8897 47.7803 17.0303C47.6397 17.171 47.4489 17.25 47.25 17.25H35.7426C35.1462 17.2518 34.5746 17.4886 34.1517 17.9092L26.1588 25.9014C25.8114 26.2507 25.3983 26.5276 24.9432 26.7162C24.4881 26.9048 24.0001 27.0013 23.5074 27Z" fill="#FFC751"/>
<path d="M15 29.25H9C8.58579 29.25 8.25 29.5858 8.25 30V47.25C8.25 47.6642 8.58579 48 9 48H15C15.4142 48 15.75 47.6642 15.75 47.25V30C15.75 29.5858 15.4142 29.25 15 29.25Z" fill="#FF5876"/>
<path d="M8.99416 12.657C8.97147 12.4756 8.88333 12.3088 8.7463 12.1878C8.60928 12.0668 8.43281 12 8.25002 12H4.50002C4.37883 12.0001 4.25946 12.0295 4.15212 12.0858C4.04478 12.142 3.95266 12.2235 3.88363 12.3231C3.81461 12.4227 3.77073 12.5375 3.75575 12.6578C3.74078 12.7781 3.75515 12.9002 3.79763 13.0137L6.04763 19.0137C6.10137 19.1565 6.19739 19.2796 6.32288 19.3665C6.44838 19.4534 6.59738 19.5 6.75002 19.5H9.00002C9.10637 19.5 9.2115 19.4774 9.30845 19.4337C9.40539 19.39 9.49193 19.3261 9.5623 19.2464C9.63268 19.1667 9.6853 19.0729 9.71665 18.9713C9.748 18.8696 9.75738 18.7625 9.74416 18.657L8.99416 12.657Z" fill="#F22A55"/>
<path d="M3.75 12.75C5.82107 12.75 7.5 11.0711 7.5 9C7.5 6.92893 5.82107 5.25 3.75 5.25C1.67893 5.25 0 6.92893 0 9C0 11.0711 1.67893 12.75 3.75 12.75Z" fill="#C3DBFC"/>
<path d="M19.1265 1.60086C19.0129 1.53485 18.8839 1.4999 18.7525 1.49951C18.6212 1.49913 18.492 1.53332 18.378 1.59866L16.4484 2.70095C14.3194 3.91852 12.0078 4.78417 9.60278 5.26445C9.43282 5.2985 9.2799 5.39036 9.17001 5.52442C9.06012 5.65847 9.00004 5.82644 9 5.99978V11.9998C9.00004 12.1731 9.06011 12.3411 9.17 12.4752C9.27989 12.6092 9.43282 12.7011 9.60278 12.7351C12.0078 13.2154 14.3194 14.0811 16.4484 15.2986L18.3779 16.4009C18.492 16.4662 18.6212 16.5003 18.7526 16.4999C18.884 16.4995 19.0129 16.4646 19.1266 16.3987C19.2402 16.3327 19.3345 16.2381 19.4001 16.1242C19.4656 16.0103 19.5001 15.8812 19.5 15.7498V2.24978C19.4999 2.11841 19.4654 1.98935 19.3998 1.87549C19.3343 1.76162 19.2401 1.66693 19.1265 1.60086Z" fill="#C3DBFC"/>
<path d="M21.75 12.75C23.8211 12.75 25.5 11.0711 25.5 9C25.5 6.92893 23.8211 5.25 21.75 5.25C19.6789 5.25 18 6.92893 18 9C18 11.0711 19.6789 12.75 21.75 12.75Z" fill="#FF5876"/>
<path d="M9 3.75H4.5C3.67157 3.75 3 4.42157 3 5.25V12.75C3 13.5784 3.67157 14.25 4.5 14.25H9C9.82843 14.25 10.5 13.5784 10.5 12.75V5.25C10.5 4.42157 9.82843 3.75 9 3.75Z" fill="#FF5876"/>
<path d="M24.75 29.25H18.75C18.3358 29.25 18 29.5858 18 30V47.25C18 47.6642 18.3358 48 18.75 48H24.75C25.1642 48 25.5 47.6642 25.5 47.25V30C25.5 29.5858 25.1642 29.25 24.75 29.25Z" fill="#FFE176"/>
<path d="M34.7871 21.0573C34.6501 21 34.4992 20.9849 34.3536 21.0139C34.208 21.0428 34.0743 21.1146 33.9697 21.2199L27.9697 27.2199C27.9001 27.2895 27.8448 27.3722 27.8071 27.4632C27.7694 27.5542 27.75 27.6517 27.75 27.7502V47.2502C27.75 47.3487 27.7694 47.4462 27.807 47.5372C27.8447 47.6282 27.9 47.7109 27.9696 47.7806C28.0393 47.8502 28.122 47.9055 28.213 47.9431C28.304 47.9808 28.4015 48.0002 28.5 48.0002H34.5C34.5985 48.0002 34.696 47.9808 34.787 47.9431C34.878 47.9055 34.9607 47.8502 35.0304 47.7806C35.1 47.7109 35.1553 47.6282 35.193 47.5372C35.2306 47.4462 35.25 47.3487 35.25 47.2502V21.7502C35.25 21.6019 35.2061 21.4569 35.1237 21.3335C35.0413 21.2102 34.9241 21.1141 34.7871 21.0573Z" fill="#8ABCF9"/>
<path d="M44.25 19.5H38.25C37.8358 19.5 37.5 19.8358 37.5 20.25V47.25C37.5 47.6642 37.8358 48 38.25 48H44.25C44.6642 48 45 47.6642 45 47.25V20.25C45 19.8358 44.6642 19.5 44.25 19.5Z" fill="#6FA0EF"/>
<path d="M29.9998 9.74984H27.7498C27.5509 9.74984 27.3602 9.67082 27.2195 9.53017C27.0789 9.38951 26.9998 9.19875 26.9998 8.99984C26.9998 8.80092 27.0789 8.61016 27.2195 8.46951C27.3602 8.32886 27.5509 8.24984 27.7498 8.24984H29.9998C30.1988 8.24984 30.3895 8.32886 30.5302 8.46951C30.6708 8.61016 30.7498 8.80092 30.7498 8.99984C30.7498 9.19875 30.6708 9.38951 30.5302 9.53017C30.3895 9.67082 30.1988 9.74984 29.9998 9.74984ZM26.9998 5.99984C26.8515 5.99981 26.7066 5.9558 26.5832 5.87339C26.4599 5.79098 26.3638 5.67385 26.3071 5.53683C26.2503 5.3998 26.2355 5.24903 26.2644 5.10356C26.2933 4.9581 26.3647 4.82448 26.4696 4.71959L27.9696 3.21959C28.039 3.14892 28.1217 3.09269 28.213 3.05417C28.3042 3.01564 28.4022 2.99557 28.5012 2.99512C28.6003 2.99468 28.6985 3.01385 28.7901 3.05155C28.8817 3.08925 28.9649 3.14472 29.0349 3.21476C29.105 3.2848 29.1604 3.36803 29.1981 3.45962C29.2358 3.55122 29.255 3.64938 29.2546 3.74843C29.2541 3.84748 29.234 3.94546 29.1955 4.03672C29.157 4.12797 29.1008 4.21068 29.0301 4.28009L27.5301 5.78009C27.4605 5.84984 27.3779 5.90517 27.2869 5.94288C27.1959 5.98059 27.0983 5.99995 26.9998 5.99984ZM28.4998 14.9998C28.4013 14.9999 28.3038 14.9806 28.2128 14.9429C28.1218 14.9052 28.0391 14.8498 27.9696 14.7801L26.4696 13.2801C26.3311 13.139 26.2538 12.949 26.2547 12.7512C26.2556 12.5535 26.3346 12.3642 26.4744 12.2244C26.6142 12.0846 26.8035 12.0056 27.0012 12.0047C27.199 12.0038 27.389 12.0811 27.5301 12.2196L29.0301 13.7196C29.1349 13.8245 29.2064 13.9581 29.2353 14.1036C29.2642 14.249 29.2494 14.3998 29.1926 14.5368C29.1358 14.6739 29.0397 14.791 28.9164 14.8734C28.7931 14.9558 28.6482 14.9998 28.4998 14.9998Z" fill="#FFC751"/>
<path d="M47.25 48H6.75C6.55109 48 6.36032 47.921 6.21967 47.7803C6.07902 47.6397 6 47.4489 6 47.25C6 47.0511 6.07902 46.8603 6.21967 46.7197C6.36032 46.579 6.55109 46.5 6.75 46.5H47.25C47.4489 46.5 47.6397 46.579 47.7803 46.7197C47.921 46.8603 48 47.0511 48 47.25C48 47.4489 47.921 47.6397 47.7803 47.7803C47.6397 47.921 47.4489 48 47.25 48Z" fill="#C3DBFC"/>
<path d="M21 0H19.5C18.6716 0 18 0.671573 18 1.5V16.5C18 17.3284 18.6716 18 19.5 18H21C21.8284 18 22.5 17.3284 22.5 16.5V1.5C22.5 0.671573 21.8284 0 21 0Z" fill="#A9C5ED"/>
</g>
<defs>
<clipPath id="clip0_601_7746">
<rect width="48" height="48" fill="white"/>
</clipPath>
</defs>
</svg>
