<svg width="48" height="48" viewBox="0 0 48 48" fill="none" xmlns="http://www.w3.org/2000/svg">
<path d="M46.6228 39.1734L41.7712 36.3749C41.6661 36.3142 41.5468 36.2822 41.4253 36.2822C41.3039 36.2822 41.1846 36.3142 41.0794 36.3749C40.9743 36.4356 40.8869 36.5229 40.8262 36.6281C40.7654 36.7332 40.7335 36.8525 40.7334 36.974V37.7699H3.03656C2.50472 37.7699 1.99466 37.9812 1.61859 38.3573C1.24252 38.7333 1.03125 39.2434 1.03125 39.7752C1.03125 40.3071 1.24252 40.8171 1.61859 41.1932C1.99466 41.5693 2.50472 41.7805 3.03656 41.7805H40.7334V42.5765C40.7335 42.6979 40.7654 42.8172 40.8262 42.9224C40.8869 43.0275 40.9743 43.1149 41.0794 43.1756C41.1846 43.2363 41.3039 43.2682 41.4253 43.2682C41.5468 43.2682 41.6661 43.2363 41.7712 43.1755L46.6228 40.3743C46.7286 40.3137 46.8165 40.2263 46.8776 40.1209C46.9388 40.0154 46.971 39.8957 46.971 39.7738C46.971 39.6519 46.9388 39.5322 46.8776 39.4268C46.8165 39.3213 46.7286 39.2339 46.6228 39.1734Z" fill="#F46969"/>
<path d="M40.5935 23.2556C40.5939 26.0477 39.9622 28.8036 38.7457 31.3168C37.5293 33.83 35.7598 36.0352 33.5697 37.7672H22.0694C30.071 37.7672 36.581 31.2572 36.581 23.2556C36.5904 20.3578 35.7282 17.5241 34.1066 15.1226C32.4849 12.721 30.1786 10.8625 27.4872 9.7884L27.4535 9.77622C26.9707 9.58285 26.4778 9.41573 25.9769 9.27559C22.8456 8.40464 19.5127 8.60827 16.5107 9.85393C13.5087 11.0996 11.0108 13.3154 9.41599 16.1475L10.0722 16.3209C10.1898 16.3522 10.297 16.4139 10.3831 16.4998C10.4692 16.5857 10.5312 16.6927 10.5629 16.8101C10.5945 16.9276 10.5947 17.0513 10.5634 17.1688C10.532 17.2863 10.4703 17.3935 10.3844 17.4797L6.4263 21.4462C6.34055 21.5322 6.23368 21.5941 6.11644 21.6256C5.9992 21.6572 5.87571 21.6574 5.75838 21.6261C5.64105 21.5949 5.53402 21.5333 5.44802 21.4476C5.36203 21.3619 5.30011 21.255 5.26849 21.1378L3.80974 15.7284C3.77836 15.6114 3.77826 15.4882 3.80945 15.3711C3.84063 15.2541 3.902 15.1472 3.98742 15.0613C4.07285 14.9754 4.17933 14.9135 4.29622 14.8817C4.41311 14.8498 4.53631 14.8492 4.65349 14.88L5.43724 15.0937C7.49145 10.9087 11.0478 7.65181 15.3969 5.97272C19.7461 4.29364 24.5684 4.31575 28.9019 6.03465L28.9432 6.05059C32.3825 7.42521 35.3308 9.79917 37.4075 12.866C39.4842 15.9329 40.5939 19.5518 40.5935 23.2556Z" fill="#4A5058"/>
<path d="M20.1342 28.5281C19.6868 28.5283 19.2521 28.3788 18.8995 28.1034L15.0933 25.1334C14.6741 24.8059 14.4021 24.3253 14.3372 23.7974C14.2724 23.2694 14.4199 22.7373 14.7473 22.3181C15.0748 21.8988 15.5554 21.6269 16.0834 21.562C16.6113 21.4971 17.1435 21.6447 17.5627 21.9721L20.0217 23.8931L25.8417 18.5156C26.2364 18.1799 26.7455 18.01 27.2626 18.0413C27.7797 18.0725 28.2647 18.3026 28.616 18.6834C28.9673 19.0641 29.1577 19.566 29.1473 20.0839C29.137 20.6018 28.9267 21.0957 28.5605 21.4621L21.488 27.9956C21.1194 28.3364 20.6363 28.5264 20.1342 28.5281Z" fill="#74D1D1"/>
<path d="M21.0084 41.7777H3.03656C2.77322 41.7777 2.51246 41.7258 2.26916 41.6251C2.02587 41.5243 1.8048 41.3766 1.61859 41.1904C1.43238 41.0042 1.28467 40.7831 1.1839 40.5398C1.08312 40.2965 1.03125 40.0357 1.03125 39.7724C1.03125 39.5091 1.08312 39.2483 1.1839 39.005C1.28467 38.7617 1.43238 38.5406 1.61859 38.3544C1.8048 38.1682 2.02587 38.0205 2.26916 37.9197C2.51246 37.819 2.77322 37.7671 3.03656 37.7671H15.6234C17.3203 39.231 19.1199 40.5713 21.0084 41.7777Z" fill="#D36E7F"/>
</svg>
