<svg width="41" height="41" viewBox="0 0 41 41" fill="none" xmlns="http://www.w3.org/2000/svg">
<path d="M39.1364 26.0906H1.86364C0.838636 26.0906 0 25.2519 0 24.2269V3.72692C0 2.70192 0.838636 1.86328 1.86364 1.86328H39.1364C40.1614 1.86328 41 2.70192 41 3.72692V24.2269C41 25.2519 40.1614 26.0906 39.1364 26.0906Z" fill="#0E9347"/>
<path d="M34.477 18.6367C32.3339 18.6367 30.377 19.6617 29.2589 21.339C28.327 20.8731 27.302 20.5004 26.0907 20.5004C22.8293 20.5004 20.127 22.9231 19.6611 26.0913H39.1361C40.0679 26.0913 40.8134 25.439 40.9998 24.5072C40.627 21.2458 37.8316 18.6367 34.477 18.6367Z" fill="#0D8944"/>
<path d="M35.4087 24.2275H5.59055C5.59055 22.1775 3.91328 20.5003 1.86328 20.5003V7.45481C3.91328 7.45481 5.59055 5.77754 5.59055 3.72754H35.4087C35.4087 5.77754 37.086 7.45481 39.136 7.45481V20.5003C37.086 20.5003 35.4087 22.1775 35.4087 24.2275Z" fill="#3BB54A"/>
<path d="M34.4775 18.6367C32.3343 18.6367 30.3775 19.6617 29.2593 21.339C28.3275 20.8731 27.3025 20.5004 26.0912 20.5004C23.4821 20.5004 21.2457 21.9913 20.2207 24.2276H35.4093C35.4093 22.1776 36.9934 20.5935 39.0434 20.5004C37.8321 19.3822 36.248 18.6367 34.4775 18.6367Z" fill="#0E9347"/>
<path d="M20.5004 22.3635C24.6175 22.3635 27.955 18.6088 27.955 13.9772C27.955 9.34552 24.6175 5.59082 20.5004 5.59082C16.3834 5.59082 13.0459 9.34552 13.0459 13.9772C13.0459 18.6088 16.3834 22.3635 20.5004 22.3635Z" fill="#0E9347"/>
<path d="M9.31774 15.8406C10.347 15.8406 11.1814 15.0062 11.1814 13.9769C11.1814 12.9477 10.347 12.1133 9.31774 12.1133C8.28848 12.1133 7.4541 12.9477 7.4541 13.9769C7.4541 15.0062 8.28848 15.8406 9.31774 15.8406Z" fill="#0E9347"/>
<path d="M31.682 15.8406C32.7113 15.8406 33.5456 15.0062 33.5456 13.9769C33.5456 12.9477 32.7113 12.1133 31.682 12.1133C30.6527 12.1133 29.8184 12.9477 29.8184 13.9769C29.8184 15.0062 30.6527 15.8406 31.682 15.8406Z" fill="#0E9347"/>
<path d="M21.4316 13.0458H19.5679C19.0088 13.0458 18.6361 12.6731 18.6361 12.114C18.6361 11.5549 19.0088 11.1822 19.5679 11.1822H22.3634C22.9225 11.1822 23.2952 10.8094 23.2952 10.2504C23.2952 9.69126 22.9225 9.31854 22.3634 9.31854H21.4316C21.4316 8.75945 21.0588 8.38672 20.4997 8.38672C19.9406 8.38672 19.5679 8.75945 19.5679 9.31854C17.9838 9.31854 16.7725 10.5299 16.7725 12.114C16.7725 13.6981 17.9838 14.9094 19.5679 14.9094H21.4316C21.9906 14.9094 22.3634 15.2822 22.3634 15.8413C22.3634 16.4004 21.9906 16.7731 21.4316 16.7731H18.6361C18.077 16.7731 17.7043 17.1458 17.7043 17.7049C17.7043 18.264 18.077 18.6367 18.6361 18.6367H19.5679C19.5679 19.1958 19.9406 19.5685 20.4997 19.5685C21.0588 19.5685 21.4316 19.1958 21.4316 18.6367C23.0156 18.6367 24.227 17.4254 24.227 15.8413C24.227 14.2572 23.0156 13.0458 21.4316 13.0458Z" fill="#89C763"/>
<path d="M24.2268 33.5455C27.8292 33.5455 30.7496 30.6251 30.7496 27.0227C30.7496 23.4203 27.8292 20.5 24.2268 20.5C20.6244 20.5 17.7041 23.4203 17.7041 27.0227C17.7041 30.6251 20.6244 33.5455 24.2268 33.5455Z" fill="#FFCA5D"/>
<path d="M32.6135 31.6822C36.216 31.6822 39.1363 28.7618 39.1363 25.1594C39.1363 21.557 36.216 18.6367 32.6135 18.6367C29.0111 18.6367 26.0908 21.557 26.0908 25.1594C26.0908 28.7618 29.0111 31.6822 32.6135 31.6822Z" fill="#F6B545"/>
<path d="M32.6135 18.6367C28.9795 18.6367 26.0908 21.5254 26.0908 25.1594C26.0908 28.7935 28.9795 31.6822 32.6135 31.6822C36.2476 31.6822 39.1363 28.7935 39.1363 25.1594C39.1363 21.5254 36.2476 18.6367 32.6135 18.6367ZM32.6135 29.8185C30.0045 29.8185 27.9545 27.7685 27.9545 25.1594C27.9545 22.5504 30.0045 20.5004 32.6135 20.5004C35.2226 20.5004 37.2726 22.5504 37.2726 25.1594C37.2726 27.7685 35.2226 29.8185 32.6135 29.8185Z" fill="#FFCB5B"/>
<path d="M32.6133 31.5887C36.2474 31.6819 39.136 28.7001 39.136 25.1592H39.0428C38.5769 25.1592 38.2042 25.5319 38.111 25.9978C37.9246 27.3024 37.2724 28.5137 36.3406 29.3524C35.5951 30.0978 34.5701 30.5637 33.4519 30.7501C32.986 30.7501 32.6133 31.1228 32.6133 31.5887Z" fill="#F6B545"/>
<path d="M32.6135 18.7295C28.9795 18.6364 26.0908 21.6182 26.0908 25.1591H26.184C26.6499 25.1591 27.0226 24.7864 27.1158 24.3205C27.3022 23.0159 27.9545 21.8045 28.8863 20.9659C29.6317 20.2205 30.6567 19.7545 31.7749 19.5682C32.2408 19.5682 32.6135 19.1955 32.6135 18.7295Z" fill="#FFE27A"/>
<path d="M28.6064 25.8114C28.6064 23.2023 30.6564 21.1523 33.2655 21.1523C34.3836 21.1523 35.4086 21.525 36.2473 22.2705C35.3155 21.1523 34.1041 20.5 32.6132 20.5C30.0041 20.5 27.9541 22.55 27.9541 25.1591C27.9541 26.65 28.6064 27.8614 29.6314 28.7C28.9791 27.9545 28.6064 26.9295 28.6064 25.8114Z" fill="#F19920"/>
<path d="M35.4096 28.0479C35.3164 28.0479 35.2232 28.0479 35.13 27.9547C34.9436 27.7684 34.9436 27.4888 35.13 27.3024C35.6891 26.7434 35.9686 25.9047 35.9686 25.1593C35.9686 24.8797 36.155 24.6934 36.4346 24.6934C36.7141 24.6934 36.9005 24.8797 36.9005 25.1593C36.9005 26.1843 36.5277 27.2093 35.8755 27.9547C35.6891 28.0479 35.5027 28.0479 35.4096 28.0479Z" fill="#FFCB5B"/>
<path d="M32.6135 27.9542C32.0544 27.9542 31.6816 27.5815 31.6816 27.0224V23.2951C31.6816 22.736 32.0544 22.3633 32.6135 22.3633C33.1725 22.3633 33.5453 22.736 33.5453 23.2951V27.0224C33.5453 27.5815 33.1725 27.9542 32.6135 27.9542Z" fill="#F19920"/>
<path d="M36.0618 30.6568C35.4096 28.3273 33.7323 26.4636 31.5891 25.625C31.2164 23.4818 29.8187 21.6182 28.0482 20.5C26.93 21.7114 26.1846 23.2955 26.1846 25.0659C26.1846 28.7 29.0732 31.5886 32.7073 31.5886C33.9187 31.6818 35.0368 31.3091 36.0618 30.6568Z" fill="#F19920"/>
<path d="M29.6314 28.6996C28.9791 27.8609 28.5132 26.8359 28.5132 25.7178C28.5132 24.4132 29.0723 23.2018 30.0041 22.3632C29.8177 22.0837 29.6314 21.8973 29.445 21.7109C28.5132 22.5496 27.9541 23.7609 27.9541 25.1587C27.9541 26.6496 28.6064 27.8609 29.6314 28.6996ZM31.6814 25.7178V27.0223C31.6814 27.5814 32.0541 27.9541 32.6132 27.9541C33.1723 27.9541 33.545 27.5814 33.545 27.0223V26.8359C32.9859 26.37 32.3336 25.9973 31.6814 25.7178Z" fill="#E78825"/>
<path d="M36.0613 30.6564C35.8749 30.0041 35.6885 29.445 35.3158 28.886C34.5704 29.445 33.6385 29.8178 32.6135 29.8178C30.0045 29.8178 27.9545 27.7678 27.9545 25.1587C27.9545 23.761 28.5135 22.5496 29.4454 21.711C28.9795 21.245 28.5135 20.8723 27.9545 20.5928C26.8363 21.8041 26.0908 23.3882 26.0908 25.1587C26.0908 28.7928 28.9795 31.6814 32.6135 31.6814C33.9181 31.6814 35.0363 31.3087 36.0613 30.6564Z" fill="#F6B545"/>
<path d="M35.7815 29.8184C35.1292 30.2843 34.2906 30.5638 33.4519 30.7502C32.986 30.8434 32.6133 31.2161 32.6133 31.682C33.9178 31.682 35.036 31.3093 36.061 30.657L35.7815 29.8184Z" fill="#F19920"/>
<path d="M27.9545 20.5928C26.8363 21.8041 26.0908 23.3882 26.0908 25.1587H26.184C26.6499 25.1587 27.0226 24.786 27.1158 24.32C27.3022 23.0155 27.9545 21.8973 28.7931 21.0587C28.5135 20.9655 28.234 20.7791 27.9545 20.5928Z" fill="#FFCB5B"/>
<path d="M24.2268 33.5455C27.8292 33.5455 30.7496 30.6251 30.7496 27.0227C30.7496 23.4203 27.8292 20.5 24.2268 20.5C20.6244 20.5 17.7041 23.4203 17.7041 27.0227C17.7041 30.6251 20.6244 33.5455 24.2268 33.5455Z" fill="#F6B545"/>
<path d="M23.2959 31.6819C23.2959 32.3342 23.3891 32.8933 23.5754 33.5455H24.2277C27.8618 33.5455 30.7504 30.6569 30.7504 27.0228C30.7504 26.3705 30.6573 25.8115 30.4709 25.1592H29.8186C26.1845 25.1592 23.2959 28.0478 23.2959 31.6819Z" fill="#F19920"/>
<path d="M24.2268 20.5C20.5927 20.5 17.7041 23.3886 17.7041 27.0227C17.7041 30.6568 20.5927 33.5455 24.2268 33.5455C27.8609 33.5455 30.7496 30.6568 30.7496 27.0227C30.7496 23.3886 27.8609 20.5 24.2268 20.5ZM24.2268 31.6818C21.6177 31.6818 19.5677 29.6318 19.5677 27.0227C19.5677 24.4136 21.6177 22.3636 24.2268 22.3636C26.8359 22.3636 28.8859 24.4136 28.8859 27.0227C28.8859 29.6318 26.8359 31.6818 24.2268 31.6818Z" fill="#FFCB5B"/>
<path d="M24.2275 33.452C27.8616 33.5452 30.7503 30.5634 30.7503 27.0225H30.6571C30.1912 27.0225 29.8184 27.3952 29.7253 27.8611C29.5389 29.1656 28.8866 30.377 27.9548 31.2156C27.2094 31.9611 26.1844 32.427 25.0662 32.6134C24.6003 32.6134 24.2275 32.9861 24.2275 33.452Z" fill="#F6B545"/>
<path d="M24.2268 20.5929C20.5927 20.4998 17.7041 23.4816 17.7041 27.0225H17.7973C18.2632 27.0225 18.6359 26.6498 18.7291 26.1839C18.9155 24.8793 19.5677 23.6679 20.4996 22.8293C21.245 22.0839 22.27 21.6179 23.3882 21.4316C23.8541 21.4316 24.2268 21.0589 24.2268 20.5929Z" fill="#FFE27A"/>
<path d="M20.2206 27.6746C20.2206 25.0656 22.2706 23.0156 24.8797 23.0156C25.9979 23.0156 27.0229 23.3883 27.8615 24.1337C26.9297 23.0156 25.7184 22.3633 24.2275 22.3633C21.6184 22.3633 19.5684 24.4133 19.5684 27.0224C19.5684 28.5133 20.2206 29.7246 21.2456 30.5633C20.5934 29.8178 20.2206 28.7928 20.2206 27.6746Z" fill="#F19920"/>
<path d="M27.0228 29.9114C26.9297 29.9114 26.8365 29.9114 26.7433 29.8182C26.5569 29.6318 26.5569 29.3523 26.7433 29.1659C27.3024 28.6068 27.5819 27.7682 27.5819 27.0227C27.5819 26.7432 27.7683 26.5568 28.0478 26.5568C28.3274 26.5568 28.5137 26.7432 28.5137 27.0227C28.5137 28.0477 28.141 29.0727 27.4887 29.8182C27.3024 29.9114 27.116 29.9114 27.0228 29.9114Z" fill="#FFCB5B"/>
<path d="M24.2277 29.8184C23.6686 29.8184 23.2959 29.4457 23.2959 28.8866V25.1594C23.2959 24.6003 23.6686 24.2275 24.2277 24.2275C24.7868 24.2275 25.1595 24.6003 25.1595 25.1594V28.8866C25.1595 29.4457 24.7868 29.8184 24.2277 29.8184Z" fill="#F19920"/>
<path d="M28.5141 25.2524C28.7004 25.8115 28.8868 26.3705 28.8868 27.0228C28.8868 29.6319 26.8368 31.6819 24.2277 31.6819C23.9482 31.6819 23.5754 31.6819 23.2959 31.5887V31.6819C23.2959 32.3342 23.3891 32.8933 23.5754 33.5455H24.2277C27.8618 33.5455 30.7504 30.6569 30.7504 27.0228C30.7504 26.3705 30.6573 25.8115 30.4709 25.1592H29.8186C29.3527 25.1592 28.98 25.1592 28.5141 25.2524Z" fill="#F6B545"/>
<path d="M28.886 39.1363C32.4884 39.1363 35.4087 36.216 35.4087 32.6135C35.4087 29.0111 32.4884 26.0908 28.886 26.0908C25.2836 26.0908 22.3633 29.0111 22.3633 32.6135C22.3633 36.216 25.2836 39.1363 28.886 39.1363Z" fill="#F6B545"/>
<path d="M28.886 26.0908C25.2519 26.0908 22.3633 28.9795 22.3633 32.6135C22.3633 36.2476 25.2519 39.1363 28.886 39.1363C32.5201 39.1363 35.4087 36.2476 35.4087 32.6135C35.4087 28.9795 32.5201 26.0908 28.886 26.0908ZM28.886 37.2726C26.2769 37.2726 24.2269 35.2226 24.2269 32.6135C24.2269 30.0045 26.2769 27.9545 28.886 27.9545C31.4951 27.9545 33.5451 30.0045 33.5451 32.6135C33.5451 35.2226 31.4951 37.2726 28.886 37.2726Z" fill="#FFCB5B"/>
<path d="M28.8867 39.0428C32.5208 39.136 35.4094 36.1542 35.4094 32.6133H35.3163C34.8504 32.6133 34.4776 32.986 34.3844 33.4519C34.1981 34.7565 33.5458 35.9678 32.614 36.8065C31.8685 37.5519 30.8435 38.0178 29.7254 38.2042C29.2594 38.2042 28.8867 38.5769 28.8867 39.0428Z" fill="#F6B545"/>
<path d="M28.886 26.1838C25.2519 26.0906 22.3633 29.0724 22.3633 32.6133H22.4565C22.9224 32.6133 23.2951 32.2406 23.3883 31.7747C23.5746 30.4701 24.2269 29.2588 25.1587 28.4201C25.9042 27.6747 26.9292 27.2088 28.0474 27.0224C28.5133 27.0224 28.886 26.6497 28.886 26.1838Z" fill="#FFE27A"/>
<path d="M24.8798 33.2655C24.8798 30.6564 26.9298 28.6064 29.5389 28.6064C30.6571 28.6064 31.6821 28.9791 32.5207 29.7246C31.5889 28.6064 30.3775 27.9541 28.8866 27.9541C26.2775 27.9541 24.2275 30.0041 24.2275 32.6132C24.2275 34.1041 24.8798 35.3155 25.9048 36.1541C25.2525 35.4086 24.8798 34.3836 24.8798 33.2655Z" fill="#F19920"/>
<path d="M31.682 35.502C31.5888 35.502 31.4956 35.502 31.4025 35.4088C31.2161 35.2225 31.2161 34.9429 31.4025 34.7566C31.9616 34.1975 32.2411 33.3588 32.2411 32.6134C32.2411 32.3338 32.4275 32.1475 32.707 32.1475C32.9866 32.1475 33.1729 32.3338 33.1729 32.6134C33.1729 33.6384 32.8002 34.6634 32.1479 35.4088C31.9616 35.502 31.7752 35.502 31.682 35.502Z" fill="#FFCB5B"/>
<path d="M28.8859 35.4093C28.3268 35.4093 27.9541 35.0365 27.9541 34.4775V30.7502C27.9541 30.1911 28.3268 29.8184 28.8859 29.8184C29.445 29.8184 29.8177 30.1911 29.8177 30.7502V34.4775C29.8177 35.0365 29.445 35.4093 28.8859 35.4093Z" fill="#F19920"/>
</svg>
