<svg width="48" height="48" viewBox="0 0 48 48" fill="none" xmlns="http://www.w3.org/2000/svg">
<g clip-path="url(#clip0_601_6631)">
<path d="M24.1992 35.7002H25.7992V41.0002H24.1992V35.7002Z" fill="#435075"/>
<path d="M25.0004 44.9998C26.4363 44.9998 27.6004 43.8357 27.6004 42.3998C27.6004 40.9639 26.4363 39.7998 25.0004 39.7998C23.5645 39.7998 22.4004 40.9639 22.4004 42.3998C22.4004 43.8357 23.5645 44.9998 25.0004 44.9998Z" fill="#435075"/>
<path d="M24.9992 43.6996C25.7172 43.6996 26.2992 43.1176 26.2992 42.3996C26.2992 41.6816 25.7172 41.0996 24.9992 41.0996C24.2812 41.0996 23.6992 41.6816 23.6992 42.3996C23.6992 43.1176 24.2812 43.6996 24.9992 43.6996Z" fill="white"/>
<path d="M47.6004 5.7998V32.4998C47.6004 34.3998 46.0004 35.9998 44.1004 35.9998H5.90039C4.00039 35.9998 2.40039 34.3998 2.40039 32.4998V5.7998H47.6004Z" fill="#E2E3E5"/>
<path d="M1 3H49V6.8H1V3Z" fill="#EAC84C"/>
<path d="M34.5996 12.5996H40.2996V31.9996H34.5996V12.5996Z" fill="#E2534F"/>
<path d="M26.2988 19.2998H31.9988V31.9998H26.2988V19.2998Z" fill="#525B7A"/>
<path d="M18 25.7998H23.7V31.9998H18V25.7998Z" fill="white"/>
<path d="M9.59961 20.5996H15.2996V31.9996H9.59961V20.5996Z" fill="#59A67A"/>
</g>
<defs>
<clipPath id="clip0_601_6631">
<rect width="48" height="48" fill="white"/>
</clipPath>
</defs>
</svg>
