<svg width="48" height="48" viewBox="0 0 48 48" fill="none" xmlns="http://www.w3.org/2000/svg">
<g clip-path="url(#clip0_601_7166)">
<path d="M48.0996 7.83367V10.5251L46.1297 10.7171C45.936 11.5901 45.5858 12.4208 45.0961 13.1689L46.3703 14.7067L44.4709 16.6048L42.9335 15.3315C42.1879 15.8252 41.3567 16.1754 40.4826 16.3641L40.2898 18.3589H37.5983L37.4063 16.3641C36.5336 16.1712 35.7033 15.8213 34.9557 15.3315L33.4167 16.6048L31.5186 14.7067L32.7927 13.1689C32.2983 12.4233 31.9477 11.5917 31.7591 10.7171L29.7646 10.5252V7.83367L31.7592 7.64083C31.9524 6.76802 32.3026 5.93757 32.7927 5.18993L31.5185 3.65251L33.4169 1.75441L34.9557 3.02724C35.7012 2.53351 36.5323 2.1833 37.4063 1.99463L37.5982 0H40.2898L40.4826 1.99452C41.3552 2.1881 42.1855 2.53798 42.9335 3.02724L44.4708 1.75441L46.3455 3.65251L45.0722 5.19003C45.5656 5.93591 45.9161 6.76699 46.1058 7.64093L48.0996 7.83367ZM42.8339 9.17939C42.8343 7.03132 41.0928 5.28987 38.9448 5.28946C36.7968 5.28914 35.0553 7.03059 35.0548 9.17856C35.0548 11.3266 36.796 13.0681 38.944 13.0685C41.0916 13.0685 42.833 11.3275 42.834 9.17939H42.8339Z" fill="#00EFD1"/>
<path d="M34.8746 28.0393V33.1432L31.137 33.5082C30.7701 35.1632 30.1063 36.7379 29.1777 38.1561L31.593 41.0735L27.9927 44.6732L25.076 42.2586C23.6617 43.195 22.0851 43.8595 20.4272 44.2179L20.0622 48H14.9583L14.5933 44.2179C12.9384 43.8511 11.3638 43.1873 9.94572 42.2587L7.02827 44.6732L3.42832 41.0735L5.84325 38.1561C4.90661 36.7422 4.24204 35.1659 3.88367 33.5082L0.101562 33.1432V28.0393L3.88367 27.6743C4.25091 26.0191 4.91485 24.4441 5.84336 23.0255L3.42843 20.1093L7.02838 16.5086L9.94582 18.9243C11.3596 17.9876 12.9359 17.323 14.5935 16.9646L14.9585 13.1816H20.0624L20.4274 16.9646C22.0826 17.3318 23.6576 17.9957 25.0761 18.9243L27.9928 16.5086L31.5478 20.1093L29.1319 23.0255C30.0683 24.4398 30.7328 26.0164 31.0912 27.6743L34.8746 28.0393Z" fill="#FEDB41"/>
<path d="M17.5106 20.6533C22.999 20.6538 27.4481 25.1034 27.4481 30.5917C27.4477 36.0801 22.9981 40.5293 17.5093 40.5293C12.021 40.5289 7.57185 36.0793 7.57227 30.5906C7.57268 25.1022 12.0223 20.6534 17.5107 20.6534L17.5106 20.6533Z" fill="#00ACEA"/>
<path d="M21.3446 26.0735C21.9173 26.0735 22.3814 25.6095 22.3814 25.0368C22.3814 24.4645 21.9173 24 21.3446 24H13.1708C12.5982 24 12.134 24.4645 12.134 25.0368C12.134 25.6095 12.5982 26.0735 13.1708 26.0735H15.5097C16.5019 26.0735 17.3588 26.5919 17.7516 27.4213H13.1709C12.5982 27.4213 12.1341 27.8858 12.1341 28.4581C12.1341 29.0308 12.5982 29.4948 13.1709 29.4948H17.7533C17.6436 29.7687 17.4739 30.0145 17.2567 30.2141C17.0283 30.4455 16.7563 30.6294 16.4564 30.755C16.1566 30.8807 15.8348 30.9457 15.5097 30.9463H13.1708C12.9624 30.9483 12.7593 31.0125 12.5876 31.1306C12.4158 31.2487 12.2833 31.4154 12.2068 31.6092C12.1303 31.8031 12.1135 32.0154 12.1584 32.219C12.2033 32.4225 12.3079 32.608 12.4588 32.7517L18.3052 38.2774C18.7131 38.6787 19.3692 38.6731 19.7702 38.2649C20.171 37.857 20.1654 37.2009 19.7575 36.8C19.7484 36.7907 19.739 36.7818 19.7292 36.7732L15.7699 33.0325C17.7868 32.9022 19.4796 31.4644 19.9344 29.4954H21.3446C21.9169 29.4954 22.3814 29.0313 22.3814 28.4586C22.3814 27.886 21.9169 27.4218 21.3446 27.4218H19.9332C19.8167 26.9376 19.6088 26.4801 19.3204 26.074H21.3446V26.0735Z" fill="#FEDB41"/>
</g>
<defs>
<clipPath id="clip0_601_7166">
<rect width="48" height="48" fill="white"/>
</clipPath>
</defs>
</svg>
