<svg width="48" height="48" viewBox="0 0 48 48" fill="none" xmlns="http://www.w3.org/2000/svg">
<g clip-path="url(#clip0_716_17553)">
<path d="M23.1998 37.6V45.6C23.1985 46.024 23.0296 46.4302 22.7298 46.73C22.43 47.0298 22.0238 47.1988 21.5998 47.2H2.3998C1.97585 47.1988 1.56962 47.0298 1.26983 46.73C0.970048 46.4302 0.801071 46.024 0.799805 45.6V26.4C0.801071 25.9761 0.970048 25.5699 1.26983 25.2701C1.56962 24.9703 1.97585 24.8013 2.3998 24.8H10.3998L23.1998 37.6Z" fill="#3C99F3"/>
<path d="M45.6004 0.800049H12.0004C11.1167 0.800049 10.4004 1.51639 10.4004 2.40005V36C10.4004 36.8837 11.1167 37.6 12.0004 37.6H45.6004C46.484 37.6 47.2004 36.8837 47.2004 36V2.40005C47.2004 1.51639 46.484 0.800049 45.6004 0.800049Z" fill="#006DD9"/>
<path d="M13.6253 33.36L14.6053 29.44C14.6412 29.2958 14.7148 29.1637 14.8185 29.0572C14.9221 28.9508 15.0522 28.8737 15.1954 28.834C15.3386 28.7943 15.4898 28.7934 15.6335 28.8312C15.7772 28.8691 15.9083 28.9444 16.0133 29.0496L18.9533 31.9896C19.0584 32.0946 19.1338 32.2257 19.1717 32.3694C19.2095 32.5131 19.2086 32.6643 19.1689 32.8075C19.1292 32.9507 19.0521 33.0808 18.9457 33.1844C18.8392 33.2881 18.7071 33.3617 18.5629 33.3976L14.6429 34.3776C14.5024 34.4125 14.3552 34.4104 14.2157 34.3716C14.0761 34.3329 13.949 34.2587 13.8466 34.1563C13.7442 34.0539 13.67 33.9267 13.6313 33.7872C13.5925 33.6477 13.5904 33.5005 13.6253 33.36ZM43.9997 5.04397L43.0197 8.96397C42.9838 9.10818 42.9103 9.24026 42.8066 9.34672C42.7029 9.45319 42.5728 9.53021 42.4296 9.56991C42.2864 9.60962 42.1352 9.61059 41.9915 9.57272C41.8478 9.53485 41.7168 9.4595 41.6117 9.35437L38.6717 6.41357C38.5668 6.30843 38.4917 6.17736 38.454 6.03372C38.4163 5.89008 38.4173 5.73901 38.457 5.5959C38.4966 5.45279 38.5736 5.32276 38.6799 5.21906C38.7862 5.11536 38.9181 5.04169 39.0621 5.00557L42.9821 4.02557C43.1228 3.99039 43.2702 3.99225 43.4099 4.03097C43.5496 4.06969 43.6769 4.14395 43.7794 4.24652C43.8819 4.34908 43.956 4.47645 43.9947 4.61621C44.0333 4.75596 44.035 4.90334 43.9997 5.04397Z" fill="#F1F3F6"/>
<path d="M16.8076 32.0001C16.6494 32 16.4948 31.9531 16.3633 31.8652C16.2317 31.7773 16.1292 31.6524 16.0687 31.5062C16.0082 31.36 15.9923 31.1992 16.0232 31.0441C16.054 30.8889 16.1302 30.7464 16.242 30.6345L40.2516 6.63448C40.4025 6.48876 40.6046 6.40812 40.8144 6.40994C41.0241 6.41177 41.2248 6.4959 41.3731 6.64423C41.5214 6.79255 41.6056 6.9932 41.6074 7.20296C41.6092 7.41272 41.5286 7.6148 41.3828 7.76568L17.3732 31.7657C17.2232 31.9157 17.0198 32 16.8076 32.0001Z" fill="#F1F3F6"/>
</g>
<defs>
<clipPath id="clip0_716_17553">
<rect width="48" height="48" fill="white"/>
</clipPath>
</defs>
</svg>
