<svg width="48" height="48" viewBox="0 0 48 48" fill="none" xmlns="http://www.w3.org/2000/svg">
<path fill-rule="evenodd" clip-rule="evenodd" d="M42.0592 17.4835C44.1382 20.3785 45.2422 24.0335 44.9582 28.0045C44.2882 37.3876 36.1261 45.0046 26.7441 45.0046C17.361 45.0046 10.288 37.3876 10.958 28.0045C11.242 24.0335 12.867 20.3785 15.36 17.4835L13.333 15.3005C12.958 14.8965 12.98 14.2654 13.383 13.8884L14.952 12.4255C15.146 12.2435 15.404 12.1474 15.67 12.1564C15.935 12.1664 16.186 12.2814 16.367 12.4755L18.39 14.6545C20.9281 12.7585 23.9431 11.4964 27.1641 11.1214L27.4581 7.00441H26.5321C26.2541 7.00441 25.9891 6.88944 25.8001 6.68544C25.6111 6.48244 25.5151 6.21043 25.5351 5.93343L25.6771 3.93342C25.7151 3.40941 26.1501 3.00439 26.6751 3.00439H32.6701C32.9471 3.00439 33.2121 3.11936 33.4021 3.32337C33.5911 3.52637 33.6871 3.79838 33.6671 4.07538L33.5241 6.07539C33.4871 6.5994 33.0521 7.00441 32.5271 7.00441H31.4581L31.1641 11.1214C34.3321 11.4964 37.1671 12.7585 39.4331 14.6545L41.8222 12.4255C42.0162 12.2435 42.2742 12.1474 42.5402 12.1564C42.8052 12.1664 43.0561 12.2814 43.2371 12.4755L44.5022 13.8384C44.8782 14.2424 44.8552 14.8734 44.4522 15.2504L42.0592 17.4835Z" fill="#9BC4F9"/>
<path d="M26.7413 45.0075C36.1302 45.0075 44.2851 37.3963 44.9558 28.0074C45.6264 18.6185 38.5589 11.0073 29.17 11.0073C19.7811 11.0073 11.6263 18.6185 10.9556 28.0074C10.2849 37.3963 17.3525 45.0075 26.7413 45.0075Z" fill="#60A0F7"/>
<path d="M27.0237 41.004C34.2034 41.004 40.4395 35.1837 40.9523 28.004C41.4652 20.8242 36.0606 15.0039 28.8809 15.0039C21.7012 15.0039 15.4651 20.8242 14.9522 28.004C14.4394 35.1837 19.8439 41.004 27.0237 41.004Z" fill="#EAF2FF"/>
<path fill-rule="evenodd" clip-rule="evenodd" d="M28.8867 15.0044C32.4737 15.0044 35.6198 16.4604 37.8057 18.8134L27.9581 28.0045L28.8867 15.0044Z" fill="#9D66D5"/>
<path fill-rule="evenodd" clip-rule="evenodd" d="M33.6657 4.07538C33.6855 3.79838 33.5889 3.52637 33.4004 3.32337C33.211 3.11936 32.9462 3.00439 32.6682 3.00439C31.0892 3.00439 28.1662 3.00439 26.6732 3.00439C26.1482 3.00439 25.7133 3.40941 25.6758 3.93342C25.6332 4.53042 25.5775 5.30942 25.533 5.93343C25.5132 6.21043 25.6098 6.48244 25.7983 6.68544C25.9877 6.88944 26.2525 7.00441 26.5305 7.00441C28.1095 7.00441 31.0325 7.00441 32.5255 7.00441C33.0505 7.00441 33.4854 6.5994 33.5229 6.07539C33.5655 5.47839 33.6212 4.69939 33.6657 4.07538Z" fill="#60A0F7"/>
<path fill-rule="evenodd" clip-rule="evenodd" d="M9.99608 11.0049C10.5477 11.0049 10.9961 11.4529 10.9961 12.0049C10.9961 12.5569 10.5477 13.0049 9.99608 13.0049H4.99604C4.44436 13.0049 3.99602 12.5569 3.99602 12.0049C3.99602 11.4529 4.44436 11.0049 4.99604 11.0049H9.99608Z" fill="#9D66D5"/>
<path fill-rule="evenodd" clip-rule="evenodd" d="M3.00197 21.0044C2.4503 21.0044 2.00195 20.5564 2.00195 20.0044C2.00195 19.4524 2.4503 19.0044 3.00197 19.0044H8.00201C8.55368 19.0044 9.00203 19.4524 9.00203 20.0044C9.00203 20.5564 8.55368 21.0044 8.00201 21.0044H3.00197Z" fill="#9D66D5"/>
<path fill-rule="evenodd" clip-rule="evenodd" d="M3.99804 29.0039C3.44604 29.0039 2.99805 28.5559 2.99805 28.0039C2.99805 27.4519 3.44604 27.0039 3.99804 27.0039H6.99801C7.55 27.0039 7.998 27.4519 7.998 28.0039C7.998 28.5559 7.55 29.0039 6.99801 29.0039H3.99804Z" fill="#9D66D5"/>
<path fill-rule="evenodd" clip-rule="evenodd" d="M3.00197 37.0049C2.4503 37.0049 2.00195 36.5569 2.00195 36.0049C2.00195 35.4529 2.4503 35.0049 3.00197 35.0049H8.00201C8.55368 35.0049 9.00203 35.4529 9.00203 36.0049C9.00203 36.5569 8.55368 37.0049 8.00201 37.0049H3.00197Z" fill="#9D66D5"/>
</svg>
