<svg width="49" height="48" viewBox="0 0 49 48" fill="none" xmlns="http://www.w3.org/2000/svg">
<path d="M39 7H11C8.79086 7 7 8.79086 7 11V19C7 21.2091 8.79086 23 11 23H39C41.2091 23 43 21.2091 43 19V11C43 8.79086 41.2091 7 39 7Z" fill="#55ABFF"/>
<path d="M23 25H11C8.79086 25 7 26.7909 7 29V39C7 41.2091 8.79086 43 11 43H23C25.2091 43 27 41.2091 27 39V29C27 26.7909 25.2091 25 23 25Z" fill="#55ABFF"/>
<path d="M39 25H33C30.7909 25 29 26.7909 29 29V39C29 41.2091 30.7909 43 33 43H39C41.2091 43 43 41.2091 43 39V29C43 26.7909 41.2091 25 39 25Z" fill="#0078EE"/>
</svg>
