<svg width="48" height="48" viewBox="0 0 48 48" fill="none" xmlns="http://www.w3.org/2000/svg">
<path fill-rule="evenodd" clip-rule="evenodd" d="M19.0781 4.5C13.8314 4.5 9.57812 8.7533 9.57812 14C9.57812 19.2467 13.8314 23.5 19.0781 23.5C24.3248 23.5 28.5782 19.2467 28.5782 14C28.5782 8.7533 24.3248 4.5 19.0781 4.5Z" fill="#B9A6FF"/>
<path fill-rule="evenodd" clip-rule="evenodd" d="M12.5137 26.5C9.8562 26.5 7.3971 27.9064 6.04952 30.1968L4.72598 32.4466C3.68134 34.222 3.23322 36.2956 3.66104 38.1596C4.10754 40.105 5.49084 41.6902 7.75466 42.275C14.077 43.9084 24.0878 43.9084 30.41 42.275C32.6738 41.6902 34.0572 40.105 34.5036 38.1596C34.9314 36.2956 34.4834 34.222 33.4388 32.4466L32.1152 30.1968C30.7676 27.9064 28.3086 26.5 25.651 26.5H12.5137Z" fill="#7450DB"/>
<path d="M37.512 38.4063C37.9872 35.7747 37.2974 33.0941 36.0218 30.9257L34.6982 28.6761C33.1092 25.9751 30.416 24.1521 27.3828 23.6445H36.2888C38.9346 23.6445 41.3828 25.0445 42.7246 27.3251L43.295 28.2945C44.335 30.0623 44.7742 32.1229 44.324 33.9643C43.8522 35.8941 42.4304 37.4239 40.1602 37.9345C39.3314 38.1209 38.4424 38.2783 37.512 38.4063Z" fill="#7450DB"/>
<path d="M29.2672 21.2454C30.7236 19.2015 31.58 16.7008 31.58 14C31.58 10.518 30.1564 7.3686 27.8594 5.10202C28.8304 4.71364 29.8902 4.5 31 4.5C35.6732 4.5 39.4614 8.28832 39.4614 12.9615C39.4614 16.7919 36.9174 20.0242 33.4302 21.0684C32.6588 21.2994 31.8424 21.423 31 21.423C30.4062 21.423 29.8266 21.3618 29.2672 21.2454Z" fill="#B9A6FF"/>
</svg>
