<svg width="40" height="40" viewBox="0 0 40 40" fill="none" xmlns="http://www.w3.org/2000/svg">
<path fill-rule="evenodd" clip-rule="evenodd" d="M20 39.998C8.95395 39.998 0.00195312 31.046 0.00195312 20C0.00195312 8.95395 8.95395 0.00195312 20 0.00195312C31.046 0.00195312 39.998 8.95395 39.998 20C39.998 31.046 31.046 39.998 20 39.998ZM20.57 13.502C16.568 13.502 13.496 16.508 13.496 20C13.496 23.492 16.562 26.498 20.57 26.498C21.596 26.498 22.562 26.3 23.432 25.946C24.2 25.634 25.076 26 25.388 26.768C25.7 27.536 25.334 28.412 24.566 28.724C23.336 29.222 21.986 29.498 20.57 29.498C15.104 29.498 10.496 25.34 10.496 20C10.496 14.66 15.104 10.502 20.57 10.502C21.986 10.502 23.336 10.778 24.566 11.276C25.334 11.588 25.7 12.464 25.388 13.232C25.076 14 24.2 14.366 23.432 14.054C22.562 13.7 21.596 13.502 20.57 13.502Z" fill="#2C96FF"/>
</svg>
