<svg width="48" height="48" viewBox="0 0 48 48" fill="none" xmlns="http://www.w3.org/2000/svg">
<path d="M2 6V32C2 32.5304 2.21071 33.0391 2.58579 33.4142C2.96086 33.7893 3.46957 34 4 34H36C36.5304 34 37.0391 33.7893 37.4142 33.4142C37.7893 33.0391 38 32.5304 38 32V6H2Z" fill="#847E7E"/>
<path opacity="0.2" d="M36 33.5H4C3.46957 33.5 2.96086 33.2893 2.58579 32.9142C2.21071 32.5391 2 32.0304 2 31.5V32C2 32.5304 2.21071 33.0391 2.58579 33.4142C2.96086 33.7893 3.46957 34 4 34H36C36.5304 34 37.0391 33.7893 37.4142 33.4142C37.7893 33.0391 38 32.5304 38 32V31.5C38 32.0304 37.7893 32.5391 37.4142 32.9142C37.0391 33.2893 36.5304 33.5 36 33.5Z" fill="#010101"/>
<path d="M34 6H28L24 10L28 14H34L30 10L34 6ZM22 6H16L12 10L16 14H22L18 10L22 6ZM2 12L4 14H10L6 10L10 6H4L2 8V12ZM38 8L36 10L38 12V8Z" fill="#F3F3F3"/>
<path opacity="0.1" d="M2 6H38V6.5H2V6Z" fill="white"/>
<path d="M36 34C36.5304 34 37.0391 33.7893 37.4142 33.4142C37.7893 33.0391 38 32.5304 38 32V14H2L22 34H36Z" fill="url(#paint0_linear_601_6614)"/>
<path opacity="0.05" d="M2 10H38V14H2V10Z" fill="#010101"/>
<path d="M3 13C4.65685 13 6 11.6569 6 10C6 8.34315 4.65685 7 3 7C1.34315 7 0 8.34315 0 10C0 11.6569 1.34315 13 3 13Z" fill="#333333"/>
<path opacity="0.1" d="M2.99944 7.5C4.39344 7.5 5.57544 8.39 5.97344 9.604C5.77744 8.14 4.51944 7 2.99944 7C1.47944 7 0.219437 8.14 0.0234375 9.604C0.236384 8.98564 0.638262 8.44983 1.17228 8.07228C1.7063 7.69473 2.34546 7.49455 2.99944 7.5Z" fill="white"/>
<path opacity="0.15" d="M2.99944 12.5005C2.34539 12.5062 1.70609 12.3062 1.17201 11.9286C0.637935 11.551 0.236122 11.015 0.0234375 10.3965C0.219437 11.8605 1.47944 13.0005 2.99944 13.0005C4.51944 13.0005 5.77944 11.8605 5.97344 10.3965C5.7606 11.0145 5.35903 11.5501 4.82541 11.9276C4.29179 12.3051 3.65308 12.5055 2.99944 12.5005Z" fill="#010101"/>
<path d="M41.942 28.412C41.805 27.7324 41.4373 27.121 40.9011 26.6814C40.3649 26.2418 39.6933 26.0011 39 26H27C24.084 26 24 33.18 24 34C24 34.82 24.084 42 27 42H39C40.454 42 41.668 40.962 41.942 39.588L48 42V26L41.942 28.412Z" fill="#D3D30A"/>
<path opacity="0.1" d="M27 42H39C40.454 42 41.668 40.962 41.942 39.588L48 42V41.5L41.942 39.088C41.805 39.7677 41.4373 40.379 40.9011 40.8186C40.3649 41.2582 39.6933 41.4989 39 41.5H27C24.28 41.5 24.024 35.252 24.002 33.75L24 34C24 34.82 24.084 42 27 42Z" fill="#010101"/>
<path opacity="0.2" d="M27 26.5H39C40.454 26.5 41.668 27.538 41.942 28.912L48 26.5V26L41.942 28.412C41.805 27.7324 41.4373 27.121 40.9011 26.6814C40.3649 26.2418 39.6933 26.0011 39 26H27C24.084 26 24 33.18 24 34L24.002 34.25C24.024 32.748 24.28 26.5 27 26.5Z" fill="#181616"/>
<path d="M41.942 28.412C41.805 27.7324 41.4373 27.121 40.9011 26.6814C40.3649 26.2418 39.6933 26.0011 39 26H38V6H2V7.184C0.84 7.6 0 8.7 0 10C0 11.3 0.84 12.4 2 12.816V32C2 32.5304 2.21071 33.0391 2.58579 33.4142C2.96086 33.7893 3.46957 34 4 34H24C24 34.82 24.084 42 27 42H39C40.454 42 41.668 40.962 41.942 39.588L48 42V26L41.942 28.412Z" fill="url(#paint1_linear_601_6614)"/>
<defs>
<linearGradient id="paint0_linear_601_6614" x1="12.448" y1="6.448" x2="34.15" y2="28.15" gradientUnits="userSpaceOnUse">
<stop stop-color="#010101" stop-opacity="0.1"/>
<stop offset="1" stop-color="#010101" stop-opacity="0"/>
</linearGradient>
<linearGradient id="paint1_linear_601_6614" x1="-0.372" y1="10.138" x2="51.564" y2="34.356" gradientUnits="userSpaceOnUse">
<stop stop-color="white" stop-opacity="0.2"/>
<stop offset="1" stop-color="white" stop-opacity="0"/>
</linearGradient>
</defs>
</svg>
