<svg width="48" height="48" viewBox="0 0 48 48" fill="none" xmlns="http://www.w3.org/2000/svg">
<mask id="mask0_553_6584" style="mask-type:alpha" maskUnits="userSpaceOnUse" x="0" y="0" width="48" height="48">
<rect width="48" height="48" fill="#D9D9D9"/>
</mask>
<g mask="url(#mask0_553_6584)">
<path d="M19.231 26.8845H21.231V19.231H19.231V26.8845ZM11.654 24.654C10.2743 23.964 9.15383 22.9773 8.2925 21.694C7.43083 20.4107 7 18.996 7 17.45C7 15.386 7.72367 13.6283 9.171 12.177C10.6187 10.7257 12.3745 10 14.4385 10C14.8322 10 15.234 10.0333 15.644 10.1C16.0543 10.1667 16.4563 10.25 16.85 10.35L17.196 10.427L17.3885 10.119C18.1192 8.90633 19.055 7.91667 20.196 7.15C21.337 6.38333 22.605 6 24 6C25.395 6 26.663 6.38333 27.804 7.15C28.945 7.91667 29.8937 8.90633 30.65 10.119L30.8425 10.427L31.15 10.35C31.531 10.25 31.9122 10.1667 32.2935 10.1C32.6745 10.0333 33.0715 10 33.4845 10C35.5742 10 37.3492 10.7252 38.8095 12.1755C40.2698 13.6258 41 15.3968 41 17.4885C41 19.0345 40.5757 20.4428 39.727 21.7135C38.8783 22.9838 37.7513 23.9612 36.346 24.6455V34.4615H11.654V24.654ZM26.8075 26.8845H28.8075V19.231H26.8075V26.8845ZM13.654 32.4615H34.346V23.3575L35.969 22.5655C36.9127 22.1065 37.6602 21.4277 38.2115 20.529C38.7628 19.6303 39.0385 18.6428 39.0385 17.5665C39.0385 16.0078 38.4865 14.6905 37.3825 13.6145C36.2788 12.5382 34.9538 12 33.4075 12C33.0665 12 32.7397 12.027 32.427 12.081C32.114 12.1347 31.8037 12.2115 31.496 12.3115L29.9155 12.769L28.9425 11.131C28.3988 10.2103 27.7007 9.45833 26.848 8.875C25.9953 8.29167 25.0523 8 24.019 8C22.9857 8 22.0428 8.29167 21.1905 8.875C20.3378 9.45833 19.6397 10.2103 19.096 11.131L18.123 12.769L16.4925 12.3115C16.1848 12.2192 15.8727 12.1442 15.556 12.0865C15.2393 12.0288 14.9143 12 14.581 12C13.0347 12 11.718 12.5352 10.631 13.6055C9.54367 14.6762 9 15.9865 9 17.5365C9 18.6072 9.274 19.5893 9.822 20.483C10.37 21.3767 11.119 22.0708 12.069 22.5655L13.654 23.3575V32.4615ZM11.654 34.4615H13.654V40H34.346V34.4615H36.346V42H11.654V34.4615Z" fill="#828282"/>
</g>
</svg>
