<svg width="36" height="36" viewBox="0 0 36 36" fill="none" xmlns="http://www.w3.org/2000/svg">
<path d="M32.7997 12.7499L31.4227 11.3729L32.3842 10.3614C32.6405 10.1051 32.7687 9.81655 32.7687 9.49588C32.7687 9.17555 32.6405 8.88722 32.3842 8.63088L27.3687 3.61538C27.1124 3.35905 26.824 3.23088 26.5037 3.23088C26.183 3.23088 25.8945 3.35905 25.6382 3.61538L24.6267 4.57688L23.1997 3.14988L24.3152 1.98438C24.9022 1.39738 25.6214 1.11222 26.4727 1.12888C27.324 1.14555 28.0434 1.44738 28.6307 2.03438L33.9652 7.36888C34.5522 7.95622 34.8457 8.66722 34.8457 9.50188C34.8457 10.3365 34.5522 11.0474 33.9652 11.6344L32.7997 12.7499ZM11.6842 33.9154C11.0972 34.5024 10.3864 34.7959 9.55169 34.7959C8.71702 34.7959 8.00602 34.5024 7.41869 33.9154L2.23819 28.7344C1.62519 28.1217 1.31869 27.3595 1.31869 26.4479C1.31869 25.5365 1.62519 24.7744 2.23819 24.1614L3.19969 23.1999L4.62669 24.6269L3.65369 25.5884C3.39702 25.8447 3.26869 26.1332 3.26869 26.4539C3.26869 26.7742 3.39702 27.0626 3.65369 27.3189L8.68069 32.3459C8.93702 32.6026 9.22535 32.7309 9.54569 32.7309C9.86635 32.7309 10.1549 32.6026 10.4112 32.3459L11.3727 31.3729L12.7997 32.7999L11.6842 33.9154ZM31.1497 20.3074L33.4227 18.0344C33.679 17.7781 33.8072 17.4832 33.8072 17.1499C33.8072 16.8166 33.679 16.5217 33.4227 16.2654L19.7342 2.57688C19.4779 2.32055 19.183 2.19238 18.8497 2.19238C18.5164 2.19238 18.2215 2.32055 17.9652 2.57688L15.6922 4.84988C15.4355 5.10622 15.3072 5.39472 15.3072 5.71538C15.3072 6.03572 15.4355 6.32422 15.6922 6.58088L29.4187 20.3074C29.6754 20.5641 29.9639 20.6924 30.2842 20.6924C30.6049 20.6924 30.8934 20.5641 31.1497 20.3074ZM18.0342 33.4229L20.3072 31.1384C20.5639 30.8821 20.6922 30.5936 20.6922 30.2729C20.6922 29.9526 20.5639 29.6641 20.3072 29.4074L6.59219 15.6924C6.33552 15.4357 6.04702 15.3074 5.72669 15.3074C5.40602 15.3074 5.11752 15.4357 4.86119 15.6924L2.57669 17.9654C2.32035 18.2217 2.19219 18.5166 2.19219 18.8499C2.19219 19.1832 2.32035 19.4781 2.57669 19.7344L16.2652 33.4229C16.5215 33.6792 16.8164 33.8074 17.1497 33.8074C17.483 33.8074 17.7779 33.6792 18.0342 33.4229ZM16.6187 22.8769L22.8882 16.6189L19.3807 13.1114L13.1227 19.3809L16.6187 22.8769ZM19.4227 34.8384C18.81 35.4511 18.0524 35.7574 17.1497 35.7574C16.247 35.7574 15.4894 35.4511 14.8767 34.8384L1.16119 21.1229C0.548521 20.5102 0.242188 19.7526 0.242188 18.8499C0.242188 17.9472 0.548521 17.1896 1.16119 16.5769L3.43419 14.2654C4.04719 13.6524 4.80935 13.3459 5.72069 13.3459C6.63235 13.3459 7.39452 13.6524 8.00719 14.2654L11.6957 17.9539L17.9652 11.6844L14.2767 8.00739C13.6637 7.39472 13.3572 6.63072 13.3572 5.71538C13.3572 4.80005 13.6637 4.03589 14.2767 3.42289L16.5882 1.11138C17.2009 0.498716 17.963 0.192383 18.8747 0.192383C19.7864 0.192383 20.5485 0.498716 21.1612 1.11138L34.8882 14.8384C35.5009 15.4511 35.8072 16.2132 35.8072 17.1249C35.8072 18.0366 35.5009 18.7987 34.8882 19.4114L32.5767 21.7229C31.9637 22.3359 31.1995 22.6424 30.2842 22.6424C29.3689 22.6424 28.6049 22.3359 27.9922 21.7229L24.3152 18.0344L18.0457 24.3039L21.7342 27.9924C22.3472 28.6051 22.6537 29.3672 22.6537 30.2789C22.6537 31.1902 22.3472 31.9524 21.7342 32.5654L19.4227 34.8384Z" fill="#828282"/>
</svg>
