<svg width="42" height="32" viewBox="0 0 42 32" fill="none" xmlns="http://www.w3.org/2000/svg">
<path d="M0.299805 30L6.87981 17.104C7.12747 16.632 7.48414 16.2525 7.9498 15.9655C8.41547 15.6782 8.91797 15.5345 9.4573 15.5345C10.0313 15.5345 10.5581 15.694 11.0378 16.013C11.5178 16.332 11.877 16.7635 12.1153 17.3075L13.6768 20.996C13.9281 21.532 14.3831 21.7753 15.0418 21.726C15.7005 21.6763 16.1211 21.3868 16.3038 20.8575L20.6573 6.6115C21.0986 5.22683 21.9076 4.11283 23.0843 3.2695C24.2613 2.42583 25.5828 2.004 27.0488 2.004C28.4855 2.004 29.7898 2.4095 30.9618 3.2205C32.1338 4.03117 32.9516 5.12817 33.4153 6.5115L35.3073 11.8385C34.9606 11.9525 34.6313 12.1005 34.3193 12.2825C34.0073 12.4648 33.7175 12.6783 33.4498 12.923L33.3038 13.019L31.2458 7.253C30.9408 6.346 30.396 5.6225 29.6113 5.0825C28.8266 4.54283 27.962 4.273 27.0173 4.273C26.0723 4.273 25.2106 4.54283 24.4323 5.0825C23.6543 5.6225 23.1255 6.345 22.8458 7.25L18.4923 21.5155C18.251 22.2795 17.8055 22.8962 17.1558 23.3655C16.5058 23.8345 15.767 24.069 14.9393 24.069C14.2163 24.069 13.5476 23.8697 12.9333 23.471C12.3186 23.0723 11.8741 22.5345 11.5998 21.8575L9.91931 17.9115C9.81664 17.7065 9.6403 17.6007 9.3903 17.594C9.1403 17.5877 8.95764 17.6872 8.84231 17.8925L2.7728 30H0.299805ZM24.6538 32V26.7155L35.5113 15.9075C35.76 15.6718 36.0285 15.5002 36.3168 15.3925C36.6051 15.2848 36.8935 15.231 37.1818 15.231C37.4965 15.231 37.8006 15.2898 38.0943 15.4075C38.3883 15.5255 38.6555 15.7025 38.8958 15.9385L40.7458 17.8075C40.9818 18.0565 41.1536 18.3258 41.2613 18.6155C41.369 18.9052 41.4228 19.1948 41.4228 19.4845C41.4228 19.7742 41.3606 20.069 41.2363 20.369C41.112 20.669 40.9398 20.9433 40.7198 21.192L29.9383 32H24.6538ZM27.0383 29.6155H28.9383L35.4303 23.092L34.5303 22.1225L33.5803 21.204L27.0383 27.7155V29.6155ZM34.5303 22.1225L33.5803 21.204L35.4303 23.092L34.5303 22.1225ZM9.2008 10.4155C7.7668 10.4155 6.54147 9.9095 5.5248 8.8975C4.50814 7.88583 3.9998 6.6575 3.9998 5.2125C3.9998 3.7915 4.50747 2.5675 5.52281 1.5405C6.53814 0.5135 7.77247 0 9.22581 0C10.6428 0 11.862 0.513001 12.8833 1.539C13.9046 2.565 14.4153 3.78683 14.4153 5.2045C14.4153 6.65784 13.9046 7.88967 12.8833 8.9C11.862 9.91033 10.6345 10.4155 9.2008 10.4155ZM9.2238 8.146C10.0448 8.146 10.7371 7.86233 11.3008 7.295C11.8641 6.72767 12.1458 6.03483 12.1458 5.2165C12.1458 4.3875 11.8641 3.689 11.3008 3.121C10.7371 2.55333 10.0448 2.2695 9.2238 2.2695C8.4028 2.2695 7.70514 2.55 7.1308 3.111C6.55647 3.672 6.2693 4.37333 6.2693 5.215C6.2693 6.041 6.55647 6.736 7.1308 7.3C7.70514 7.864 8.4028 8.146 9.2238 8.146Z" fill="#828282"/>
</svg>
