<svg width="28" height="40" viewBox="0 0 28 40" fill="none" xmlns="http://www.w3.org/2000/svg">
<path d="M14 39.1539C12.9693 39.1539 12.0847 38.8039 11.346 38.1039C10.6077 37.4039 10.2128 36.5384 10.1615 35.5074H17.8385C17.7872 36.5384 17.3923 37.4039 16.654 38.1039C15.9153 38.8039 15.0307 39.1539 14 39.1539ZM6.4195 31.9269V29.6574H21.5805V31.9269H6.4195ZM6.554 26.1269C4.53333 24.7705 2.93583 23.0974 1.7615 21.1074C0.587166 19.1177 0 16.8755 0 14.3809C0 10.5575 1.3775 7.26836 4.1325 4.51336C6.88783 1.75836 10.177 0.380859 14 0.380859C17.823 0.380859 21.1122 1.75836 23.8675 4.51336C26.6225 7.26836 28 10.5575 28 14.3809C28 16.8755 27.418 19.1177 26.254 21.1074C25.0897 23.0974 23.487 24.7705 21.446 26.1269H6.554ZM7.3655 23.8574H20.6655C22.2398 22.7907 23.4777 21.4267 24.379 19.7654C25.28 18.1037 25.7305 16.3089 25.7305 14.3809C25.7305 11.1449 24.5845 8.38069 22.2925 6.08836C20.0002 3.79603 17.236 2.64986 14 2.64986C10.764 2.64986 7.99983 3.79603 5.7075 6.08836C3.4155 8.38069 2.2695 11.1449 2.2695 14.3809C2.2695 16.3089 2.72 18.1037 3.621 19.7654C4.52233 21.4267 5.7705 22.7907 7.3655 23.8574Z" fill="#828282"/>
</svg>
