<svg width="38" height="38" viewBox="0 0 38 38" fill="none" xmlns="http://www.w3.org/2000/svg">
<path d="M11.4267 21.231L15.0807 23.673L19.0092 21.704L22.8882 23.723L26.5612 21.2615L24.2882 16.6155C24.2369 16.5128 24.1599 16.4295 24.0572 16.3655C23.9549 16.3015 23.8459 16.2695 23.7302 16.2695H14.2382C14.1229 16.2695 14.0171 16.3015 13.9207 16.3655C13.8247 16.4295 13.7511 16.5128 13.6997 16.6155L11.4267 21.231ZM4.27273 35.7305H33.7072L27.5652 23.327L23.0807 26.327L18.9997 24.296L14.9187 26.277L10.3842 23.277L4.27273 35.7305ZM0.615234 38L11.6537 15.573C11.9074 15.0987 12.2656 14.718 12.7282 14.431C13.1906 14.1437 13.6939 14 14.2382 14H17.8652V0H29.6037L28.0542 3.1345L29.6037 6.2695H20.1342V14H23.6112C24.1566 14 24.6542 14.1437 25.1042 14.431C25.5542 14.718 25.9014 15.1052 26.1457 15.5925L37.3842 38H0.615234Z" fill="#828282"/>
</svg>
