<svg width="32" height="36" viewBox="0 0 32 36" fill="none" xmlns="http://www.w3.org/2000/svg">
<path d="M9.946 34H21.977C22.3103 34 22.5923 33.9038 22.823 33.7115C23.0537 33.5191 23.2203 33.282 23.323 33L25.631 23.8075H6.2925L8.6 33C8.70267 33.282 8.86933 33.5191 9.1 33.7115C9.33067 33.9038 9.61267 34 9.946 34ZM9.946 36C9.16667 36 8.47833 35.768 7.881 35.304C7.28333 34.8396 6.88067 34.2345 6.673 33.4885L4.231 23.8075H27.6925L25.25 33.4885C25.0423 34.2088 24.6398 34.8075 24.0425 35.2845C23.4448 35.7615 22.7563 36 21.977 36H9.946ZM3.3845 21.8075H28.6155C29.0258 21.8075 29.3592 21.6793 29.6155 21.423C29.8718 21.1666 30 20.8461 30 20.4615V17.0385H2V20.4615C2 20.8461 2.13467 21.1666 2.404 21.423C2.673 21.6793 2.99983 21.8075 3.3845 21.8075ZM15.9615 10.231C15.9615 7.74363 16.8435 5.61797 18.6075 3.85397C20.3718 2.08963 22.5013 0.922965 24.996 0.353965C25.137 0.320632 25.2678 0.324464 25.3885 0.365464C25.5088 0.406464 25.623 0.476963 25.731 0.576963C25.8387 0.676963 25.911 0.789132 25.948 0.913465C25.9853 1.0378 25.9873 1.17046 25.954 1.31146C25.4077 3.53446 24.3327 5.44796 22.729 7.05196C21.125 8.65563 19.2025 9.68696 16.9615 10.146V15.0385H30.3845C30.8488 15.0385 31.2342 15.1916 31.5405 15.498C31.8468 15.8043 32 16.1896 32 16.654V20.4615C32 21.3821 31.666 22.17 30.998 22.825C30.33 23.48 29.5358 23.8075 28.6155 23.8075H3.3845C2.46417 23.8075 1.67 23.48 1.002 22.825C0.334 22.17 0 21.3821 0 20.4615V16.654C0 16.1896 0.153167 15.8043 0.4595 15.498C0.765833 15.1916 1.15117 15.0385 1.6155 15.0385H14.9615V10.146C12.7205 9.68696 10.798 8.65563 9.194 7.05196C7.59033 5.44796 6.51533 3.53446 5.969 1.31146C5.93567 1.17046 5.93767 1.0378 5.975 0.913465C6.01233 0.789132 6.08483 0.676963 6.1925 0.576963C6.30017 0.476963 6.41417 0.406464 6.5345 0.365464C6.65517 0.324464 6.786 0.320632 6.927 0.353965C9.42167 0.922965 11.5512 2.08963 13.3155 3.85397C15.0795 5.61797 15.9615 7.74363 15.9615 10.231Z" fill="#828282"/>
</svg>
