<svg width="42" height="48" viewBox="0 0 42 48" fill="none" xmlns="http://www.w3.org/2000/svg">
<path opacity="0.5" fill-rule="evenodd" clip-rule="evenodd" d="M30.6847 0.26415C30.2388 0.711418 30.3028 0.876201 31.3784 2.04653C32.2506 2.99533 32.323 3.1621 31.9852 3.44334C31.6603 3.71368 31.4597 3.62374 30.6756 2.85582C29.6713 1.87233 29.1428 1.7358 28.6492 2.33248C28.3801 2.65759 28.4953 2.88308 29.4064 3.81429L30.4811 4.91251L28.4083 6.83811C27.2684 7.89694 26.1635 8.74563 25.953 8.72358C25.7428 8.70177 25.0703 8.49139 24.4588 8.25624C22.8406 7.63428 20.011 7.68681 18.2324 8.37146C16.5539 9.01795 14.326 10.9208 14.3373 11.6981C14.3415 11.992 14.5083 12.4492 14.7079 12.7135C15.2023 13.369 15.1548 14.7484 14.5957 15.9834C13.5408 18.3134 11.0663 20.1206 8.93068 20.1206C7.80632 20.1206 7.82682 20.135 6.42699 18.3863C6.09445 17.9707 5.44246 18.2108 4.06313 19.2563C1.43368 21.2498 0 24.1847 0 27.575C0 29.5236 0.620118 31.9659 1.46358 33.3389C1.87394 34.0067 1.89469 34.1698 1.60069 34.4143C0.804671 35.0769 0.904729 35.6689 2.00266 36.7909C3.16136 37.9751 3.55369 38.0941 4.24101 37.4704C4.66274 37.0875 4.80258 37.1125 6.41587 37.8584C8.70882 38.9185 10.9427 39.2845 12.8967 38.92C16.0176 38.3379 18.7004 36.5166 20.1884 33.97L20.8271 32.877L19.762 31.957C18.7886 31.1159 18.6982 30.9398 18.7137 29.9089C18.7545 27.2142 21.3634 24.3068 24.1404 23.8615C24.944 23.7327 25.4036 23.8115 26.1616 24.2077L27.1424 24.7204L27.8388 24.178C28.9523 23.3104 29.3805 22.742 30.2054 21.0352C30.8833 19.6329 30.9797 19.1797 30.9686 17.4422C30.9597 16.0308 30.8045 15.0654 30.4342 14.1146C30.1474 13.3779 29.9917 12.6412 30.0886 12.4774C30.1854 12.3136 31.0508 11.3281 32.0114 10.2877L33.7581 8.3955L34.482 9.15845C35.489 10.2195 36.0204 10.4765 36.457 10.1132C37.024 9.64116 36.8755 9.09774 35.9078 8.1036C35.1313 7.3062 35.0497 7.11911 35.3302 6.78013C35.6212 6.42851 35.7716 6.49839 36.7102 7.42216C37.7815 8.47677 38.39 8.57961 38.7037 7.75966C38.8036 7.49898 38.4928 6.99348 37.7938 6.27934L36.7325 5.1945L37.6369 4.19069C38.1343 3.63836 38.5412 2.98715 38.5412 2.74333C38.5412 2.15531 36.5511 0.214591 35.948 0.214591C35.6872 0.214591 35.052 0.627911 34.5361 1.13291L33.5988 2.05099L32.5399 1.00902C31.4116 -0.101841 31.1531 -0.205667 30.6847 0.26415ZM36.4703 2.5555C36.5585 2.78619 34.2947 5.43585 30.1152 9.99327L23.6228 17.0722L22.6795 16.1485C21.7805 15.2678 21.7567 15.2046 22.1711 14.7938C24.7323 12.2546 35.7758 2.21552 36.0165 2.2076C36.1907 2.20165 36.395 2.35825 36.4703 2.5555ZM24.1885 9.86615C24.7726 10.1796 24.7486 10.2128 22.2724 12.5294C20.893 13.8197 19.7647 15.0084 19.7647 15.1709C19.7647 15.5994 23.2915 19.0479 23.7236 19.0417C23.9242 19.039 25.0799 17.9289 26.2918 16.5752C27.5038 15.2212 28.5837 14.1683 28.6914 14.2352C29.0252 14.4419 29.3973 16.1353 29.3985 17.4541C29.4005 19.1066 28.8169 20.7634 27.8297 21.9087C27.1026 22.7522 26.9793 22.8079 26.4583 22.5284C25.4251 21.9738 23.5309 22.1703 21.8338 23.0084C19.1421 24.3375 17.0471 27.3839 17.0471 29.9689C17.0471 31.0617 17.8006 32.767 18.4424 33.1273C18.7965 33.326 18.6898 33.5332 17.6726 34.624C17.0231 35.3203 15.8664 36.1979 15.1017 36.5748C13.864 37.1847 13.4415 37.2595 11.2412 37.258C9.17404 37.2565 8.55812 37.1601 7.46982 36.6683C5.91286 35.9645 5.79699 36.1734 9.43023 33.136C10.902 31.9057 12.1059 30.7222 12.1059 30.5056C12.1059 30.0603 8.883 26.7285 8.45213 26.7285C8.11045 26.7285 7.69094 27.1723 5.11461 30.2596C4.00581 31.5885 3.02079 32.6756 2.92592 32.6756C2.8308 32.6756 2.49974 32.0343 2.19018 31.2507C1.7556 30.1505 1.62491 29.3165 1.61651 27.5906C1.60687 25.553 1.67778 25.209 2.41796 23.701C2.92394 22.6696 3.66141 21.6656 4.37541 21.0352L5.52078 20.024L6.34002 20.8204C7.03278 21.4939 7.38484 21.6331 8.62235 21.7228C9.81342 21.8093 10.3411 21.7117 11.4586 21.1987C14.4253 19.8364 16.6352 16.8183 16.6352 14.1287C16.6352 13.3573 16.506 12.4836 16.3476 12.187C16.0924 11.7085 16.1641 11.5618 16.986 10.8791C17.4952 10.4562 18.4121 9.94743 19.0235 9.74895C20.3282 9.32522 23.3065 9.39262 24.1885 9.86615ZM37.9235 19.5043C37.2898 19.9179 22.047 35.1914 17.6714 39.7974L16.2021 41.3441L16.6683 42.7196L17.1345 44.0951L15.708 45.5408C14.2452 47.0236 13.9914 47.819 14.9241 47.9991C15.2645 48.0648 18.963 44.5052 28.6946 34.7459C36.0125 27.407 42 21.228 42 21.0146C42 20.801 41.6788 20.3178 41.2865 19.9407C40.3393 19.0306 38.93 18.8477 37.9235 19.5043ZM40.0235 20.9663C40.0235 21.1921 18.7199 42.5873 18.4951 42.5873C18.4071 42.5873 18.2626 42.3977 18.1741 42.1661C17.9471 41.5731 38.6494 20.7815 39.4667 20.7815C39.773 20.7815 40.0235 20.8647 40.0235 20.9663ZM9.80008 23.4247C9.35612 23.8697 9.83146 24.5796 12.073 26.8197C14.5268 29.2714 15.3191 29.6832 15.5244 28.6132C15.586 28.2936 14.8589 27.3896 13.185 25.7044C10.9516 23.4561 10.2438 22.9794 9.80008 23.4247ZM9.18935 29.6245C9.57056 29.9907 9.88235 30.3666 9.88235 30.46C9.88235 30.5535 8.53761 31.7733 6.89393 33.1709C4.08265 35.5616 3.08824 36.165 3.08824 35.4803C3.08824 35.1969 8.15195 28.9587 8.38221 28.9587C8.44497 28.9587 8.80839 29.2582 9.18935 29.6245Z" fill="black"/>
</svg>
