<svg width="34" height="34" viewBox="0 0 34 34" fill="none" xmlns="http://www.w3.org/2000/svg">
<g clip-path="url(#clip0_610_627)">
<path d="M21.2764 12.6247C23.6928 15.0411 23.6928 18.9587 21.2764 21.3751C18.8601 23.7914 14.9424 23.7914 12.5261 21.3751C10.1098 18.9587 10.1098 15.0411 12.5261 12.6247C14.9424 10.2084 18.8601 10.2084 21.2764 12.6247Z" fill="#818180"/>
<path d="M24.1198 0.500244H9.68249C4.56457 0.500244 0.401367 4.66344 0.401367 9.78136V24.2187C0.401367 29.3366 4.56457 33.4998 9.68249 33.4998H24.1198C29.2377 33.4998 33.4009 29.3366 33.4009 24.2187V9.78136C33.4009 4.66344 29.2377 0.500244 24.1198 0.500244ZM16.9011 25.2499C12.3522 25.2499 8.65125 21.5499 8.65125 17C8.65125 12.4501 12.3522 8.75013 16.9011 8.75013C21.4501 8.75013 25.151 12.4501 25.151 17C25.151 21.5499 21.4501 25.2499 16.9011 25.2499ZM26.1823 8.75013C25.6128 8.75013 25.151 8.28839 25.151 7.71889C25.151 7.14927 25.6128 6.68766 26.1823 6.68766C26.7518 6.68766 27.2135 7.14927 27.2135 7.71889C27.2135 8.28839 26.7518 8.75013 26.1823 8.75013Z" fill="#818180"/>
</g>
<defs>
<clipPath id="clip0_610_627">
<rect width="32.9995" height="32.9995" fill="white" transform="translate(0.401367 0.500244)"/>
</clipPath>
</defs>
</svg>
