<svg width="33" height="34" viewBox="0 0 33 34" fill="none" xmlns="http://www.w3.org/2000/svg">
<path d="M30.5763 0.500231H2.62566C2.31147 0.495867 1.9995 0.553438 1.70756 0.669657C1.41562 0.785875 1.14943 0.958463 0.924201 1.17757C0.69897 1.39667 0.519105 1.65799 0.394879 1.94662C0.270653 2.23524 0.204499 2.54551 0.200195 2.8597V31.1403C0.204499 31.4545 0.270653 31.7648 0.394879 32.0534C0.519105 32.342 0.69897 32.6033 0.924201 32.8224C1.14943 33.0415 1.41562 33.2141 1.70756 33.3303C1.9995 33.4466 2.31147 33.5041 2.62566 33.4998H30.5763C30.8905 33.5041 31.2024 33.4466 31.4944 33.3303C31.7863 33.2141 32.0525 33.0415 32.2777 32.8224C32.503 32.6033 32.6828 32.342 32.8071 32.0534C32.9313 31.7648 32.9974 31.4545 33.0017 31.1403V2.8597C32.9974 2.54551 32.9313 2.23524 32.8071 1.94662C32.6828 1.65799 32.503 1.39667 32.2777 1.17757C32.0525 0.958463 31.7863 0.785875 31.4944 0.669657C31.2024 0.553438 30.8905 0.495867 30.5763 0.500231ZM10.1496 28.1208H5.19963V13.2711H10.1496V28.1208ZM7.67459 11.1921C6.99193 11.1921 6.33723 10.9209 5.85452 10.4382C5.37181 9.95547 5.10063 9.30077 5.10063 8.61812C5.10063 7.93546 5.37181 7.28076 5.85452 6.79805C6.33723 6.31534 6.99193 6.04415 7.67459 6.04415C8.03708 6.00304 8.40417 6.03896 8.75182 6.14956C9.09947 6.26016 9.41984 6.44294 9.69195 6.68593C9.96406 6.92893 10.1818 7.22666 10.3308 7.55963C10.4799 7.8926 10.557 8.2533 10.557 8.61812C10.557 8.98293 10.4799 9.34363 10.3308 9.67661C10.1818 10.0096 9.96406 10.3073 9.69195 10.5503C9.41984 10.7933 9.09947 10.9761 8.75182 11.0867C8.40417 11.1973 8.03708 11.2332 7.67459 11.1921ZM28.0023 28.1208H23.0524V20.1515C23.0524 18.155 22.3429 16.8515 20.5444 16.8515C19.9878 16.8556 19.4458 17.0302 18.9915 17.3517C18.5372 17.6733 18.1923 18.1264 18.0034 18.65C17.8743 19.0378 17.8184 19.4462 17.8384 19.8545V28.1043H12.8885C12.8885 28.1043 12.8885 14.6075 12.8885 13.2546H17.8384V15.35C18.2881 14.5698 18.9421 13.9269 19.73 13.4908C20.518 13.0547 21.4099 12.8418 22.3099 12.8751C25.6098 12.8751 28.0023 15.0035 28.0023 19.574V28.1208Z" fill="#818180"/>
</svg>
