<svg width="90" height="24" viewBox="0 0 90 24" fill="none" xmlns="http://www.w3.org/2000/svg">
<g opacity="0.5">
<path d="M80.2471 0.389053H83.6006V2.65283C83.6826 2.56659 83.7544 2.48035 83.8159 2.39411C83.898 2.30787 83.98 2.22163 84.0621 2.13539C84.5748 1.61796 85.1389 1.18676 85.7542 0.841807C86.7592 0.281253 87.9181 0.000976562 89.2308 0.000976562V3.72003C87.8155 3.72003 86.5951 4.17279 85.5696 5.0783C85.0773 5.53105 84.6774 6.07005 84.3697 6.69528C84.0621 7.32051 83.8672 8.0212 83.7852 8.79736V16.5589H80.2471V0.389053Z" fill="black"/>
<path d="M64.8217 0.389053V2.29709C64.9038 2.18929 64.9858 2.08149 65.0679 1.97369C65.1704 1.8659 65.2627 1.76888 65.3448 1.68264C66.4318 0.561531 67.8573 0.000976562 69.6212 0.000976562C71.8159 0.000976562 73.6311 0.820247 75.0668 2.45879C76.5026 4.09733 77.2205 6.10239 77.2205 8.47396C77.2205 10.824 76.5026 12.829 75.0668 14.4891C73.6311 16.1277 71.8159 16.9469 69.6212 16.9469C67.9599 16.9469 66.5959 16.3972 65.5294 15.2976C65.4678 15.2329 65.4063 15.1683 65.3448 15.1036C65.2832 15.0173 65.2217 14.9311 65.1602 14.8449V23.0268H61.6221V0.389053H64.8217ZM69.3443 13.2602C70.5955 13.2602 71.6313 12.7967 72.4517 11.8696C73.2516 10.9426 73.6516 9.81067 73.6516 8.47396C73.6516 7.1157 73.2516 5.97303 72.4517 5.04596C71.6313 4.14045 70.5955 3.68769 69.3443 3.68769C68.1137 3.68769 67.1087 4.14045 66.3293 5.04596C65.5499 5.97303 65.1602 7.1157 65.1602 8.47396C65.1602 9.81067 65.5499 10.9426 66.3293 11.8696C67.1087 12.7967 68.1137 13.2602 69.3443 13.2602Z" fill="black"/>
<path d="M57.921 3.29976L54.5982 4.52866C54.4752 4.16215 54.2496 3.87109 53.9214 3.65549C53.5727 3.46146 53.183 3.36444 52.7523 3.36444C52.4651 3.36444 52.2087 3.40756 51.9831 3.49379C51.7575 3.55847 51.5627 3.66627 51.3986 3.81719C51.0704 4.11903 50.9166 4.48554 50.9371 4.91674C50.9576 5.49885 51.4293 5.93005 52.3523 6.21032C52.5779 6.275 52.7933 6.33968 52.9984 6.40436C53.2035 6.44748 53.3984 6.50138 53.583 6.56606C54.9777 6.91102 56.0545 7.43923 56.8134 8.1507C57.8594 9.12089 58.3825 10.339 58.3825 11.8051C58.362 13.4221 57.7569 14.7156 56.5673 15.6858C56.075 16.0955 55.5007 16.4081 54.8444 16.6237C54.188 16.8393 53.4599 16.9471 52.66 16.9471C51.3473 16.9255 50.1884 16.6129 49.1834 16.0092C48.1784 15.4056 47.4503 14.5432 46.999 13.4221L50.3525 12.1608C50.7627 13.0663 51.4909 13.5191 52.5369 13.5191C53.2343 13.5191 53.7778 13.3466 54.1675 13.0016C54.5777 12.6351 54.7828 12.1932 54.7828 11.6757C54.7623 11.0505 54.188 10.5546 53.0599 10.1881C52.8753 10.1019 52.6702 10.0264 52.4446 9.96172C52.2395 9.89704 52.0241 9.83236 51.7985 9.76768C51.1217 9.61677 50.5064 9.39039 49.9526 9.08855C49.4193 8.78671 48.9578 8.4202 48.5681 7.989C47.7887 7.16973 47.3887 6.13487 47.3682 4.8844C47.3682 3.39678 47.8912 2.21099 48.9373 1.32704C49.9628 0.44309 51.214 0.00111513 52.6907 0.00111513C54.0034 -0.0204443 55.111 0.270612 56.0135 0.874285C56.8749 1.43484 57.5108 2.24333 57.921 3.29976Z" fill="black"/>
<path d="M36.965 3.72052C35.7343 3.72052 34.719 4.17328 33.9191 5.07879C33.1192 6.00586 32.7192 7.13774 32.7192 8.47445C32.7192 9.78959 33.1192 10.9107 33.9191 11.8378C34.719 12.7648 35.7343 13.2284 36.965 13.2284C38.1956 13.2284 39.2109 12.7648 40.0108 11.8378C40.8107 10.9107 41.2107 9.78959 41.2107 8.47445C41.2107 7.13774 40.8107 6.00586 40.0108 5.07879C39.2109 4.17328 38.1956 3.72052 36.965 3.72052ZM36.965 0.00146484C39.1801 0.00146484 41.0261 0.820736 42.5029 2.45928C44.0001 4.09782 44.7488 6.10288 44.7488 8.47445C44.7488 10.8245 44.0001 12.8187 42.5029 14.4573C41.0261 16.1174 39.1801 16.9474 36.965 16.9474C34.7498 16.9474 32.9038 16.1174 31.4271 14.4573C29.9298 12.8187 29.1812 10.8245 29.1812 8.47445C29.1812 6.10288 29.9298 4.09782 31.4271 2.45928C32.9038 0.820736 34.7498 0.00146484 36.965 0.00146484Z" fill="black"/>
<path d="M18.6245 0.389053H21.978V2.65283C22.0601 2.56659 22.1318 2.48035 22.1934 2.39411C22.2754 2.30787 22.3575 2.22163 22.4395 2.13539C22.9523 1.61796 23.5163 1.18676 24.1316 0.841807C25.1367 0.281253 26.2955 0.000976562 27.6082 0.000976562V3.72003C26.193 3.72003 24.9726 4.17279 23.947 5.0783C23.4548 5.53105 23.0548 6.07005 22.7472 6.69528C22.4395 7.32051 22.2447 8.0212 22.1626 8.79736V16.5589H18.6245V0.389053Z" fill="black"/>
<path d="M3.19967 0.389541V2.29758C3.28171 2.18978 3.36375 2.08198 3.4458 1.97418C3.54835 1.86638 3.64065 1.76936 3.72269 1.68313C4.80976 0.562019 6.23525 0.00146484 7.99917 0.00146484C10.1938 0.00146484 12.009 0.820736 13.4448 2.45928C14.8805 4.09782 15.5984 6.10288 15.5984 8.47445C15.5984 10.8245 14.8805 12.8295 13.4448 14.4896C12.009 16.1282 10.1938 16.9474 7.99917 16.9474C6.33781 16.9474 4.97384 16.3977 3.90729 15.2981C3.84576 15.2334 3.78422 15.1688 3.72269 15.1041C3.66116 15.0178 3.59963 14.9316 3.5381 14.8454V23.0273H0V0.389541H3.19967ZM7.72228 13.2607C8.97343 13.2607 10.0092 12.7972 10.8296 11.8701C11.6296 10.943 12.0295 9.81115 12.0295 8.47445C12.0295 7.11618 11.6296 5.97352 10.8296 5.04645C10.0092 4.14094 8.97343 3.68818 7.72228 3.68818C6.49164 3.68818 5.48661 4.14094 4.70721 5.04645C3.9278 5.97352 3.5381 7.11618 3.5381 8.47445C3.5381 9.81115 3.9278 10.943 4.70721 11.8701C5.48661 12.7972 6.49164 13.2607 7.72228 13.2607Z" fill="black"/>
</g>
</svg>
