<svg width="34" height="34" viewBox="0 0 34 34" fill="none" xmlns="http://www.w3.org/2000/svg">
<g clip-path="url(#clip0_610_630)">
<mask id="mask0_610_630" style="mask-type:luminance" maskUnits="userSpaceOnUse" x="0" y="0" width="34" height="34">
<path d="M33.8003 0.500244H0.800781V33.4998H33.8003V0.500244Z" fill="white"/>
</mask>
<g mask="url(#mask0_610_630)">
<path d="M29.9332 0.500244H4.66791C2.53216 0.500244 0.800781 2.23162 0.800781 4.36738V29.6326C0.800781 31.7684 2.53216 33.4998 4.66791 33.4998H29.9332C32.0689 33.4998 33.8003 31.7684 33.8003 29.6326V4.36738C33.8003 2.23162 32.0689 0.500244 29.9332 0.500244Z" fill="#818180"/>
<path d="M23.7404 6.94556H27.1517L19.699 15.4636L28.4665 27.0547H21.6016L16.2247 20.0247L10.0724 27.0547H6.65903L14.6305 17.9437L6.21973 6.94556H13.2589L18.1191 13.3712L23.7404 6.94556ZM22.5431 25.0128H24.4334L12.2318 8.88015H10.2034L22.5431 25.0128Z" fill="white"/>
</g>
</g>
<defs>
<clipPath id="clip0_610_630">
<rect width="32.9995" height="32.9995" fill="white" transform="translate(0.800781 0.500244)"/>
</clipPath>
</defs>
</svg>
