<svg width="102" height="33" viewBox="0 0 102 33" fill="none" xmlns="http://www.w3.org/2000/svg">
<g opacity="0.5" clip-path="url(#clip0_500_5002)">
<path d="M100.172 5.80076C100.562 6.18079 100.756 6.66076 100.756 7.24093C100.756 7.81453 100.562 8.29121 100.172 8.67126C99.7818 9.0513 99.3047 9.24131 98.74 9.24133C98.1753 9.24133 97.6981 9.05132 97.3082 8.67129C96.9185 8.29125 96.7236 7.81457 96.7236 7.24098C96.7236 6.66081 96.9185 6.18083 97.3082 5.80078C97.6981 5.4205 98.1753 5.23047 98.74 5.23047C99.3047 5.23047 99.7818 5.42047 100.172 5.80076ZM99.9246 8.43114C100.251 8.11107 100.414 7.71434 100.414 7.24093C100.414 6.76097 100.251 6.36069 99.9246 6.04062C99.5987 5.72056 99.2037 5.56065 98.74 5.56066C98.2829 5.56066 97.8914 5.72057 97.5652 6.04064C97.2393 6.36072 97.0763 6.76099 97.0763 7.24097C97.0763 7.71438 97.2393 8.11111 97.5652 8.43117C97.8914 8.75123 98.2829 8.91139 98.74 8.91138C99.2037 8.91138 99.5987 8.75121 99.9246 8.43114ZM99.1029 7.46107L99.7178 8.1212H99.2945L98.7097 7.49094H98.357V8.12121H98.0141V6.2509L98.8609 6.25089C99.0894 6.25089 99.2725 6.30579 99.4106 6.41585C99.5482 6.52592 99.6171 6.67419 99.6171 6.86091C99.6171 7.18098 99.4457 7.38112 99.1029 7.46107ZM98.8609 7.1911C98.9821 7.1911 99.0795 7.16099 99.1534 7.10103C99.2272 7.04107 99.2642 6.96415 99.2642 6.87104C99.2642 6.77767 99.2272 6.70253 99.1534 6.64585C99.0795 6.58918 98.9821 6.56084 98.8609 6.56084H98.357V7.19112L98.8609 7.1911Z" fill="#1A1A1A"/>
<path d="M38.9588 28.2106C38.8544 28.296 38.7839 28.4115 38.7472 28.5569L38.6702 28.8787H39.5828L39.4728 29.3477H38.5658L38.0435 31.5837H37.4717L37.994 29.3477H37.5487L37.6586 28.8787H38.0984L38.1753 28.5569C38.2487 28.2442 38.3898 28.0024 38.5988 27.8315C38.8077 27.6606 39.0624 27.5752 39.3629 27.5752C39.5461 27.5752 39.6946 27.6079 39.8082 27.6734L39.6928 28.126C39.5755 28.0969 39.4545 28.0824 39.3299 28.0824C39.1869 28.0824 39.0633 28.125 38.9588 28.2106Z" fill="#1A1A1A"/>
<path d="M42.0463 29.2191C42.2991 29.4863 42.3926 29.8254 42.3266 30.2364C42.2642 30.6508 42.0782 30.9898 41.7686 31.2535C41.4588 31.517 41.1006 31.6488 40.6938 31.6488C40.2759 31.6488 39.9406 31.5161 39.6877 31.2509C39.4348 30.9854 39.3395 30.6472 39.4018 30.2364C39.4677 29.8217 39.6565 29.4818 39.968 29.2163C40.2796 28.9511 40.6388 28.8184 41.0457 28.8184C41.4598 28.8184 41.7934 28.952 42.0463 29.2191ZM41.3976 30.9018C41.6028 30.7308 41.7274 30.509 41.7712 30.2364C41.8154 29.9636 41.7613 29.74 41.6092 29.5654C41.4571 29.391 41.26 29.3036 41.0182 29.3036C40.7688 29.3036 40.5417 29.391 40.3365 29.5654C40.1313 29.74 40.0066 29.9636 39.9626 30.2364C39.9186 30.509 39.9727 30.7308 40.1248 30.9018C40.2769 31.0726 40.4775 31.1581 40.7268 31.1581C40.9686 31.1581 41.1923 31.0726 41.3976 30.9018Z" fill="#1A1A1A"/>
<path d="M45.0538 28.8674L44.8999 29.413C44.8706 29.4093 44.8193 29.4073 44.7459 29.4073C44.4126 29.4073 44.1347 29.5156 43.9131 29.732C43.6913 29.9482 43.5364 30.2473 43.4486 30.6292L43.2232 31.5835H42.6514L43.2781 28.8784H43.8553L43.7455 29.3584C44.0825 29.0166 44.4584 28.8457 44.8725 28.8457C44.9531 28.8457 45.0136 28.8531 45.054 28.8674H45.0538Z" fill="#1A1A1A"/>
<path d="M49.6254 29.0968C49.7922 29.2932 49.839 29.5476 49.7656 29.8603L49.3642 31.5837H48.7981L49.1717 29.9748C49.2159 29.7822 49.1929 29.6257 49.1032 29.5058C49.0133 29.3858 48.8804 29.3259 48.7046 29.3259C48.4809 29.3259 48.2885 29.3995 48.1273 29.5467C47.9661 29.6939 47.8488 29.9093 47.7755 30.193L47.4509 31.5837H46.8794L47.2531 29.9748C47.3008 29.7822 47.2796 29.6257 47.1899 29.5058C47.1001 29.3858 46.9672 29.3259 46.7914 29.3259C46.575 29.3259 46.389 29.3949 46.2333 29.533C46.0775 29.6712 45.9612 29.8748 45.8842 30.1439L45.5489 31.5837H44.9771L45.6039 28.8786H46.1757L46.0986 29.2004C46.3258 28.9349 46.6246 28.8022 46.9948 28.8022C47.211 28.8022 47.3961 28.8494 47.55 28.9441C47.7039 29.0386 47.8065 29.1695 47.8578 29.3367C48.1146 28.9803 48.4645 28.8022 48.9079 28.8022C49.2194 28.8022 49.4586 28.9003 49.6254 29.0968Z" fill="#1A1A1A"/>
<path d="M50.7388 30.4058C50.7388 30.6456 50.8048 30.8329 50.9367 30.9675C51.0686 31.102 51.2572 31.1693 51.5029 31.1693C51.8585 31.1693 52.137 31.0056 52.3386 30.6784L52.8443 30.8094C52.7124 31.082 52.5237 31.2919 52.2781 31.4393C52.0326 31.5866 51.7612 31.6601 51.4644 31.6601C51.0868 31.6601 50.7837 31.5482 50.5545 31.3246C50.3255 31.1011 50.2109 30.802 50.2109 30.4276C50.2109 29.9659 50.3739 29.5794 50.7002 29.2686C51.0264 28.9577 51.4022 28.8022 51.8273 28.8022C52.2305 28.8022 52.5429 28.9467 52.7646 29.2357C52.9864 29.525 53.0587 29.9021 52.9819 30.3675H50.7388V30.4058ZM51.1895 29.473C51.0209 29.6003 50.8982 29.7638 50.8212 29.9639H52.4924C52.4814 29.7457 52.4136 29.5777 52.2891 29.4596C52.1645 29.3411 51.9959 29.2821 51.7832 29.2821C51.556 29.2821 51.3581 29.3459 51.1895 29.473Z" fill="#1A1A1A"/>
<path d="M55.7306 28.8674L55.5766 29.413C55.5472 29.4093 55.496 29.4073 55.4227 29.4073C55.0893 29.4073 54.8115 29.5156 54.5898 29.732C54.3681 29.9482 54.2132 30.2473 54.1253 30.6292L53.9 31.5835H53.3281L53.9548 28.8784H54.5321L54.4222 29.3584C54.7593 29.0166 55.135 28.8457 55.5492 28.8457C55.6298 28.8457 55.6903 28.8531 55.7306 28.8674Z" fill="#1A1A1A"/>
<path d="M55.6045 31.5835L56.5225 27.6567H57.0944L56.1818 31.5835H55.6045Z" fill="#1A1A1A"/>
<path d="M57.8585 32.5111H57.2041L57.8749 31.5185L57.3306 28.8789H57.9299L58.3256 30.8532L59.6617 28.8789H60.2939L57.8585 32.5111Z" fill="#1A1A1A"/>
<path d="M63.3455 31.5837H62.7736L62.0479 27.9297H62.6581L63.197 30.793L65.0771 27.9297H65.7754L63.3455 31.5837Z" fill="#1A1A1A"/>
<path d="M67.8267 31.5837H67.2549L67.3209 31.3056C67.0606 31.5419 66.7363 31.6601 66.3477 31.6601C65.9812 31.6601 65.6862 31.5256 65.4627 31.2566C65.239 30.9875 65.1602 30.6439 65.2262 30.2257C65.2921 29.8039 65.4735 29.4613 65.7704 29.1976C66.0674 28.9339 66.41 28.8022 66.7986 28.8022C67.2824 28.8022 67.6104 28.9803 67.7826 29.3367L67.8871 28.8786H68.4588L67.8267 31.5837ZM67.1889 30.8993C67.3977 30.7266 67.5242 30.502 67.5684 30.2257C67.6122 29.9494 67.5581 29.7266 67.406 29.5576C67.2539 29.3885 67.0587 29.3039 66.8204 29.3039C66.5602 29.3039 66.3341 29.3885 66.1415 29.5576C65.949 29.7266 65.8291 29.9494 65.7816 30.2257C65.7339 30.5058 65.7805 30.7311 65.9217 30.9021C66.0627 31.0729 66.2616 31.1584 66.5182 31.1584C66.7564 31.1584 66.98 31.072 67.1889 30.8993Z" fill="#1A1A1A"/>
<path d="M71.5488 31.5835H70.8506L69.8335 30.4601H69.5421L69.2838 31.5835H68.7119L69.6247 27.6567H70.1964L69.6741 29.8984H69.828L71.2024 28.8784H71.983L70.2623 30.1819L71.5488 31.5835Z" fill="#1A1A1A"/>
<path d="M72.0488 31.5837L72.6755 28.8786H73.2474L72.6205 31.5837H72.0488ZM73.4123 27.815C73.4819 27.8841 73.5167 27.9677 73.5167 28.0659C73.5167 28.1678 73.4828 28.2514 73.4151 28.3168C73.3472 28.3823 73.2602 28.415 73.1539 28.415C73.0476 28.415 72.9605 28.3823 72.8927 28.3168C72.8248 28.2514 72.791 28.1678 72.791 28.0659C72.791 27.9677 72.8248 27.8841 72.8927 27.815C72.9605 27.746 73.0476 27.7114 73.1539 27.7114C73.2564 27.7114 73.3426 27.746 73.4123 27.815Z" fill="#1A1A1A"/>
<path d="M73.5337 31.5835L74.4516 27.6567H75.0234L74.111 31.5835H73.5337Z" fill="#1A1A1A"/>
<path d="M77.7098 28.9775C77.9017 29.1167 78.0096 29.3077 78.0336 29.5507L77.5479 29.645C77.5419 29.4949 77.4797 29.3733 77.3612 29.2805C77.2428 29.1877 77.0891 29.1413 76.9003 29.1413C76.7143 29.1413 76.5606 29.1849 76.4392 29.2723C76.3177 29.3596 76.257 29.4675 76.257 29.5958C76.257 29.6695 76.2818 29.7296 76.3314 29.776C76.3806 29.8224 76.464 29.8647 76.581 29.9029L77.0622 30.0462C77.5059 30.1773 77.7277 30.4052 77.7277 30.7301C77.7277 31.0003 77.6161 31.2173 77.3928 31.3811C77.1692 31.5449 76.8762 31.6268 76.5134 31.6268C76.1836 31.6268 75.9055 31.5559 75.6791 31.4138C75.4527 31.2719 75.3305 31.0672 75.3125 30.7998L75.8254 30.7055C75.8373 30.8802 75.9078 31.0139 76.0367 31.1068C76.1656 31.1996 76.338 31.246 76.554 31.246C76.7698 31.246 76.9392 31.203 77.0622 31.1171C77.185 31.0311 77.2465 30.9185 77.2465 30.7793C77.2465 30.7 77.2196 30.6352 77.1655 30.5847C77.1116 30.5341 77.0187 30.4885 76.8866 30.4475L76.4099 30.3083C76.2062 30.2455 76.0457 30.1664 75.9287 30.0708C75.8117 29.9753 75.7533 29.8361 75.7533 29.6533C75.7533 29.3938 75.865 29.1815 76.0884 29.0163C76.3118 28.8512 76.5989 28.7686 76.9497 28.7686C77.2646 28.7686 77.518 28.8382 77.7098 28.9775Z" fill="#1A1A1A"/>
<path d="M78.9492 30.4058C78.9492 30.6456 79.0152 30.8329 79.1472 30.9675C79.2791 31.102 79.4678 31.1693 79.7133 31.1693C80.0689 31.1693 80.3474 31.0056 80.5491 30.6784L81.0548 30.8094C80.9228 31.082 80.7342 31.2919 80.4887 31.4393C80.243 31.5866 79.9717 31.6601 79.6749 31.6601C79.2974 31.6601 78.9942 31.5482 78.7649 31.3246C78.536 31.1011 78.4214 30.802 78.4214 30.4276C78.4214 29.9659 78.5845 29.5794 78.9107 29.2686C79.2369 28.9577 79.6126 28.8022 80.0378 28.8022C80.441 28.8022 80.7534 28.9467 80.975 29.2357C81.1968 29.525 81.2693 29.9021 81.1923 30.3675H78.9492V30.4058ZM79.4001 29.473C79.2314 29.6003 79.1088 29.7638 79.0316 29.9639H80.7029C80.692 29.7457 80.6242 29.5777 80.4995 29.4596C80.375 29.3411 80.2063 29.2821 79.9938 29.2821C79.7664 29.2821 79.5686 29.3459 79.4001 29.473Z" fill="#1A1A1A"/>
<path d="M84.2217 31.5837H83.6499L83.7159 31.3056C83.4557 31.5419 83.1313 31.6601 82.7427 31.6601C82.3762 31.6601 82.0812 31.5256 81.8577 31.2566C81.634 30.9875 81.5552 30.6439 81.6212 30.2257C81.6872 29.8039 81.8687 29.4613 82.1655 29.1976C82.4624 28.9339 82.8051 28.8022 83.1936 28.8022C83.6774 28.8022 84.0054 28.9803 84.1776 29.3367L84.2821 28.8786H84.8538L84.2217 31.5837ZM83.5839 30.8993C83.7928 30.7266 83.9192 30.502 83.9634 30.2257C84.0072 29.9494 83.9532 29.7266 83.8011 29.5576C83.649 29.3885 83.4538 29.3039 83.2156 29.3039C82.9552 29.3039 82.7289 29.3885 82.5366 29.5576C82.3441 29.7266 82.2243 29.9494 82.1766 30.2257C82.1289 30.5058 82.1757 30.7311 82.3168 30.9021C82.4577 31.0729 82.6566 31.1584 82.9132 31.1584C83.1515 31.1584 83.375 31.072 83.5839 30.8993Z" fill="#1A1A1A"/>
<path d="M87.4987 28.8674L87.3447 29.413C87.3154 29.4093 87.264 29.4073 87.1908 29.4073C86.8571 29.4073 86.5796 29.5156 86.3579 29.732C86.1361 29.9482 85.9812 30.2473 85.8934 30.6292L85.6679 31.5835H85.0962L85.7227 28.8784H86.3L86.1902 29.3584C86.5274 29.0166 86.9031 28.8457 87.3171 28.8457C87.3978 28.8457 87.4584 28.8531 87.4987 28.8674Z" fill="#1A1A1A"/>
<path d="M89.203 30.9946C89.3532 30.9002 89.4687 30.7675 89.5494 30.5966L90.0937 30.6948C89.9727 30.9857 89.7811 31.2192 89.5191 31.3956C89.2571 31.572 88.9703 31.6601 88.6587 31.6601C88.2372 31.6601 87.9055 31.5265 87.6637 31.2592C87.4217 30.992 87.3336 30.6493 87.3996 30.2311C87.4656 29.8167 87.66 29.4748 87.9826 29.2059C88.3051 28.9368 88.6661 28.8022 89.0654 28.8022C89.3769 28.8022 89.6427 28.8886 89.8626 29.0613C90.0826 29.234 90.2108 29.464 90.2475 29.7512L89.6593 29.8658C89.6445 29.695 89.575 29.5622 89.4503 29.4676C89.3256 29.3731 89.1717 29.3259 88.9886 29.3259C88.7321 29.3259 88.5066 29.4104 88.3123 29.5794C88.1181 29.7486 87.999 29.9659 87.955 30.2311C87.9147 30.5003 87.9651 30.7183 88.1062 30.8856C88.2473 31.053 88.4462 31.1366 88.7027 31.1366C88.8859 31.1366 89.0526 31.0892 89.203 30.9946Z" fill="#1A1A1A"/>
<path d="M93.3265 29.1647C93.4916 29.4067 93.5336 29.7056 93.4529 30.0619L93.0956 31.5835H92.5239L92.8813 30.0401C92.9326 29.8148 92.9086 29.6356 92.8097 29.5029C92.7108 29.3701 92.5552 29.3038 92.3425 29.3038C92.1043 29.3038 91.9026 29.3866 91.7378 29.5519C91.5729 29.7174 91.45 29.9565 91.3694 30.2693L91.0616 31.5835H90.4897L91.4023 27.6567H91.9796L91.6113 29.2275C91.8531 28.9439 92.161 28.8021 92.5349 28.8021C92.8978 28.8021 93.1616 28.923 93.3265 29.1647Z" fill="#1A1A1A"/>
<path d="M14.9519 4.7881L0.771484 0.236328V5.73334C0.771484 6.77419 1.44776 7.69641 2.44602 8.01684L16.525 12.536V6.93322C16.525 5.95544 15.8897 5.08911 14.9519 4.7881Z" fill="#1A1A1A"/>
<path d="M30.7963 24.0791L16.5254 19.624V25.2549C16.5254 26.2144 17.1529 27.0629 18.0754 27.3509L32.3032 31.7925V26.1166C32.3032 25.1839 31.6932 24.359 30.7963 24.0791Z" fill="#1A1A1A"/>
<path d="M24.4543 16.4547L6.55322 23.7348V18.0607C6.55322 17.1117 7.13134 16.2567 8.01649 15.8967L26.497 8.38086V13.4336C26.497 14.7585 25.69 15.9521 24.4543 16.4547Z" fill="#1A1A1A"/>
<path d="M38.8331 22.2541L45.2921 13.6065V11.7905H36.9935C36.1303 11.7905 35.4279 12.4872 35.4279 13.3436V14.0089H41.8138L35.0869 22.8543V24.4725H43.4452C44.5138 24.4725 45.3834 23.61 45.3834 22.5498V22.2541H38.8331Z" fill="#1A1A1A"/>
<path d="M58.011 13.3785C59.3197 14.6091 59.9741 16.1917 59.9741 18.1265C59.9741 20.0612 59.3156 21.6483 57.9981 22.8871C56.6808 24.126 55.0726 24.7457 53.1736 24.7457C51.2575 24.7457 49.6366 24.126 48.3105 22.8871C46.9846 21.6483 46.3218 20.0612 46.3218 18.1265C46.3218 16.1917 46.9846 14.6091 48.3105 13.3785C49.6366 12.148 51.2575 11.5327 53.1736 11.5327C55.0898 11.5327 56.7022 12.148 58.011 13.3785ZM56.1247 21.245C56.9632 20.4388 57.3823 19.3995 57.3823 18.1265C57.3823 16.8538 56.9632 15.8141 56.1247 15.0079C55.2864 14.2016 54.3028 13.7988 53.1736 13.7988C52.0102 13.7988 51.0136 14.2016 50.1839 15.0079C49.3541 15.8141 48.9393 16.8538 48.9393 18.1265C48.9393 19.3995 49.3541 20.4388 50.1839 21.245C51.0136 22.0511 52.0102 22.4545 53.1736 22.4545C54.3028 22.4545 55.2864 22.0511 56.1247 21.245Z" fill="#1A1A1A"/>
<path d="M61.5444 24.4398V6.36475H64.2135V22.7227C64.2135 23.671 63.4385 24.4398 62.4826 24.4398H61.5444Z" fill="#1A1A1A"/>
<path d="M74.0282 24.4403H71.1796L65.7134 11.7876H67.1455C68.0346 11.7876 68.8366 12.3173 69.1796 13.1309L72.6167 21.2837L76.0537 13.1309C76.3967 12.3173 77.1988 11.7876 78.0878 11.7876H79.5199L74.0282 24.4403Z" fill="#1A1A1A"/>
<path d="M83.5452 6.84825C83.87 7.17092 84.0327 7.56105 84.0327 8.01931C84.0327 8.49451 83.8744 8.88498 83.5579 9.19038C83.2415 9.49611 82.8352 9.64863 82.339 9.64863C81.8428 9.64863 81.4323 9.49611 81.1072 9.19038C80.7821 8.88498 80.6196 8.49451 80.6196 8.01931C80.6196 7.56105 80.7821 7.17092 81.1072 6.84825C81.4323 6.52591 81.8428 6.36475 82.339 6.36475C82.8181 6.36475 83.22 6.52591 83.5452 6.84825ZM81.0045 24.4398V11.8126H83.6734V22.3173C83.6734 23.4895 82.7155 24.4398 81.534 24.4398H81.0045Z" fill="#1A1A1A"/>
<path d="M95.7821 23.8295C94.6872 24.4742 93.635 24.7969 92.6258 24.7969C91.2056 24.7969 90.0851 24.4023 89.2639 23.6131C88.4426 22.8238 88.032 21.6656 88.032 20.1379V14.0024H85.1323V11.8132H88.032V7.89258H90.7009V11.8132H95.1645L95.1593 11.9275C95.1058 13.0885 94.1414 14.0024 92.9697 14.0024H90.7009V19.9598C90.7009 20.7234 90.8892 21.3048 91.2656 21.7036C91.6419 22.1023 92.1553 22.302 92.8053 22.302C93.5409 22.302 94.2597 22.073 94.961 21.6147L95.7821 23.8295Z" fill="#1A1A1A"/>
</g>
<defs>
<clipPath id="clip0_500_5002">
<rect width="101.538" height="32.8205" fill="white"/>
</clipPath>
</defs>
</svg>
