<svg width="48" height="49" viewBox="0 0 48 49" fill="none" xmlns="http://www.w3.org/2000/svg">
<g clip-path="url(#clip0_586_18018)">
<path d="M24.8488 40.0919L33.6665 42.0144C34.2244 42.136 34.801 42.1365 35.3591 42.0157C35.9171 41.8949 36.444 41.6555 36.9054 41.3133C37.3669 40.971 37.7527 40.5334 38.0377 40.029C38.3226 39.5245 38.5004 38.9645 38.5595 38.3854L39.4936 29.2304C39.5529 28.6492 39.7318 28.0873 40.0186 27.5816L44.534 19.6145C44.8197 19.1106 44.9982 18.5509 45.0581 17.9718C45.118 17.3928 45.0579 16.8074 44.8816 16.2536C44.7054 15.6998 44.417 15.1901 44.0352 14.7576C43.6534 14.325 43.1867 13.9793 42.6654 13.743L34.4248 10.0067C33.9016 9.76973 33.4334 9.4226 33.0508 8.98804L27.0238 2.14374C26.6425 1.71064 26.1762 1.36429 25.6552 1.1272C25.1342 0.890106 24.5702 0.767578 23.9998 0.767578C23.4294 0.767578 22.8653 0.890106 22.3443 1.1272C21.8233 1.36429 21.3571 1.71064 20.9758 2.14374L14.9488 8.98804C14.5662 9.4226 14.0979 9.76973 13.5748 10.0067L5.33415 13.743C4.81289 13.9793 4.34618 14.325 3.96435 14.7576C3.58253 15.1901 3.29413 15.6998 3.11789 16.2536C2.94166 16.8074 2.88153 17.3928 2.94142 17.9718C3.00131 18.5509 3.17988 19.1106 3.46552 19.6145L7.9809 27.5816C8.26773 28.0873 8.44664 28.6492 8.5059 29.2304L9.44002 38.3854C9.4991 38.9645 9.67691 39.5245 9.96188 40.029C10.2469 40.5334 10.6326 40.971 11.0941 41.3133C11.5556 41.6555 12.0825 41.8949 12.6405 42.0157C13.1985 42.1365 13.7752 42.136 14.333 42.0144L23.1508 40.0919C23.7105 39.9702 24.2891 39.9702 24.8488 40.0919Z" fill="#FFC107"/>
<path d="M33.6831 9.56703L23.9998 23.1806V0.768088C24.5704 0.76621 25.1349 0.888097 25.6559 1.12568C26.1769 1.36326 26.6425 1.71112 27.0219 2.14621L33.0531 8.98592C33.2398 9.2044 33.4513 9.39947 33.6831 9.56703ZM8.32482 28.3758L23.9998 23.1806L11.0976 41.3114C10.634 40.9711 10.2463 40.5344 9.96017 40.03C9.67401 39.5256 9.49585 38.965 9.43745 38.3852L8.50932 29.2336C8.47913 28.9416 8.41725 28.6539 8.32482 28.3758ZM23.9998 23.1806L3.12207 16.2494C3.29667 15.6967 3.58373 15.1878 3.96444 14.7562C4.34515 14.3246 4.81091 13.98 5.3312 13.745L13.5778 10.0099C13.8373 9.88659 14.0847 9.73829 14.3166 9.56703L23.9998 23.1806ZM36.9021 41.3114C36.443 41.6562 35.9174 41.8974 35.3601 42.019C34.8028 42.1406 34.2266 42.1399 33.6696 42.0169L24.8469 40.094C24.5686 40.0328 24.2846 40.0025 23.9998 40.0037V23.1806L36.9021 41.3114ZM44.5322 19.6113L40.0191 27.5803C39.8764 27.8321 39.7605 28.0988 39.6733 28.3758L23.9998 23.1806L44.8776 16.2563C45.0557 16.8087 45.117 17.3933 45.0574 17.9716C44.9979 18.5499 44.8189 19.1088 44.5322 19.6113Z" fill="#FFA000"/>
<path d="M25.3125 47.0859V43.6406C25.3125 42.9006 24.7249 42.3008 24 42.3008C23.2751 42.3008 22.6875 42.9006 22.6875 43.6406V47.0859C22.6875 47.8259 23.2751 48.4258 24 48.4258C24.7249 48.4258 25.3125 47.8259 25.3125 47.0859Z" fill="#FFC107"/>
<path d="M46.4483 29.3088L43.2385 28.2441C42.5491 28.0154 41.8086 28.4006 41.5846 29.1043C41.3607 29.8081 41.7379 30.564 42.4273 30.7926L45.6371 31.8573C46.3265 32.086 47.067 31.7008 47.291 30.9971C47.515 30.2933 47.1377 29.5374 46.4483 29.3088Z" fill="#FFC107"/>
<path d="M2.32415 31.8576L5.53396 30.7929C6.22336 30.5643 6.60064 29.8084 6.37664 29.1046C6.15264 28.4009 5.41219 28.0157 4.7228 28.2444L1.51298 29.3091C0.823583 29.5377 0.446304 30.2936 0.670302 30.9974C0.894301 31.7011 1.63475 32.0863 2.32415 31.8576Z" fill="#FFC107"/>
<path d="M36.7025 3.05353L34.7187 5.84085C34.2927 6.4395 34.4227 7.2774 35.0091 7.71235C35.5955 8.14729 36.4163 8.01458 36.8424 7.41593L38.8262 4.62861C39.2522 4.02996 39.1222 3.19206 38.5358 2.75712C37.9494 2.32217 37.1286 2.45488 36.7025 3.05353Z" fill="#FFC107"/>
<path d="M9.17117 4.62873L11.1559 7.41534C11.5822 8.01384 12.403 8.14626 12.9893 7.7111C13.5756 7.27595 13.7053 6.43801 13.279 5.8395L11.2943 3.0529C10.868 2.4544 10.0472 2.32198 9.46089 2.75713C8.87461 3.19229 8.74489 4.03023 9.17117 4.62873Z" fill="#FFC107"/>
<path d="M24 32.7305C29.3848 32.7305 33.75 28.2743 33.75 22.7773C33.75 17.2804 29.3848 12.8242 24 12.8242C18.6152 12.8242 14.25 17.2804 14.25 22.7773C14.25 28.2743 18.6152 32.7305 24 32.7305Z" fill="#ECEFF1"/>
<path d="M24.0004 32.7305C25.3938 32.7316 26.7712 32.4271 28.0393 31.8375C29.3074 31.2479 30.4366 30.387 31.3504 29.3131C30.8156 27.7589 29.8212 26.4125 28.5046 25.4601C27.188 24.5077 25.6141 23.9961 24.0004 23.9961C22.3867 23.9961 20.8128 24.5077 19.4962 25.4601C18.1796 26.4125 17.1852 27.7589 16.6504 29.3131C17.5642 30.387 18.6934 31.2479 19.9615 31.8375C21.2295 32.4271 22.607 32.7316 24.0004 32.7305Z" fill="#03A9F4"/>
<path d="M23.9996 23.9961C25.9777 23.9961 27.5812 22.3591 27.5812 20.3398C27.5812 18.3205 25.9777 16.6836 23.9996 16.6836C22.0215 16.6836 20.418 18.3205 20.418 20.3398C20.418 22.3591 22.0215 23.9961 23.9996 23.9961Z" fill="#03A9F4"/>
</g>
<defs>
<clipPath id="clip0_586_18018">
<rect width="48" height="49" fill="white"/>
</clipPath>
</defs>
</svg>
