<svg width="48" height="48" viewBox="0 0 48 48" fill="none" xmlns="http://www.w3.org/2000/svg">
<path fill-rule="evenodd" clip-rule="evenodd" d="M14.9596 34.5869H10.5167C3.28998 34.5869 0 29.1036 0 23.9858C0 21.2301 0.927944 18.6431 2.61511 16.731C4.55536 14.5377 7.28295 13.3848 10.5167 13.3848H14.9596V17.5465H10.5167C6.13005 17.5465 4.10545 20.8927 4.10545 23.9858C4.10545 27.1071 6.13005 30.4533 10.5167 30.4533H14.9596V34.5869Z" fill="url(#paint0_linear_586_17997)"/>
<path fill-rule="evenodd" clip-rule="evenodd" d="M23.8449 16.6749C23.7887 16.6749 23.7324 16.6468 23.6762 16.6468C23.5356 16.5905 23.5075 16.5905 22.8326 15.9719L22.7764 16.1406C22.7201 16.3656 22.5795 16.5062 22.3546 16.5624C22.1577 16.6187 21.9609 16.5343 21.8203 16.3937L20.7517 15.2127C20.5549 14.9877 20.583 14.6222 20.808 14.4253C21.0329 14.2004 21.3985 14.2285 21.5953 14.4535L21.9328 14.819C21.989 14.6784 22.0734 14.4816 22.3264 14.3972C22.6639 14.2847 22.917 14.5097 23.0294 14.6222C23.0575 14.6503 23.0857 14.6784 23.1419 14.7346C23.873 15.4095 24.098 15.5782 24.1261 15.6345C24.351 15.747 24.4635 16.0281 24.3792 16.2812C24.2948 16.5062 24.0698 16.6749 23.8449 16.6749Z" fill="url(#paint1_linear_586_17997)"/>
<path fill-rule="evenodd" clip-rule="evenodd" d="M22.9738 33.7152C22.9176 33.7152 22.8332 33.7152 22.777 33.6871C22.6645 33.6589 22.6364 33.6308 21.9615 33.0122L21.9053 33.209C21.849 33.4059 21.7084 33.5746 21.4835 33.6308C21.2866 33.6589 21.0617 33.6027 20.9492 33.434L19.8807 32.253C19.6838 32.028 19.7119 31.6625 19.9369 31.4656C20.1618 31.2688 20.5274 31.2969 20.7242 31.5219L21.0617 31.8874C21.1179 31.7187 21.2023 31.55 21.4553 31.4656C21.7928 31.3531 22.0459 31.5781 22.1583 31.6906C22.1865 31.7187 22.2146 31.7468 22.2427 31.7749C22.8332 32.3092 23.1706 32.6185 23.255 32.6748C23.48 32.8154 23.5924 33.0965 23.5081 33.3496C23.4237 33.5746 23.1988 33.7152 22.9738 33.7152Z" fill="url(#paint2_linear_586_17997)"/>
<path fill-rule="evenodd" clip-rule="evenodd" d="M41.3075 16.5622C41.0545 16.5622 40.8576 16.4778 40.717 16.3091C40.6608 16.2248 40.6045 16.1404 40.5483 15.9998C40.3796 15.7186 40.0984 15.1562 39.5641 14.8188C39.1423 14.5938 38.9174 14.5938 38.5518 14.5938C38.0738 14.5938 37.4552 14.5938 36.4991 14.0314C35.5149 13.469 34.2777 12.8223 33.181 12.8223C32.3655 12.8223 31.2126 13.1316 30.4253 15.7467C30.369 15.9436 30.2003 16.1123 30.0035 16.1404C29.9191 16.1685 29.8348 16.1966 29.7504 16.1966C29.5255 16.1966 28.7662 16.0842 28.5132 14.8188C28.1195 12.7098 29.3005 9.05428 33.181 7.53582C34.2214 7.11403 35.0369 6.94531 35.8523 6.94531C36.7803 6.94531 37.6801 7.17027 38.7768 7.73266C41.0263 8.85744 43.0791 10.629 42.7697 15.6061C42.7697 15.7748 42.6854 15.9717 42.5167 16.056C42.2355 16.2529 41.7012 16.5622 41.3075 16.5622Z" fill="url(#paint3_linear_586_17997)"/>
<path fill-rule="evenodd" clip-rule="evenodd" d="M31.3535 26.6294H40.633L36.5556 36.3025C36.4431 36.5275 36.2463 36.6681 35.9932 36.6681C35.7683 36.6681 35.5714 36.5275 35.459 36.3306L31.3535 26.6294Z" fill="url(#paint4_linear_586_17997)"/>
<path fill-rule="evenodd" clip-rule="evenodd" d="M36.0208 37.005C35.7677 37.005 35.5428 36.8644 35.4303 36.6395L33.6588 32.9839C33.6025 32.8715 33.6025 32.7309 33.6025 32.6184L34.2774 26.8539C34.3336 26.5446 34.5867 26.2915 34.9242 26.2915H36.8363C37.1737 26.2915 37.4549 26.5446 37.483 26.8539L38.2141 33.0402C38.2141 33.1527 38.2141 33.2651 38.1579 33.3776L36.5832 36.6395C36.4707 36.8644 36.2458 37.005 36.0208 37.005Z" fill="url(#paint5_linear_586_17997)"/>
<path fill-rule="evenodd" clip-rule="evenodd" d="M47.4091 41.0547H24.6042C24.2667 41.0547 24.0137 40.7735 24.0137 40.4642V33.8561C24.0137 29.8631 27.2474 26.6294 31.2123 26.6294H31.3529L35.4583 36.3306C35.5708 36.5275 35.7676 36.6681 35.9926 36.6681C36.2457 36.6681 36.4425 36.5275 36.555 36.3025L40.6323 26.6294H40.801C44.7659 26.6294 47.9996 29.8631 47.9996 33.8561V40.4642C47.9996 40.7735 47.7184 41.0547 47.4091 41.0547Z" fill="url(#paint6_linear_586_17997)"/>
<path fill-rule="evenodd" clip-rule="evenodd" d="M40.633 26.629C39.9862 25.8979 39.5644 24.9137 39.4519 23.7608C38.4396 24.1264 37.0618 24.1826 35.8245 24.4638C34.5873 24.4638 33.6312 24.3795 32.6189 23.7046C32.5064 24.8856 32.0846 25.8979 31.3535 26.629H40.633Z" fill="url(#paint7_linear_586_17997)"/>
<path fill-rule="evenodd" clip-rule="evenodd" d="M35.7685 26.629L33.1534 30.2002C32.8159 30.172 29.6384 27.5288 32.5629 24.042C32.5629 24.042 32.7878 25.3636 35.7685 26.629Z" fill="url(#paint8_linear_586_17997)"/>
<path fill-rule="evenodd" clip-rule="evenodd" d="M35.7676 26.6293L38.8326 30.2005C39.1982 30.0036 42.2913 26.9667 39.4794 24.0142C39.4794 24.0142 38.7482 25.3639 35.7676 26.6293Z" fill="url(#paint9_linear_586_17997)"/>
<path fill-rule="evenodd" clip-rule="evenodd" d="M36.0211 24.7732C33.1529 24.7732 30.5659 22.7767 29.5536 19.8523C28.7382 19.7679 28.1758 18.7556 28.1758 17.4059C28.1758 16.3374 28.5695 15.1845 29.413 14.9876C30.1723 12.7381 31.4376 11.6133 33.1811 11.6133C34.5589 11.6133 35.993 12.3444 37.0897 12.9911C37.7927 13.3848 38.1582 13.3848 38.58 13.3848C39.0018 13.3848 39.4798 13.4129 40.1547 13.7785C40.8858 14.2003 41.2795 14.847 41.5044 15.2688C41.6169 15.2126 41.7294 15.1282 41.8419 15.072C41.8981 15.0439 41.9262 15.0157 41.9825 14.9876C42.0949 14.9595 42.2074 14.9314 42.3199 14.9314C43.1916 14.9314 43.8383 15.9718 43.8383 17.4059C43.8383 18.7275 43.276 19.7398 42.4886 19.8523C41.4482 22.8048 38.9174 24.7732 36.0211 24.7732Z" fill="url(#paint10_linear_586_17997)"/>
<path fill-rule="evenodd" clip-rule="evenodd" d="M14.96 13.3848V17.5465H19.7122V13.3848H14.96Z" fill="url(#paint11_linear_586_17997)"/>
<path fill-rule="evenodd" clip-rule="evenodd" d="M19.7122 30.4536H14.96V34.5872H19.7122V30.4536Z" fill="url(#paint12_linear_586_17997)"/>
<defs>
<linearGradient id="paint0_linear_586_17997" x1="-0.0080703" y1="23.9952" x2="14.9703" y2="23.9952" gradientUnits="userSpaceOnUse">
<stop stop-color="#3B9745"/>
<stop offset="0.329" stop-color="#5AA348"/>
<stop offset="1" stop-color="#97CA54"/>
</linearGradient>
<linearGradient id="paint1_linear_586_17997" x1="20.6198" y1="15.468" x2="24.4036" y2="15.468" gradientUnits="userSpaceOnUse">
<stop stop-color="#3B9745"/>
<stop offset="0.329" stop-color="#5AA348"/>
<stop offset="1" stop-color="#97CA54"/>
</linearGradient>
<linearGradient id="paint2_linear_586_17997" x1="19.7454" y1="32.5232" x2="23.5299" y2="32.5232" gradientUnits="userSpaceOnUse">
<stop stop-color="#3B9745"/>
<stop offset="0.329" stop-color="#5AA348"/>
<stop offset="1" stop-color="#97CA54"/>
</linearGradient>
<linearGradient id="paint3_linear_586_17997" x1="28.4499" y1="11.7515" x2="42.8114" y2="11.7515" gradientUnits="userSpaceOnUse">
<stop stop-color="#3B9745"/>
<stop offset="0.329" stop-color="#5AA348"/>
<stop offset="1" stop-color="#97CA54"/>
</linearGradient>
<linearGradient id="paint4_linear_586_17997" x1="31.3625" y1="31.6476" x2="40.6422" y2="31.6476" gradientUnits="userSpaceOnUse">
<stop stop-color="#97CA54"/>
<stop offset="0.29" stop-color="#A6D066"/>
<stop offset="0.91" stop-color="#CDE294"/>
<stop offset="1" stop-color="#D3E49B"/>
</linearGradient>
<linearGradient id="paint5_linear_586_17997" x1="33.602" y1="31.6471" x2="38.215" y2="31.6471" gradientUnits="userSpaceOnUse">
<stop stop-color="#3B9745"/>
<stop offset="0.329" stop-color="#5AA348"/>
<stop offset="1" stop-color="#97CA54"/>
</linearGradient>
<linearGradient id="paint6_linear_586_17997" x1="24.0046" y1="33.846" x2="47.9982" y2="33.846" gradientUnits="userSpaceOnUse">
<stop stop-color="#97CA54"/>
<stop offset="0.29" stop-color="#A6D066"/>
<stop offset="0.91" stop-color="#CDE294"/>
<stop offset="1" stop-color="#D3E49B"/>
</linearGradient>
<linearGradient id="paint7_linear_586_17997" x1="31.3625" y1="25.1716" x2="40.6422" y2="25.1716" gradientUnits="userSpaceOnUse">
<stop stop-color="#97CA54"/>
<stop offset="0.29" stop-color="#A6D066"/>
<stop offset="0.91" stop-color="#CDE294"/>
<stop offset="1" stop-color="#D3E49B"/>
</linearGradient>
<linearGradient id="paint8_linear_586_17997" x1="31.3366" y1="27.1127" x2="35.775" y2="27.1127" gradientUnits="userSpaceOnUse">
<stop stop-color="#3B9745"/>
<stop offset="0.329" stop-color="#5AA348"/>
<stop offset="1" stop-color="#97CA54"/>
</linearGradient>
<linearGradient id="paint9_linear_586_17997" x1="40.6458" y1="27.1066" x2="35.774" y2="27.1066" gradientUnits="userSpaceOnUse">
<stop stop-color="#3B9745"/>
<stop offset="0.329" stop-color="#5AA348"/>
<stop offset="1" stop-color="#97CA54"/>
</linearGradient>
<linearGradient id="paint10_linear_586_17997" x1="28.1783" y1="18.1943" x2="43.8268" y2="18.1943" gradientUnits="userSpaceOnUse">
<stop stop-color="#97CA54"/>
<stop offset="0.29" stop-color="#A6D066"/>
<stop offset="0.91" stop-color="#CDE294"/>
<stop offset="1" stop-color="#D3E49B"/>
</linearGradient>
<linearGradient id="paint11_linear_586_17997" x1="14.9707" y1="15.4676" x2="19.7025" y2="15.4676" gradientUnits="userSpaceOnUse">
<stop stop-color="#97CA54"/>
<stop offset="0.29" stop-color="#A6D066"/>
<stop offset="0.91" stop-color="#CDE294"/>
<stop offset="1" stop-color="#D3E49B"/>
</linearGradient>
<linearGradient id="paint12_linear_586_17997" x1="14.9707" y1="32.5226" x2="19.7025" y2="32.5226" gradientUnits="userSpaceOnUse">
<stop stop-color="#97CA54"/>
<stop offset="0.29" stop-color="#A6D066"/>
<stop offset="0.91" stop-color="#CDE294"/>
<stop offset="1" stop-color="#D3E49B"/>
</linearGradient>
</defs>
</svg>
