<svg width="48" height="49" viewBox="0 0 48 49" fill="none" xmlns="http://www.w3.org/2000/svg">
<path fill-rule="evenodd" clip-rule="evenodd" d="M19.0781 5C13.8314 5 9.57812 9.2533 9.57812 14.5C9.57812 19.7467 13.8314 24 19.0781 24C24.3248 24 28.5782 19.7467 28.5782 14.5C28.5782 9.2533 24.3248 5 19.0781 5Z" fill="#B9A6FF"/>
<path fill-rule="evenodd" clip-rule="evenodd" d="M12.5137 27C9.8562 27 7.3971 28.4064 6.04952 30.6968L4.72598 32.9466C3.68134 34.722 3.23322 36.7956 3.66104 38.6596C4.10754 40.605 5.49084 42.1902 7.75466 42.775C14.077 44.4084 24.0878 44.4084 30.41 42.775C32.6738 42.1902 34.0572 40.605 34.5036 38.6596C34.9314 36.7956 34.4834 34.722 33.4388 32.9466L32.1152 30.6968C30.7676 28.4064 28.3086 27 25.651 27H12.5137Z" fill="#7450DB"/>
<path d="M37.512 38.9063C37.9872 36.2747 37.2974 33.5941 36.0218 31.4257L34.6982 29.1761C33.1092 26.4751 30.416 24.6521 27.3828 24.1445H36.2888C38.9346 24.1445 41.3828 25.5445 42.7246 27.8251L43.295 28.7945C44.335 30.5623 44.7742 32.6229 44.324 34.4643C43.8522 36.3941 42.4304 37.9239 40.1602 38.4345C39.3314 38.6209 38.4424 38.7783 37.512 38.9063Z" fill="#7450DB"/>
<path d="M29.2672 21.7454C30.7236 19.7015 31.58 17.2008 31.58 14.5C31.58 11.018 30.1564 7.8686 27.8594 5.60202C28.8304 5.21364 29.8902 5 31 5C35.6732 5 39.4614 8.78832 39.4614 13.4615C39.4614 17.2919 36.9174 20.5242 33.4302 21.5684C32.6588 21.7994 31.8424 21.923 31 21.923C30.4062 21.923 29.8266 21.8618 29.2672 21.7454Z" fill="#B9A6FF"/>
</svg>
