<svg width="48" height="48" viewBox="0 0 48 48" fill="none" xmlns="http://www.w3.org/2000/svg">
<path d="M41.4662 39.516C40.2482 30.956 32.8002 24.5 24.1402 24.5C24.0942 24.5 24.0462 24.5 24.0002 24.5C15.3382 24.5 7.89019 30.956 6.67419 39.516C6.53219 40.51 6.83219 41.518 7.49619 42.284C8.16619 43.058 9.13619 43.5 10.1582 43.5H37.9842C39.0042 43.5 39.9722 43.056 40.6442 42.286C41.3082 41.52 41.6062 40.512 41.4662 39.516Z" fill="#E69710"/>
<path d="M24 27.5C30.3513 27.5 35.5 22.3513 35.5 16C35.5 9.64873 30.3513 4.5 24 4.5C17.6487 4.5 12.5 9.64873 12.5 16C12.5 22.3513 17.6487 27.5 24 27.5Z" fill="#FDB221"/>
<path d="M43.4884 27.974C43.4844 27.79 43.4604 27.604 43.3884 27.426C43.1564 26.866 42.6084 26.5 42.0024 26.5H38.0024C37.1744 26.5 36.5024 27.172 36.5024 28C36.5024 28.828 37.1744 29.5 38.0024 29.5H38.3804L33.8164 34.064C33.6844 34.198 33.4904 34.248 33.3044 34.186L29.6484 32.97C28.3924 32.546 27.0124 32.872 26.0664 33.816L20.9424 38.94C20.3564 39.526 20.3564 40.476 20.9424 41.062C21.2344 41.354 21.6184 41.502 22.0024 41.502C22.3864 41.502 22.7704 41.356 23.0624 41.062L28.1864 35.938C28.3204 35.806 28.5144 35.756 28.6984 35.816L32.3544 37.032C33.6124 37.456 34.9904 37.132 35.9364 36.186L40.5004 31.622V32C40.5004 32.828 41.1724 33.5 42.0004 33.5C42.8284 33.5 43.5004 32.828 43.5004 32V28C43.5004 27.99 43.4884 27.984 43.4884 27.974Z" fill="#4B4F54"/>
</svg>
