<svg width="48" height="48" viewBox="0 0 48 48" fill="none" xmlns="http://www.w3.org/2000/svg">
<path d="M43.3423 18.294L41.5323 21.918C41.3543 22.274 41.0423 22.544 40.6643 22.67C40.5103 22.722 40.3503 22.748 40.1903 22.748C39.9603 22.748 39.7303 22.696 39.5203 22.59L35.8963 20.778C35.1543 20.406 34.8543 19.506 35.2243 18.766C35.5983 18.026 36.4943 17.728 37.2363 18.096L37.8783 18.416C35.8923 12.382 30.3543 8.25598 23.8863 8.25598C16.9343 8.25598 11.0043 12.99 9.46427 19.768C9.28027 20.578 8.46427 21.08 7.67027 20.898C6.86227 20.714 6.35627 19.91 6.54027 19.104C8.39227 10.95 15.5263 5.25598 23.8883 5.25598C31.5203 5.25598 38.1163 10.008 40.6203 17.036L40.6603 16.954C41.0323 16.214 41.9323 15.912 42.6723 16.284C43.4143 16.654 43.7143 17.556 43.3443 18.296L43.3423 18.294ZM40.3323 27.104C39.5403 26.922 38.7203 27.426 38.5383 28.234C36.9983 35.012 31.0683 39.746 24.1163 39.746C17.6463 39.746 12.1103 35.62 10.1243 29.588L10.7643 29.908C11.5123 30.28 12.4063 29.978 12.7783 29.238C13.1503 28.496 12.8483 27.596 12.1083 27.224L8.48427 25.412C8.12827 25.238 7.71427 25.206 7.33827 25.33C6.96227 25.456 6.64827 25.726 6.47027 26.082L4.66027 29.706C4.28827 30.446 4.59027 31.346 5.33227 31.718C5.54627 31.826 5.77627 31.876 6.00027 31.876C6.55027 31.876 7.08027 31.572 7.34427 31.046L7.38427 30.966C9.88827 37.994 16.4843 42.746 24.1183 42.746C32.4803 42.746 39.6143 37.052 41.4663 28.898C41.6503 28.09 41.1443 27.286 40.3363 27.104H40.3323Z" fill="#549BFF"/>
<path d="M24 22.5C19.866 22.5 16.5 25.864 16.5 30C16.5 30.822 16.648 31.638 16.954 32.5C17.166 33.1 17.734 33.5 18.368 33.5H29.634C30.268 33.5 30.836 33.1 31.048 32.5C31.352 31.638 31.502 30.822 31.502 30C31.502 25.864 28.136 22.5 24.002 22.5H24Z" fill="#BAD7FF"/>
<path d="M24 25.5C27.0376 25.5 29.5 23.0376 29.5 20C29.5 16.9624 27.0376 14.5 24 14.5C20.9624 14.5 18.5 16.9624 18.5 20C18.5 23.0376 20.9624 25.5 24 25.5Z" fill="#549BFF"/>
</svg>
