<svg width="48" height="48" viewBox="0 0 48 48" fill="none" xmlns="http://www.w3.org/2000/svg">
<path d="M25.2898 33.2098L14.7898 22.7098C14.2048 22.1248 13.2598 22.1248 12.6748 22.7098L9.49477 25.8898C8.92477 26.4598 8.60976 27.2098 8.60976 28.0048C8.60976 28.7998 8.92477 29.5648 9.49477 30.1198L17.8798 38.5048C18.4498 39.0748 19.1998 39.3898 19.9948 39.3898C20.7898 39.3898 21.5548 39.0748 22.1098 38.5048L25.2898 35.3248C25.8748 34.7398 25.8748 33.7948 25.2898 33.2098ZM38.1148 27.4348L37.1998 26.0698C37.1398 25.9948 37.0798 25.9048 37.0198 25.8448L22.1698 10.9798C22.1698 10.9798 22.0198 10.8448 21.9448 10.7998L20.5798 9.88477C17.0998 7.55977 12.4198 8.02477 9.44977 10.9798C8.27977 12.1498 8.27977 14.0548 9.44977 15.2248L32.7898 38.5648C33.3748 39.1498 34.1398 39.4348 34.9048 39.4348C35.6698 39.4348 36.4348 39.1498 37.0198 38.5648C39.9748 35.6098 40.4398 30.9298 38.1148 27.4348Z" fill="#EF5350"/>
<path d="M43.9654 6.49502C43.7554 5.23502 42.7654 4.24502 41.5054 4.03502C33.7204 2.74502 25.7404 5.29502 20.1604 10.875L11.5504 19.485C10.3804 20.655 10.3804 22.56 11.5504 23.73L24.2854 36.465C24.8704 37.05 25.6354 37.335 26.4004 37.335C27.1654 37.335 27.9304 37.05 28.5154 36.465L37.1254 27.855C42.7054 22.275 45.2704 14.295 43.9654 6.51002V6.49502Z" fill="#F9A825"/>
<path d="M43.9796 6.49514C43.7696 5.23514 42.7796 4.24514 41.5196 4.03514C38.0696 3.46514 34.6046 3.63014 31.1996 4.53014C30.6746 4.66514 30.2846 5.08514 30.1346 5.59514C30.0296 5.98514 30.0896 6.40514 30.2996 6.75014C32.8346 11.3401 36.5996 15.1201 41.1896 17.6701C41.4446 17.8351 41.7296 17.9251 42.0296 17.9251C42.1646 17.9251 42.2846 17.9101 42.4196 17.8801C42.9296 17.7451 43.3346 17.3401 43.4846 16.8301C44.0396 14.8051 44.3246 12.6901 44.3246 10.5301C44.3246 9.19514 44.2046 7.84514 43.9946 6.51014L43.9796 6.49514Z" fill="#EF5350"/>
<path d="M31.7098 16.2902C29.3698 13.9502 25.5598 13.9502 23.2198 16.2902C20.8798 18.6302 20.8798 22.4402 23.2198 24.7802C24.3898 25.9502 25.9198 26.5352 27.4648 26.5352C29.0098 26.5352 30.5398 25.9502 31.7098 24.7802C34.0498 22.4402 34.0498 18.6302 31.7098 16.2902Z" fill="#FDD835"/>
<path d="M13.6946 37.0649L10.9346 34.3049C9.92965 33.2999 8.33965 33.1349 7.15465 33.9299C4.55965 35.6549 3.01465 38.5499 3.01465 41.6699V41.9849C3.01465 43.6349 4.36465 44.9849 6.01465 44.9849H6.32965C9.44965 44.9849 12.3446 43.4399 14.0696 40.8449C14.8646 39.6599 14.6996 38.0699 13.6946 37.0649Z" fill="#F9A825"/>
</svg>
