<svg width="48" height="48" viewBox="0 0 48 48" fill="none" xmlns="http://www.w3.org/2000/svg">
<g clip-path="url(#clip0_601_6104)">
<path d="M18.3998 36C28.12 36 35.9998 28.1202 35.9998 18.4C35.9998 8.67978 28.12 0.799988 18.3998 0.799988C8.67959 0.799988 0.799805 8.67978 0.799805 18.4C0.799805 28.1202 8.67959 36 18.3998 36Z" fill="#314489"/>
<path d="M18.4 32.8C26.3529 32.8 32.8 26.3529 32.8 18.4C32.8 10.4471 26.3529 4 18.4 4C10.4471 4 4 10.4471 4 18.4C4 26.3529 10.4471 32.8 18.4 32.8Z" fill="white"/>
<path d="M24.7631 30.4C23.0431 31.3153 21.1452 31.8472 19.1999 31.9592V30.4C19.1999 30.1878 19.1157 29.9844 18.9656 29.8343C18.8156 29.6843 18.6121 29.6 18.3999 29.6C18.1878 29.6 17.9843 29.6843 17.8343 29.8343C17.6842 29.9844 17.5999 30.1878 17.5999 30.4V31.9592C14.5539 31.7833 11.6569 30.5822 9.37995 28.5512L10.4799 27.4504C10.6197 27.2985 10.6954 27.0985 10.6911 26.8921C10.6869 26.6857 10.603 26.4889 10.457 26.343C10.311 26.197 10.1143 26.1131 9.90789 26.1088C9.70149 26.1045 9.50144 26.1802 9.34955 26.32L8.24874 27.4208C6.2176 25.1436 5.0165 22.2463 4.84075 19.2H6.39995C6.61212 19.2 6.8156 19.1157 6.96563 18.9657C7.11566 18.8157 7.19995 18.6122 7.19995 18.4C7.19995 18.1878 7.11566 17.9843 6.96563 17.8343C6.8156 17.6843 6.61212 17.6 6.39995 17.6H4.84075C5.0169 14.5539 6.21827 11.6569 8.24955 9.38001L9.34955 10.48C9.50144 10.6198 9.70149 10.6955 9.90789 10.6912C10.1143 10.6869 10.311 10.603 10.457 10.4571C10.603 10.3111 10.6869 10.1143 10.6911 9.90795C10.6954 9.70156 10.6197 9.5015 10.4799 9.34961L9.37995 8.24881C11.6569 6.21782 14.5539 5.01674 17.5999 4.84081V6.40001C17.5999 6.61218 17.6842 6.81566 17.8343 6.96569C17.9843 7.11572 18.1878 7.20001 18.3999 7.20001C18.6121 7.20001 18.8156 7.11572 18.9656 6.96569C19.1157 6.81566 19.1999 6.61218 19.1999 6.40001V4.84081C22.2457 5.01691 25.1424 6.21799 27.4191 8.24881L26.3199 9.34961C26.2406 9.42264 26.1768 9.51097 26.1325 9.60928C26.0881 9.70758 26.0641 9.81384 26.0619 9.92167C26.0597 10.0295 26.0792 10.1367 26.1195 10.2367C26.1597 10.3368 26.2198 10.4277 26.296 10.5039C26.3723 10.5802 26.4632 10.6402 26.5632 10.6805C26.6633 10.7207 26.7705 10.7403 26.8783 10.7381C26.9861 10.7358 27.0924 10.7118 27.1907 10.6675C27.289 10.6231 27.3773 10.5594 27.4503 10.48L28.5503 9.37921C30.5818 11.6563 31.7832 14.5536 31.9591 17.6H30.3999C30.1878 17.6 29.9843 17.6843 29.8343 17.8343C29.6842 17.9843 29.5999 18.1878 29.5999 18.4C29.5999 18.6122 29.6842 18.8157 29.8343 18.9657C29.9843 19.1157 30.1878 19.2 30.3999 19.2H31.9591C31.8636 20.8592 31.4625 22.4865 30.7759 24H32.5311C33.8193 20.7494 33.9473 17.1541 32.8938 13.8202C31.8402 10.4862 29.6694 7.61735 26.7473 5.69726C23.8252 3.77716 20.3304 2.92321 16.8521 3.27932C13.3738 3.63544 10.1246 5.17986 7.6522 7.65226C5.1798 10.1247 3.63538 13.3738 3.27926 16.8522C2.92314 20.3305 3.7771 23.8252 5.6972 26.7473C7.61729 29.6694 10.4861 31.8402 13.8201 32.8938C17.1541 33.9474 20.7494 33.8193 23.9999 32.5312L24.7631 30.4Z" fill="#25304F"/>
<path d="M23.4524 19.2414L19.1996 17.823V9.5998C19.1996 9.38763 19.1153 9.18415 18.9653 9.03412C18.8153 8.88409 18.6118 8.7998 18.3996 8.7998C18.1874 8.7998 17.984 8.88409 17.8339 9.03412C17.6839 9.18415 17.5996 9.38763 17.5996 9.5998V18.3998C17.5997 18.5676 17.6526 18.7312 17.7508 18.8673C17.8491 19.0034 17.9876 19.1052 18.1468 19.1582L22.9468 20.7582C23.0466 20.7914 23.152 20.8046 23.2569 20.7971C23.3618 20.7896 23.4642 20.7615 23.5583 20.7144C23.6523 20.6673 23.7362 20.6021 23.805 20.5226C23.8739 20.4431 23.9264 20.3508 23.9596 20.251C23.9928 20.1512 24.006 20.0458 23.9985 19.9409C23.991 19.836 23.9629 19.7336 23.9158 19.6396C23.8687 19.5455 23.8035 19.4617 23.724 19.3928C23.6445 19.3239 23.5522 19.2714 23.4524 19.2382V19.2414Z" fill="#F28267"/>
<path d="M20.8566 35.1404C20.8724 35.2784 20.9254 35.4095 21.01 35.5197C21.0945 35.6299 21.2074 35.715 21.3366 35.766L23.4598 36.614C23.721 37.6659 24.1393 38.6724 24.7006 39.5996L23.8022 41.7052C23.7451 41.8375 23.726 41.983 23.7472 42.1255C23.7684 42.268 23.829 42.4018 23.9222 42.5116C24.4044 43.0841 24.9349 43.614 25.5078 44.0956C25.6173 44.1833 25.7487 44.2393 25.8877 44.2576C26.0267 44.2759 26.1681 44.2559 26.2966 44.1996L28.3998 43.3012C29.3269 43.8615 30.3332 44.279 31.3846 44.5396L32.2326 46.6636C32.2834 46.7951 32.3696 46.91 32.4818 46.9954C32.5939 47.0809 32.7275 47.1336 32.8678 47.1476C33.6246 47.218 34.3862 47.218 35.143 47.1476C35.2803 47.1316 35.4107 47.0784 35.5201 46.9938C35.6294 46.9093 35.7137 46.7965 35.7638 46.6676L36.6118 44.5436C37.6646 44.282 38.6719 43.8632 39.5998 43.3012L41.7046 44.1996C41.8368 44.2568 41.9824 44.2758 42.1249 44.2546C42.2674 44.2334 42.4011 44.1728 42.511 44.0796C43.0829 43.5977 43.6124 43.0675 44.0934 42.4948C44.1813 42.3853 44.2376 42.2539 44.2562 42.1147C44.2748 41.9756 44.255 41.834 44.199 41.7052L43.299 39.5996C43.8592 38.6722 44.2764 37.6657 44.5366 36.614L46.6598 35.766C46.7891 35.715 46.9021 35.6297 46.9866 35.5194C47.0712 35.409 47.1241 35.2777 47.1398 35.1396C47.2158 34.3815 47.2158 33.6177 47.1398 32.8596C47.1241 32.7215 47.0712 32.5902 46.9866 32.4799C46.9021 32.3696 46.7891 32.2843 46.6598 32.2332L44.5366 31.3852C44.2764 30.3335 43.8592 29.327 43.299 28.3996L44.1974 26.294C44.2545 26.162 44.2736 26.0166 44.2525 25.8742C44.2315 25.7319 44.1711 25.5983 44.0782 25.4884C43.5953 24.9159 43.0643 24.3857 42.491 23.9036C42.3818 23.8158 42.2505 23.7597 42.1116 23.7414C41.9726 23.723 41.8313 23.7432 41.703 23.7996L39.5998 24.698C38.6727 24.1377 37.6665 23.7203 36.615 23.4596L35.767 21.3356C35.7162 21.2041 35.63 21.0892 35.5178 21.0038C35.4057 20.9184 35.2721 20.8657 35.1318 20.8516C34.375 20.7812 33.6134 20.7812 32.8566 20.8516C32.7193 20.8677 32.5889 20.9208 32.4795 21.0054C32.3702 21.09 32.2859 21.2028 32.2358 21.3316L31.3878 23.4556C30.335 23.7172 29.3277 24.1361 28.3998 24.698L26.2966 23.7996C26.1644 23.7424 26.0189 23.7232 25.8764 23.7443C25.7339 23.7653 25.6002 23.8258 25.4902 23.9188C24.9184 24.4017 24.3887 24.9324 23.907 25.5052C23.8195 25.6148 23.7635 25.7461 23.745 25.8851C23.7265 26.024 23.7463 26.1654 23.8022 26.294L24.7006 28.3996C24.1404 29.327 23.7232 30.3335 23.463 31.3852L21.3398 32.2332C21.2088 32.2848 21.0945 32.3713 21.0092 32.4833C20.9239 32.5953 20.8708 32.7285 20.8558 32.8684C20.7809 33.6239 20.7811 34.385 20.8566 35.1404Z" fill="#C7DCE0"/>
<path d="M34.0004 41.6004C38.1978 41.6004 41.6004 38.1978 41.6004 34.0004C41.6004 29.803 38.1978 26.4004 34.0004 26.4004C29.803 26.4004 26.4004 29.803 26.4004 34.0004C26.4004 38.1978 29.803 41.6004 34.0004 41.6004Z" fill="#AAC2CC"/>
<path d="M33.9996 38.3996C36.4297 38.3996 38.3996 36.4297 38.3996 33.9996C38.3996 31.5696 36.4297 29.5996 33.9996 29.5996C31.5696 29.5996 29.5996 31.5696 29.5996 33.9996C29.5996 36.4297 31.5696 38.3996 33.9996 38.3996Z" fill="#C7DCE0"/>
</g>
<defs>
<clipPath id="clip0_601_6104">
<rect width="48" height="48" fill="white"/>
</clipPath>
</defs>
</svg>
