<svg width="48" height="48" viewBox="0 0 48 48" fill="none" xmlns="http://www.w3.org/2000/svg">
<g clip-path="url(#clip0_601_6113)">
<path d="M18.4847 33.3697C20.6617 35.0242 20.2348 36.8188 18.4847 38.6845C13.3158 41.2306 7.72587 42.9842 1.73047 43.9703C5.89773 41.0119 9.73789 37.861 13.2345 34.5097C14.5605 31.5446 16.4005 31.4857 18.4847 33.3697ZM46.261 0L48.0001 21.9832L41.785 17.7581C40.8791 19.1023 39.9462 20.3942 38.9862 21.6348C34.0162 25.8728 29.3517 28.2489 26.1621 21.6348C23.4451 21.155 23.2088 20.3468 25.9047 19.1555C27.7164 16.3045 29.3364 13.3413 30.7591 10.2629L24.634 6.09968L46.261 0Z" fill="#A7D676"/>
<path d="M24.7353 44.7802H18.4844V38.6844V33.3695C17.7511 28.6796 19.5962 29.0604 27.1383 28.1074V38.4477L24.7353 44.7802Z" fill="#D9E2E1"/>
<path d="M26.3984 43.9702L25.7037 42.1636C25.7037 42.1636 22.2654 41.2896 22.1289 41.2896V30.9493C22.1388 26.3355 23.9309 23.2774 26.1616 21.6948C26.1616 21.6744 26.1616 21.6551 26.1616 21.6348H38.9857H40.1045V47.9999H27.1381L26.3984 43.9702Z" fill="white"/>
<path d="M27.1381 42.6033V48.0004L24.7351 44.7807L22.1289 41.29C22.2654 41.29 27.1381 41.29 27.1381 41.29V42.6033Z" fill="#E7F2F1"/>
<path d="M26.162 21.6348C26.162 21.6552 26.162 21.6745 26.162 21.6948C26.162 25.3335 24.6145 28.6171 22.1293 30.9494C21.0696 31.9452 19.8385 32.7668 18.4846 33.3697C16.881 34.0829 15.1051 34.4884 13.2344 34.5097C13.1831 34.5106 13.1328 34.5106 13.0815 34.5106C5.85701 34.5106 0 28.7729 0 21.6948C0 14.6168 5.85701 8.87903 13.0815 8.87903C19.4176 8.87903 24.7026 13.2939 25.9046 19.1555C26.0701 19.9577 26.1581 20.7861 26.162 21.6348Z" fill="#E15C63"/>
<path d="M14.4582 21.6948C14.4582 20.9496 13.8417 20.3448 13.081 20.3448C12.3194 20.3448 11.7029 20.9496 11.7029 21.6948C11.7029 22.0345 11.8306 22.3441 12.0426 22.5812C12.2942 22.8657 12.6658 23.0448 13.081 23.0448C13.8417 23.0448 14.4582 22.4409 14.4582 21.6948ZM13.081 11.7793C18.6699 11.7793 23.2011 16.2183 23.2011 21.6948C23.2011 27.1712 18.6699 31.6103 13.081 31.6103C7.49111 31.6103 2.95996 27.1712 2.95996 21.6948C2.95996 16.2183 7.49111 11.7793 13.081 11.7793Z" fill="#E7F2F1"/>
<path d="M26.8216 21.635H26.1616C26.1577 20.7863 26.0696 19.9579 25.9042 19.1557C25.9177 19.1344 25.9312 19.1131 25.9438 19.0918C26.3232 19.8979 26.6193 20.7495 26.8216 21.635ZM18.4842 33.3699V36.5102C17.1467 36.9805 15.7095 37.2447 14.2105 37.2621C14.1592 37.2621 14.1088 37.2621 14.0575 37.2621C12.901 37.2621 11.7804 37.115 10.7129 36.8392C11.5723 36.0737 12.4133 35.2976 13.234 34.5099C15.1047 34.4886 16.8806 34.0831 18.4842 33.3699Z" fill="#99C16B"/>
<path d="M22.129 30.9493V34.531C21.3122 35.161 20.417 35.6951 19.4609 36.121C19.1425 36.2632 18.8163 36.3929 18.4844 36.51V33.3697C19.8383 32.7668 21.0693 31.9451 22.129 30.9493Z" fill="#B8D3CF"/>
<path d="M26.632 27.988C25.9865 30.1944 24.7516 32.1561 23.1054 33.7006C22.7938 33.9928 22.4686 34.2706 22.1289 34.5309V30.9493C24.6142 28.617 26.1616 25.3335 26.1616 21.6948C26.1616 21.6744 26.1616 21.6551 26.1616 21.6348H26.8217C26.842 21.7257 26.8623 21.8167 26.8807 21.9077C27.0462 22.709 27.1343 23.5373 27.1381 24.3861C27.1381 24.4064 27.1381 24.4257 27.1381 24.447C27.1381 25.6761 26.962 26.8635 26.632 27.988Z" fill="#C3DDDA"/>
<path d="M20.8818 21.3077H14.4586C14.2448 21.3077 14.0715 21.4811 14.0715 21.6948C14.0715 21.9086 14.2448 22.0819 14.4586 22.0819H20.8818C21.0955 22.0819 21.2689 21.9086 21.2689 21.6948C21.2689 21.4811 21.0955 21.3077 20.8818 21.3077ZM11.7915 22.287L9.06911 24.6144C8.90662 24.7534 8.88756 24.9976 9.02653 25.1602C9.10308 25.2497 9.21167 25.2957 9.32093 25.2957C9.40987 25.2957 9.49939 25.2652 9.57236 25.2028L12.2947 22.8755C12.4572 22.7365 12.4763 22.4922 12.3373 22.3297C12.1984 22.1673 11.954 22.1481 11.7915 22.287Z" fill="#E15C63"/>
<path d="M26.6107 28.3748H35.792C36.0058 28.3748 36.1791 28.2015 36.1791 27.9877C36.1791 27.7739 36.0058 27.6006 35.792 27.6006H26.6107C26.397 27.6006 26.2236 27.7739 26.2236 27.9877C26.2236 28.2015 26.397 28.3748 26.6107 28.3748ZM35.7921 32.4722H26.6107C26.397 32.4722 26.2236 32.6455 26.2236 32.8593C26.2236 33.0731 26.397 33.2464 26.6107 33.2464H35.792C36.0058 33.2464 36.1791 33.0731 36.1791 32.8593C36.1791 32.6455 36.0059 32.4722 35.7921 32.4722ZM35.7921 37.3438H26.6107C26.397 37.3438 26.2236 37.5171 26.2236 37.7309C26.2236 37.9447 26.397 38.118 26.6107 38.118H35.792C36.0058 38.118 36.1791 37.9447 36.1791 37.7309C36.1791 37.5171 36.0059 37.3438 35.7921 37.3438Z" fill="#A8DEE1"/>
<path d="M13.0812 20.3447C13.8419 20.3447 14.4584 20.9496 14.4584 21.6947C14.4584 22.4409 13.8419 23.0447 13.0812 23.0447C12.6661 23.0447 12.2944 22.8657 12.0428 22.5812C11.8309 22.3441 11.7031 22.0344 11.7031 21.6947C11.7031 20.9496 12.3196 20.3447 13.0812 20.3447Z" fill="#655F68"/>
</g>
<defs>
<clipPath id="clip0_601_6113">
<rect width="48" height="48" fill="white"/>
</clipPath>
</defs>
</svg>
