<svg width="48" height="48" viewBox="0 0 48 48" fill="none" xmlns="http://www.w3.org/2000/svg">
<path d="M17 32C25.2843 32 32 25.2843 32 17C32 8.71573 25.2843 2 17 2C8.71573 2 2 8.71573 2 17C2 25.2843 8.71573 32 17 32Z" fill="#D3DBEF"/>
<path d="M31 46C39.2843 46 46 39.2843 46 31C46 22.7157 39.2843 16 31 16C22.7157 16 16 22.7157 16 31C16 39.2843 22.7157 46 31 46Z" fill="#8491C1"/>
<path d="M16 31C16.0003 31.997 16.0996 32.9915 16.2965 33.969C16.5299 33.9841 16.7631 34 17 34C21.5071 33.9949 25.8282 32.2022 29.0153 29.0152C32.2023 25.8282 33.995 21.5071 34 17C34 16.7631 33.9844 16.53 33.9694 16.2966C31.7917 15.857 29.5436 15.9066 27.3874 16.4418C25.2312 16.977 23.2208 17.9844 21.5015 19.3913C19.7821 20.7982 18.3967 22.5694 17.4452 24.5769C16.4938 26.5845 16.0002 28.7784 16 31Z" fill="#6C80AD"/>
<path d="M31.7035 14.031C31.47 14.0159 31.2369 14 31 14C26.4929 14.005 22.1718 15.7977 18.9847 18.9847C15.7977 22.1718 14.005 26.4929 14 31C14 31.2369 14.0156 31.47 14.0306 31.7034C16.4558 32.1929 18.9644 32.075 21.333 31.3602C23.7016 30.6454 25.8566 29.3558 27.6061 27.6064C29.3556 25.8569 30.6452 23.702 31.3601 21.3334C32.075 18.9648 32.193 16.4562 31.7035 14.031Z" fill="#BFCAE2"/>
<path d="M16 31C16 31.3214 16.0282 31.6356 16.0481 31.9519C16.3644 31.9719 16.6787 32 17 32C20.9782 32 24.7936 30.4196 27.6066 27.6066C30.4196 24.7936 32 20.9782 32 17C32 16.6786 31.9718 16.3644 31.9519 16.0481C31.6356 16.0282 31.3214 16 31 16C27.0218 16 23.2064 17.5804 20.3934 20.3934C17.5804 23.2064 16 27.0218 16 31Z" fill="#4AC6B7"/>
</svg>
