<svg width="48" height="48" viewBox="0 0 48 48" fill="none" xmlns="http://www.w3.org/2000/svg">
<path d="M44.79 33.24C44.3804 31.3335 43.4086 29.5935 42 28.245C40.1991 26.4771 37.7736 25.4907 35.25 25.5C32.6654 25.504 30.1877 26.5325 28.3601 28.3601C26.5325 30.1877 25.504 32.6654 25.5 35.25C25.5 35.505 25.5 35.76 25.5 36C25.574 37.0327 25.8173 38.0462 26.22 39C27.1544 41.2406 28.8911 43.0521 31.0903 44.08C33.2896 45.108 35.7933 45.2785 38.1116 44.5583C40.4299 43.838 42.3962 42.2788 43.6258 40.1855C44.8553 38.0923 45.2598 35.6156 44.76 33.24H44.79ZM31.935 38.565L30.435 37.065C30.1525 36.7825 29.9939 36.3995 29.9939 36C29.9939 35.6006 30.1525 35.2175 30.435 34.935C30.7175 34.6525 31.1005 34.4939 31.5 34.4939C31.8995 34.4939 32.2825 34.6525 32.565 34.935L33 35.37L36.435 31.935C36.7175 31.6525 37.1005 31.4939 37.5 31.4939C37.8995 31.4939 38.2825 31.6525 38.565 31.935C38.8475 32.2175 39.0061 32.6006 39.0061 33C39.0061 33.3995 38.8475 33.7825 38.565 34.065L34.065 38.565C33.9256 38.7056 33.7597 38.8172 33.5769 38.8933C33.3941 38.9695 33.198 39.0087 33 39.0087C32.802 39.0087 32.6059 38.9695 32.4231 38.8933C32.2403 38.8172 32.0744 38.7056 31.935 38.565Z" fill="#FF64C8"/>
<path d="M45 16.5V18H3V16.5C3 14.5109 3.79018 12.6032 5.1967 11.1967C6.60322 9.79018 8.51088 9 10.5 9H37.5C39.4891 9 41.3968 9.79018 42.8033 11.1967C44.2098 12.6032 45 14.5109 45 16.5ZM45 21V27C44.715 26.67 44.415 26.34 44.1 26.04C41.7309 23.7411 38.551 22.4691 35.25 22.5C31.8697 22.504 28.629 23.8485 26.2388 26.2388C23.8485 28.629 22.504 31.8697 22.5 35.25C22.5 35.565 22.5 35.88 22.5 36.21C22.5837 37.1586 22.7749 38.0946 23.07 39H10.5C8.51088 39 6.60322 38.2098 5.1967 36.8033C3.79018 35.3968 3 33.4891 3 31.5V21H45Z" fill="#5233FF"/>
</svg>
