<svg width="48" height="48" viewBox="0 0 48 48" fill="none" xmlns="http://www.w3.org/2000/svg">
<path d="M24 33C31.8701 33 38.25 26.6201 38.25 18.75C38.25 10.8799 31.8701 4.5 24 4.5C16.1299 4.5 9.75 10.8799 9.75 18.75C9.75 26.6201 16.1299 33 24 33Z" fill="#FCBF49"/>
<path d="M39 36.75V27.255C37.86 29.265 36.3225 31.02 34.5 32.4225V36.75H31.5L36.75 43.5L42 36.75H39ZM9 36.75V27.255C10.14 29.265 11.6775 31.02 13.5 32.4225V36.75H16.5L11.25 43.5L6 36.75H9Z" fill="#E63946"/>
<path d="M22.9052 21.3963V21.1516C22.9052 20.5869 23 20.0911 23.1897 19.6645C23.392 19.2252 23.6385 18.8362 23.9293 18.4974C24.2328 18.146 24.5489 17.8197 24.8776 17.5185C25.3201 17.0793 25.7184 16.6526 26.0724 16.2384C26.4391 15.8243 26.6224 15.3349 26.6224 14.7701C26.6224 14.4439 26.5402 14.1364 26.3759 13.8478C26.2115 13.5591 25.9649 13.3269 25.6362 13.1513C25.3201 12.9756 24.9282 12.8877 24.4603 12.8877C23.8155 12.8877 23.2592 13.0885 22.7914 13.4901C22.3236 13.8917 22.0328 14.425 21.919 15.0902L20.25 14.7137C20.3638 14.0234 20.6103 13.4211 20.9897 12.9065C21.3816 12.3795 21.8747 11.9716 22.469 11.683C23.0759 11.3943 23.746 11.25 24.4793 11.25C25.3011 11.25 26.0092 11.4194 26.6034 11.7583C27.2103 12.0845 27.6782 12.5112 28.0069 13.0383C28.3356 13.5654 28.5 14.1364 28.5 14.7513C28.5 15.3035 28.3862 15.7929 28.1586 16.2196C27.931 16.6338 27.6402 17.0165 27.2862 17.3679C26.9448 17.7193 26.6034 18.0707 26.2621 18.4221C25.8448 18.8236 25.4782 19.2441 25.1621 19.6833C24.8586 20.11 24.7069 20.612 24.7069 21.1892V21.3963H22.9052ZM22.9241 25.5V23.2411H24.7638V25.5H22.9241Z" fill="#FEFFFF"/>
</svg>
