<svg width="44" height="44" viewBox="0 0 44 44" fill="none" xmlns="http://www.w3.org/2000/svg">
<path d="M43.75 22L40.39 18.34L42.1 13.675L37.5925 11.5825L37.3825 6.6175L32.4175 6.4075L30.325 1.9L25.66 3.61L22 0.25L18.34 3.61L13.675 1.9L11.5825 6.4075L6.6175 6.6175L6.4075 11.5825L1.9 13.675L3.61 18.34L0.25 22L3.61 25.66L1.9 30.325L6.4075 32.4175L6.6175 37.3825L11.5825 37.5925L13.675 42.1L18.34 40.39L22 43.75L25.66 40.39L30.325 42.1L32.4175 37.5925L37.3825 37.3825L37.5925 32.4175L42.1 30.325L40.39 25.66L43.75 22Z" fill="#FFCD00"/>
<path d="M37 21.9998C37.0001 23.2647 36.8413 24.5245 36.5275 25.7498H7.47249C6.94256 23.6887 6.85727 21.5384 7.22229 19.4418C7.58731 17.3452 8.39429 15.3503 9.58961 13.5896C10.7849 11.8288 12.3412 10.3426 14.1551 9.22958C15.969 8.11658 17.999 7.40229 20.1102 7.13417C22.2214 6.86605 24.3654 7.05023 26.4 7.67448C28.4345 8.29873 30.3129 9.34876 31.9104 10.7548C33.5079 12.1609 34.7879 13.8907 35.6654 15.8295C36.543 17.7683 36.9979 19.8717 37 21.9998Z" fill="#F1F2F2"/>
<path d="M43.75 25.75H40.42H36.5275H7.4725H3.58H0.25L3.25 31.75L0.25 37.75H11.6575H32.3425H43.75L40.75 31.75L43.75 25.75Z" fill="#ED1C24"/>
<path d="M19 14.5H15.25V24.25H19V22.75V15.25V14.5Z" fill="#2488FF"/>
<path d="M27.25 15.25H25V12.25C24.9988 11.8525 24.8404 11.4717 24.5593 11.1907C24.2783 10.9096 23.8975 10.7512 23.5 10.75H22V12.25C22 13.0456 21.6839 13.8087 21.1213 14.3713C20.5587 14.9339 19.7956 15.25 19 15.25V23.5H27.25C27.6475 23.4988 28.0283 23.3404 28.3093 23.0593C28.5904 22.7783 28.7488 22.3975 28.75 22V16.75C28.7488 16.3525 28.5904 15.9717 28.3093 15.6907C28.0283 15.4096 27.6475 15.2512 27.25 15.25Z" fill="#FF9478"/>
<path d="M3.25 31.75L0.25 37.75H11.6575H32.3425H43.75L40.75 31.75H3.25Z" fill="#D80027"/>
<path d="M15.25 32.5V34H16.75C16.9489 34 17.1397 34.079 17.2803 34.2197C17.421 34.3603 17.5 34.5511 17.5 34.75C17.5 34.9489 17.421 35.1397 17.2803 35.2803C17.1397 35.421 16.9489 35.5 16.75 35.5H14.5C14.3011 35.5 14.1103 35.421 13.9697 35.2803C13.829 35.1397 13.75 34.9489 13.75 34.75V28.75C13.75 28.5511 13.829 28.3603 13.9697 28.2197C14.1103 28.079 14.3011 28 14.5 28H16.75C16.9489 28 17.1397 28.079 17.2803 28.2197C17.421 28.3603 17.5 28.5511 17.5 28.75C17.5 28.9489 17.421 29.1397 17.2803 29.2803C17.1397 29.421 16.9489 29.5 16.75 29.5H15.25V31H16.75C16.9489 31 17.1397 31.079 17.2803 31.2197C17.421 31.3603 17.5 31.5511 17.5 31.75C17.5 31.9489 17.421 32.1397 17.2803 32.2803C17.1397 32.421 16.9489 32.5 16.75 32.5H15.25ZM28.75 32.5V34H30.25C30.4489 34 30.6397 34.079 30.7803 34.2197C30.921 34.3603 31 34.5511 31 34.75C31 34.9489 30.921 35.1397 30.7803 35.2803C30.6397 35.421 30.4489 35.5 30.25 35.5H28C27.8011 35.5 27.6103 35.421 27.4697 35.2803C27.329 35.1397 27.25 34.9489 27.25 34.75V28.75C27.25 28.5511 27.329 28.3603 27.4697 28.2197C27.6103 28.079 27.8011 28 28 28H30.25C30.4489 28 30.6397 28.079 30.7803 28.2197C30.921 28.3603 31 28.5511 31 28.75C31 28.9489 30.921 29.1397 30.7803 29.2803C30.6397 29.421 30.4489 29.5 30.25 29.5H28.75V31H30.25C30.4489 31 30.6397 31.079 30.7803 31.2197C30.921 31.3603 31 31.5511 31 31.75C31 31.9489 30.921 32.1397 30.7803 32.2803C30.6397 32.421 30.4489 32.5 30.25 32.5H28.75ZM35.0725 32.215C35.5125 31.9778 35.8605 31.6004 36.0614 31.1427C36.2623 30.685 36.3045 30.1734 36.1812 29.689C36.058 29.2046 35.7764 28.7753 35.3812 28.4692C34.986 28.1632 34.4998 27.9981 34 28H32.5C32.3011 28 32.1103 28.079 31.9697 28.2197C31.829 28.3603 31.75 28.5511 31.75 28.75V34.75C31.75 34.9489 31.829 35.1397 31.9697 35.2803C32.1103 35.421 32.3011 35.5 32.5 35.5C32.6989 35.5 32.8897 35.421 33.0303 35.2803C33.171 35.1397 33.25 34.9489 33.25 34.75V32.5H33.535L34.8325 35.0875C34.8935 35.2123 34.9886 35.3172 35.1067 35.3902C35.2248 35.4632 35.3612 35.5013 35.5 35.5C35.6176 35.5013 35.7337 35.4729 35.8375 35.4175C35.9255 35.3735 36.0038 35.3125 36.0681 35.2381C36.1324 35.1637 36.1812 35.0772 36.2119 34.9838C36.2426 34.8903 36.2545 34.7918 36.2468 34.6937C36.2392 34.5957 36.2123 34.5001 36.1675 34.4125L35.0725 32.215ZM34 31H33.25V29.5H34C34.1989 29.5 34.3897 29.579 34.5303 29.7197C34.671 29.8603 34.75 30.0511 34.75 30.25C34.75 30.4489 34.671 30.6397 34.5303 30.7803C34.3897 30.921 34.1989 31 34 31ZM21.25 34H19.75V28.75C19.75 28.5511 19.671 28.3603 19.5303 28.2197C19.3897 28.079 19.1989 28 19 28C18.8011 28 18.6103 28.079 18.4697 28.2197C18.329 28.3603 18.25 28.5511 18.25 28.75V34.75C18.25 34.9489 18.329 35.1397 18.4697 35.2803C18.6103 35.421 18.8011 35.5 19 35.5H21.25C21.4489 35.5 21.6397 35.421 21.7803 35.2803C21.921 35.1397 22 34.9489 22 34.75C22 34.5511 21.921 34.3603 21.7803 34.2197C21.6397 34.079 21.4489 34 21.25 34ZM25.75 34H24.25V28.75C24.25 28.5511 24.171 28.3603 24.0303 28.2197C23.8897 28.079 23.6989 28 23.5 28C23.3011 28 23.1103 28.079 22.9697 28.2197C22.829 28.3603 22.75 28.5511 22.75 28.75V34.75C22.75 34.9489 22.829 35.1397 22.9697 35.2803C23.1103 35.421 23.3011 35.5 23.5 35.5H25.75C25.9489 35.5 26.1397 35.421 26.2803 35.2803C26.421 35.1397 26.5 34.9489 26.5 34.75C26.5 34.5511 26.421 34.3603 26.2803 34.2197C26.1397 34.079 25.9489 34 25.75 34ZM13 32.5V34C12.9988 34.3975 12.8404 34.7783 12.5593 35.0594C12.2783 35.3404 11.8975 35.4988 11.5 35.5H9.25C9.05109 35.5 8.86032 35.421 8.71967 35.2803C8.57902 35.1397 8.5 34.9489 8.5 34.75C8.5 34.5511 8.57902 34.3603 8.71967 34.2197C8.86032 34.079 9.05109 34 9.25 34H11.5V32.5H10C9.60254 32.4988 9.2217 32.3404 8.94065 32.0594C8.6596 31.7783 8.50119 31.3975 8.5 31V29.5C8.50119 29.1026 8.6596 28.7217 8.94065 28.4407C9.2217 28.1596 9.60254 28.0012 10 28H12.25C12.4489 28 12.6397 28.079 12.7803 28.2197C12.921 28.3603 13 28.5511 13 28.75C13 28.9489 12.921 29.1397 12.7803 29.2803C12.6397 29.421 12.4489 29.5 12.25 29.5H10V31H11.5C11.8975 31.0012 12.2783 31.1596 12.5593 31.4407C12.8404 31.7217 12.9988 32.1026 13 32.5Z" fill="#F1F2F2"/>
</svg>
