<svg width="40" height="44" viewBox="0 0 40 44" fill="none" xmlns="http://www.w3.org/2000/svg">
<path d="M20.2092 0.907894C20.8999 0.907894 21.58 0.952706 22.2126 1.05815C22.8359 1.13843 23.4508 1.27429 24.0499 1.46409C24.6474 1.64333 25.2396 1.87442 25.8265 2.15735C26.3985 2.42885 26.9863 2.76099 27.5742 3.12212C28.5679 3.75475 29.5459 4.26613 30.5423 4.67471C32.5033 5.46139 34.5778 5.92862 36.6867 6.0586C37.7534 6.13768 38.8579 6.17809 40.0002 6.17985V16.7238C40.0002 18.7254 39.7445 20.6285 39.2331 22.4333C38.7418 24.2157 38.0438 25.9346 37.1533 27.555C36.2667 29.1732 35.2174 30.6967 34.0218 32.1021C32.8086 33.54 31.4943 34.8896 30.0889 36.1404C28.6637 37.3933 27.1647 38.5596 25.5998 39.6331C24.0323 40.7226 22.456 41.7269 20.8709 42.646L20.2382 43.0229L19.6056 42.646C17.9796 41.7049 16.3915 40.6998 14.845 39.6331C13.2718 38.5712 11.772 37.4043 10.356 36.1404C8.9515 34.8895 7.63808 33.5399 6.42571 32.1021C5.23412 30.6901 4.18021 29.1675 3.27836 27.555C2.4039 25.9271 1.70664 24.21 1.19857 22.4333C0.687352 20.5736 0.433691 18.6525 0.444678 16.7238V6.17985C1.58694 6.17809 2.69229 6.13768 3.76074 6.0586C4.8144 5.98697 5.86119 5.8363 6.89228 5.60784C7.90186 5.38115 8.91144 5.08065 9.9052 4.67471C10.9362 4.25798 11.9248 3.74336 12.8575 3.13793C14.0173 2.38404 15.193 1.82785 16.3528 1.46145C17.602 1.07894 18.9029 0.89221 20.2092 0.907894ZM37.3484 8.77102C35.3531 8.67336 33.3764 8.33978 31.4596 7.77725C29.5536 7.20722 27.7379 6.37035 26.0664 5.29153C25.1991 4.72376 24.2581 4.27763 23.2696 3.96563C22.2816 3.66766 21.2544 3.52015 20.2224 3.52806C19.1828 3.52172 18.148 3.66917 17.1515 3.96563C16.1619 4.26833 15.2222 4.71509 14.3626 5.29153C12.6877 6.37516 10.8674 7.21562 8.95625 7.7878C7.08822 8.33081 5.12969 8.66294 3.08066 8.7842V16.7369C3.08066 18.482 3.30735 20.1584 3.76074 21.7664C4.22304 23.3628 4.8595 24.9036 5.65864 26.3609C6.4677 27.8332 7.42135 29.2213 8.5055 30.5047C9.6047 31.7989 10.7777 33.0036 12.043 34.1476C13.3083 35.2916 14.6341 36.3513 16.0207 37.3266C17.4213 38.3036 18.8218 39.1972 20.2224 40.0074C21.6563 39.1741 23.0538 38.2797 24.411 37.3266C25.8083 36.3539 27.1414 35.2921 28.4019 34.1476C29.6671 33.0036 30.8428 31.7989 31.942 30.5047C33.0261 29.2213 33.9798 27.8332 34.7888 26.3609C35.584 24.9052 36.211 23.3638 36.6577 21.7664C37.1254 20.1312 37.3579 18.4377 37.3484 16.7369V8.77102Z" fill="#828282"/>
<path fill-rule="evenodd" clip-rule="evenodd" d="M30.0364 13.3209L28.8766 12.3245L27.8064 12.4167L16.3135 25.9867L12.3991 20.3985L11.3447 20.2192L10.1243 21.0917L9.94238 22.1461L14.9745 29.3318L15.5465 29.6481L16.7511 29.7219L17.3679 29.4531L30.1129 14.3884L30.0364 13.3209Z" fill="#828282"/>
</svg>
