<svg width="48" height="48" viewBox="0 0 48 48" fill="none" xmlns="http://www.w3.org/2000/svg">
<path d="M30.0038 3.54889C30.7955 3.43069 31.6068 3.52846 32.3505 3.836C33.0944 4.14375 33.7387 4.64782 34.2157 5.29108L34.4091 5.57526L34.41 5.57624L37.3221 10.2247H37.3212C37.4357 10.4074 37.5907 10.5613 37.7733 10.6758H37.7723L42.4198 13.587C43.2006 14.0757 43.8105 14.7965 44.163 15.6475C44.5153 16.4985 44.5932 17.4384 44.3866 18.336L43.1571 23.6788C43.1087 23.8893 43.1088 24.1079 43.1571 24.3184L44.3866 29.6651L44.3876 29.6671C44.5922 30.5634 44.5124 31.5014 44.16 32.3507C43.8077 33.1999 43.1999 33.9191 42.4208 34.4073L42.4198 34.4063L37.7733 37.3214C37.591 37.4357 37.4357 37.5893 37.3212 37.7715L34.41 42.4219L34.4091 42.421C33.9207 43.2009 33.2024 43.8097 32.3524 44.1622C31.5024 44.5146 30.5638 44.5933 29.6669 44.3878H29.6649L24.3192 43.1573V43.1563C24.1095 43.1085 23.8912 43.1082 23.6815 43.1563L23.6825 43.1573L18.3368 44.3878H18.3358C17.4389 44.5934 16.5003 44.5146 15.6503 44.1622C14.8001 43.8097 14.081 43.201 13.5927 42.421V42.4219L10.6805 37.7725V37.7715C10.5659 37.5901 10.4114 37.4371 10.2294 37.3233L10.2264 37.3214L5.58191 34.4092V34.4102C4.80193 33.9218 4.19311 33.2018 3.8407 32.3516C3.48842 31.5016 3.40952 30.563 3.61511 29.6661L4.84265 24.3194L4.87 24.1592C4.88205 24.0525 4.88208 23.9447 4.87 23.838L4.84265 23.6788L3.61219 18.336V18.335C3.40599 17.4369 3.48547 16.4967 3.83875 15.6456C4.1917 14.7953 4.8004 14.076 5.58094 13.588L10.2264 10.6758L10.2294 10.6749C10.4118 10.5609 10.5657 10.4067 10.6805 10.2247L13.5927 5.57624L13.5936 5.57429C14.0824 4.79612 14.8013 4.1895 15.6503 3.83796C16.3933 3.53034 17.2038 3.43134 17.995 3.54889L18.3329 3.61237L23.6815 4.83991L23.8407 4.86725C24.0005 4.88531 24.1627 4.87599 24.3202 4.83991L29.6659 3.61237L30.0038 3.54889ZM31.204 6.60846C30.9298 6.49504 30.627 6.46976 30.3378 6.5362L24.9911 7.76374C24.3397 7.91312 23.663 7.91307 23.0116 7.76374H23.0106L17.662 6.5362V6.53522C17.3734 6.46945 17.0713 6.49622 16.7977 6.60944C16.5237 6.72289 16.2914 6.91879 16.1337 7.16999L13.2235 11.8174L13.2216 11.8194C12.8653 12.386 12.3859 12.8653 11.8182 13.2198L11.8173 13.2188L7.17469 16.1299L7.17176 16.1309C6.91963 16.2884 6.72324 16.5213 6.60926 16.796C6.49538 17.0704 6.46962 17.3735 6.53601 17.6632L7.76648 23.0059V23.0069C7.91647 23.6597 7.91652 24.3384 7.76648 24.9913L6.53894 30.337C6.47276 30.6263 6.49854 30.929 6.61219 31.2032C6.72591 31.4775 6.92209 31.7096 7.17371 31.8673H7.17469L11.8202 34.7794H11.8192C12.3862 35.1337 12.8657 35.6117 13.2216 36.1778L13.2235 36.1798L16.1346 40.8292C16.2922 41.0808 16.5245 41.2769 16.7987 41.3907C17.0725 41.5042 17.375 41.5299 17.6639 41.4639L23.0096 40.2335H23.0116C23.663 40.0842 24.3397 40.0841 24.9911 40.2335H24.9921L30.3378 41.4639H30.3368C30.6261 41.5303 30.9288 41.5043 31.203 41.3907C31.4773 41.277 31.7095 41.0809 31.8671 40.8292L34.7792 36.1798L34.9188 35.9717C35.256 35.496 35.6842 35.09 36.1796 34.7794L40.828 31.8653V31.8643C41.0794 31.7068 41.2758 31.4753 41.3895 31.2012C41.5033 30.9271 41.5288 30.6243 41.4628 30.335V30.3341L40.2333 24.9913C40.0832 24.3384 40.0833 23.6598 40.2333 23.0069V23.0059L41.4637 17.6632C41.5304 17.3734 41.5052 17.0696 41.3915 16.795C41.2777 16.5203 41.0809 16.2876 40.829 16.1299H40.828L36.1796 13.2178C35.6134 12.8628 35.1341 12.3846 34.7792 11.8184V11.8174L31.868 7.16999L31.8055 7.07819C31.6516 6.87059 31.444 6.70776 31.204 6.60846Z" fill="#828282"/>
<path d="M29.7076 16.2372C30.1289 15.524 31.049 15.2869 31.7623 15.7079C32.4756 16.1292 32.7127 17.0493 32.2916 17.7626L24.0241 31.7626C23.7911 32.1571 23.3899 32.4238 22.9362 32.4863C22.4826 32.5486 22.0257 32.3996 21.695 32.0829L15.9625 26.5927C15.3642 26.0197 15.3436 25.0709 15.9166 24.4726C16.4896 23.8743 17.4385 23.8538 18.0368 24.4267L22.402 28.6074L29.7076 16.2372Z" fill="#828282"/>
</svg>
